<?xml version="1.0" encoding="UTF-8" standalone="no"?><!DOCTYPE svg PUBLIC "-//W3C//DTD SVG 1.1//EN" "http://www.w3.org/Graphics/SVG/1.1/DTD/svg11.dtd"><svg width="100%" height="100%" viewBox="0 0 4888 3820" version="1.1" xmlns="http://www.w3.org/2000/svg" xmlns:xlink="http://www.w3.org/1999/xlink" xml:space="preserve" xmlns:serif="http://www.serif.com/" style="fill-rule:evenodd;clip-rule:evenodd;stroke-linejoin:round;stroke-miterlimit:2;"><rect id="Artboard1" x="0" y="-0" width="4887.53" height="3819.66" style="fill:none;"/><clipPath id="_clip1"><rect x="0" y="-0" width="4887.53" height="3819.66"/></clipPath><g clip-path="url(#_clip1)"><g><path d="M2102.78,2423.3l-3.821,0c-6.333,0 -11.458,-5.129 -11.458,-11.458c-0,-6.329 5.125,-11.459 11.458,-11.459l18.523,0l-14.702,22.917Zm69.551,-108.413c-1.885,1.361 -4.2,2.163 -6.705,2.163l-66.667,0c-6.333,0 -11.458,-5.129 -11.458,-11.458c-0,-6.329 5.125,-11.459 11.458,-11.459l21.875,0l0,-91.666l-21.875,-0c-6.333,-0 -11.458,-5.129 -11.458,-11.459c-0,-6.329 5.125,-11.458 11.458,-11.458l25,0c10.917,0 19.792,8.863 19.792,19.792l-0,94.791l21.875,0c6.333,0 11.458,5.13 11.458,11.459c0,0.759 -0.073,1.501 -0.214,2.219l-4.539,7.076Zm140.283,-218.67l-17.821,-0c-6.334,-0 -11.459,-5.129 -11.459,-11.459c0,-6.329 5.125,-11.458 11.459,-11.458l21.875,0l-0,-91.667l-21.875,0c-6.334,0 -11.459,-5.129 -11.459,-11.458c0,-6.329 5.125,-11.458 11.459,-11.458l25,-0c10.916,-0 19.791,8.862 19.791,19.791l0,75.669l-26.97,42.04Zm199.887,-311.577l-0,-23.84l-21.875,0c-6.333,0 -11.458,-5.129 -11.458,-11.458c-0,-6.329 5.125,-11.459 11.458,-11.459l25,0c8.51,0 15.779,5.386 18.571,12.938l-21.696,33.819Zm225.129,-350.923l-51.171,-0c-6.333,-0 -11.458,-5.129 -11.458,-11.459c-0,-6.329 5.125,-11.458 11.458,-11.458l21.875,0l0,-91.667l-21.875,0c-6.333,0 -11.458,-5.129 -11.458,-11.458c-0,-6.329 5.125,-11.458 11.458,-11.458l25,-0c10.917,-0 19.792,8.862 19.792,19.791l-0,94.792l21.081,0l-14.702,22.917Zm-593.879,-464.584l21.875,0c6.333,0 11.458,5.13 11.458,11.459c0,6.329 -5.125,11.458 -11.458,11.458l-66.667,0c-6.333,0 -11.458,-5.129 -11.458,-11.458c-0,-6.329 5.125,-11.459 11.458,-11.459l21.875,0l0,-91.666l-21.875,-0c-6.333,-0 -11.458,-5.129 -11.458,-11.459c-0,-6.329 5.125,-11.458 11.458,-11.458l25,0c10.917,0 19.792,8.863 19.792,19.792l-0,94.791Zm-0,220.834l21.875,-0c6.333,-0 11.458,5.129 11.458,11.458c0,6.329 -5.125,11.458 -11.458,11.458l-66.667,0c-6.333,0 -11.458,-5.129 -11.458,-11.458c-0,-6.329 5.125,-11.458 11.458,-11.458l21.875,-0l0,-91.667l-21.875,0c-6.333,0 -11.458,-5.129 -11.458,-11.458c-0,-6.329 5.125,-11.459 11.458,-11.459l25,0c10.917,0 19.792,8.863 19.792,19.792l-0,94.792Zm391.667,-0l21.875,-0c6.333,-0 11.458,5.129 11.458,11.458c-0,6.329 -5.125,11.458 -11.458,11.458l-66.667,0c-6.333,0 -11.458,-5.129 -11.458,-11.458c-0,-6.329 5.125,-11.458 11.458,-11.458l21.875,-0l-0,-91.667l-21.875,0c-6.333,0 -11.458,-5.129 -11.458,-11.458c-0,-6.329 5.125,-11.459 11.458,-11.459l25,0c10.917,0 19.792,8.863 19.792,19.792l-0,94.792Zm-979.167,220.833l21.875,0c6.329,0 11.458,5.129 11.458,11.458c0,6.33 -5.129,11.459 -11.458,11.459l-66.667,-0c-6.329,-0 -11.458,-5.129 -11.458,-11.459c-0,-6.329 5.129,-11.458 11.458,-11.458l21.875,0l0,-91.667l-21.875,0c-6.329,0 -11.458,-5.129 -11.458,-11.458c-0,-6.329 5.129,-11.458 11.458,-11.458l25,-0c10.929,-0 19.792,8.862 19.792,19.791l-0,94.792Zm195.833,0l21.875,0c6.334,0 11.459,5.129 11.459,11.458c-0,6.33 -5.125,11.459 -11.459,11.459l-66.666,-0c-6.334,-0 -11.459,-5.129 -11.459,-11.459c0,-6.329 5.125,-11.458 11.459,-11.458l21.875,0l-0,-91.667l-21.875,0c-6.334,0 -11.459,-5.129 -11.459,-11.458c0,-6.329 5.125,-11.458 11.459,-11.458l25,-0c10.916,-0 19.791,8.862 19.791,19.791l0,94.792Zm391.667,0l21.875,0c6.333,0 11.458,5.129 11.458,11.458c0,6.33 -5.125,11.459 -11.458,11.459l-66.667,-0c-6.333,-0 -11.458,-5.129 -11.458,-11.459c-0,-6.329 5.125,-11.458 11.458,-11.458l21.875,0l0,-91.667l-21.875,0c-6.333,0 -11.458,-5.129 -11.458,-11.458c-0,-6.329 5.125,-11.458 11.458,-11.458l25,-0c10.917,-0 19.792,8.862 19.792,19.791l-0,94.792Zm195.833,0l21.875,0c6.334,0 11.459,5.129 11.459,11.458c-0,6.33 -5.125,11.459 -11.459,11.459l-66.666,-0c-6.334,-0 -11.459,-5.129 -11.459,-11.459c0,-6.329 5.125,-11.458 11.459,-11.458l21.875,0l-0,-91.667l-21.875,0c-6.334,0 -11.459,-5.129 -11.459,-11.458c0,-6.329 5.125,-11.458 11.459,-11.458l25,-0c10.916,-0 19.791,8.862 19.791,19.791l0,94.792Zm195.834,0l21.875,0c6.333,0 11.458,5.129 11.458,11.458c-0,6.33 -5.125,11.459 -11.458,11.459l-66.667,-0c-6.333,-0 -11.458,-5.129 -11.458,-11.459c-0,-6.329 5.125,-11.458 11.458,-11.458l21.875,0l-0,-91.667l-21.875,0c-6.333,0 -11.458,-5.129 -11.458,-11.458c-0,-6.329 5.125,-11.458 11.458,-11.458l25,-0c10.917,-0 19.792,8.862 19.792,19.791l-0,94.792Zm-1958.33,220.833l21.875,0c6.329,0 11.459,5.13 11.459,11.459c-0,6.329 -5.13,11.458 -11.459,11.458l-66.666,0c-6.33,0 -11.459,-5.129 -11.459,-11.458c0,-6.329 5.129,-11.459 11.459,-11.459l21.875,0l-0,-91.666l-21.875,-0c-6.33,-0 -11.459,-5.129 -11.459,-11.459c0,-6.329 5.129,-11.458 11.459,-11.458l25,0c10.929,0 19.791,8.863 19.791,19.792l0,94.791Zm195.834,0l21.875,0c6.329,0 11.458,5.13 11.458,11.459c-0,6.329 -5.129,11.458 -11.458,11.458l-66.667,0c-6.329,0 -11.458,-5.129 -11.458,-11.458c-0,-6.329 5.129,-11.459 11.458,-11.459l21.875,0l-0,-91.666l-21.875,-0c-6.329,-0 -11.458,-5.129 -11.458,-11.459c-0,-6.329 5.129,-11.458 11.458,-11.458l25,0c10.929,0 19.792,8.863 19.792,19.792l-0,94.791Zm587.5,0l21.875,0c6.329,0 11.458,5.13 11.458,11.459c-0,6.329 -5.129,11.458 -11.458,11.458l-66.667,0c-6.329,0 -11.458,-5.129 -11.458,-11.458c-0,-6.329 5.129,-11.459 11.458,-11.459l21.875,0l-0,-91.666l-21.875,-0c-6.329,-0 -11.458,-5.129 -11.458,-11.459c-0,-6.329 5.129,-11.458 11.458,-11.458l25,0c10.929,0 19.792,8.863 19.792,19.792l-0,94.791Zm195.833,0l21.875,0c6.329,0 11.458,5.13 11.458,11.459c0,6.329 -5.129,11.458 -11.458,11.458l-66.667,0c-6.329,0 -11.458,-5.129 -11.458,-11.458c-0,-6.329 5.129,-11.459 11.458,-11.459l21.875,0l0,-91.666l-21.875,-0c-6.329,-0 -11.458,-5.129 -11.458,-11.459c-0,-6.329 5.129,-11.458 11.458,-11.458l25,0c10.929,0 19.792,8.863 19.792,19.792l-0,94.791Zm195.833,0l21.875,0c6.334,0 11.459,5.13 11.459,11.459c-0,6.329 -5.125,11.458 -11.459,11.458l-66.666,0c-6.334,0 -11.459,-5.129 -11.459,-11.458c0,-6.329 5.125,-11.459 11.459,-11.459l21.875,0l-0,-91.666l-21.875,-0c-6.334,-0 -11.459,-5.129 -11.459,-11.459c0,-6.329 5.125,-11.458 11.459,-11.458l25,0c10.916,0 19.791,8.863 19.791,19.792l0,94.791Zm195.834,0l21.875,0c6.333,0 11.458,5.13 11.458,11.459c-0,6.329 -5.125,11.458 -11.458,11.458l-66.667,0c-6.333,0 -11.458,-5.129 -11.458,-11.458c-0,-6.329 5.125,-11.459 11.458,-11.459l21.875,0l-0,-91.666l-21.875,-0c-6.333,-0 -11.458,-5.129 -11.458,-11.459c-0,-6.329 5.125,-11.458 11.458,-11.458l25,0c10.917,0 19.792,8.863 19.792,19.792l-0,94.791Zm195.833,0l21.875,0c6.333,0 11.458,5.13 11.458,11.459c0,6.329 -5.125,11.458 -11.458,11.458l-66.667,0c-6.333,0 -11.458,-5.129 -11.458,-11.458c-0,-6.329 5.125,-11.459 11.458,-11.459l21.875,0l0,-91.666l-21.875,-0c-6.333,-0 -11.458,-5.129 -11.458,-11.459c-0,-6.329 5.125,-11.458 11.458,-11.458l25,0c10.917,0 19.792,8.863 19.792,19.792l-0,94.791Zm195.833,0l21.875,0c6.334,0 11.459,5.13 11.459,11.459c-0,6.329 -5.125,11.458 -11.459,11.458l-66.666,0c-6.334,0 -11.459,-5.129 -11.459,-11.458c0,-6.329 5.125,-11.459 11.459,-11.459l21.875,0l-0,-91.666l-21.875,-0c-6.334,-0 -11.459,-5.129 -11.459,-11.459c0,-6.329 5.125,-11.458 11.459,-11.458l25,0c10.916,0 19.791,8.863 19.791,19.792l0,94.791Zm195.834,0l21.875,0c6.333,0 11.458,5.13 11.458,11.459c-0,6.329 -5.125,11.458 -11.458,11.458l-66.667,0c-6.333,0 -11.458,-5.129 -11.458,-11.458c-0,-6.329 5.125,-11.459 11.458,-11.459l21.875,0l-0,-91.666l-21.875,-0c-6.333,-0 -11.458,-5.129 -11.458,-11.459c-0,-6.329 5.125,-11.458 11.458,-11.458l25,0c10.917,0 19.792,8.863 19.792,19.792l-0,94.791Zm-2154.17,220.834l21.875,-0c6.329,-0 11.458,5.129 11.458,11.458c0,6.329 -5.129,11.458 -11.458,11.458l-66.667,0c-6.329,0 -11.458,-5.129 -11.458,-11.458c-0,-6.329 5.129,-11.458 11.458,-11.458l21.875,-0l0,-91.667l-21.875,0c-6.329,0 -11.458,-5.129 -11.458,-11.458c-0,-6.329 5.129,-11.459 11.458,-11.459l25,0c10.929,0 19.792,8.863 19.792,19.792l-0,94.792Zm195.833,-0l21.875,-0c6.329,-0 11.459,5.129 11.459,11.458c-0,6.329 -5.13,11.458 -11.459,11.458l-66.666,0c-6.33,0 -11.459,-5.129 -11.459,-11.458c0,-6.329 5.129,-11.458 11.459,-11.458l21.875,-0l-0,-91.667l-21.875,0c-6.33,0 -11.459,-5.129 -11.459,-11.458c0,-6.329 5.129,-11.459 11.459,-11.459l25,0c10.929,0 19.791,8.863 19.791,19.792l0,94.792Zm195.834,-0l21.875,-0c6.329,-0 11.458,5.129 11.458,11.458c-0,6.329 -5.129,11.458 -11.458,11.458l-66.667,0c-6.329,0 -11.458,-5.129 -11.458,-11.458c-0,-6.329 5.129,-11.458 11.458,-11.458l21.875,-0l-0,-91.667l-21.875,0c-6.329,0 -11.458,-5.129 -11.458,-11.458c-0,-6.329 5.129,-11.459 11.458,-11.459l25,0c10.929,0 19.792,8.863 19.792,19.792l-0,94.792Zm391.666,-0l21.875,-0c6.329,-0 11.459,5.129 11.459,11.458c-0,6.329 -5.13,11.458 -11.459,11.458l-66.666,0c-6.33,0 -11.459,-5.129 -11.459,-11.458c0,-6.329 5.129,-11.458 11.459,-11.458l21.875,-0l-0,-91.667l-21.875,0c-6.33,0 -11.459,-5.129 -11.459,-11.458c0,-6.329 5.129,-11.459 11.459,-11.459l25,0c10.929,0 19.791,8.863 19.791,19.792l0,94.792Zm195.834,-0l21.875,-0c6.329,-0 11.458,5.129 11.458,11.458c-0,6.329 -5.129,11.458 -11.458,11.458l-66.667,0c-6.329,0 -11.458,-5.129 -11.458,-11.458c-0,-6.329 5.129,-11.458 11.458,-11.458l21.875,-0l-0,-91.667l-21.875,0c-6.329,0 -11.458,-5.129 -11.458,-11.458c-0,-6.329 5.129,-11.459 11.458,-11.459l25,0c10.929,0 19.792,8.863 19.792,19.792l-0,94.792Zm195.833,-0l21.875,-0c6.329,-0 11.458,5.129 11.458,11.458c0,6.329 -5.129,11.458 -11.458,11.458l-66.667,0c-6.329,0 -11.458,-5.129 -11.458,-11.458c-0,-6.329 5.129,-11.458 11.458,-11.458l21.875,-0l0,-91.667l-21.875,0c-6.329,0 -11.458,-5.129 -11.458,-11.458c-0,-6.329 5.129,-11.459 11.458,-11.459l25,0c10.929,0 19.792,8.863 19.792,19.792l-0,94.792Zm195.833,-0l21.875,-0c6.334,-0 11.459,5.129 11.459,11.458c-0,6.329 -5.125,11.458 -11.459,11.458l-66.666,0c-6.334,0 -11.459,-5.129 -11.459,-11.458c0,-6.329 5.125,-11.458 11.459,-11.458l21.875,-0l-0,-91.667l-21.875,0c-6.334,0 -11.459,-5.129 -11.459,-11.458c0,-6.329 5.125,-11.459 11.459,-11.459l25,0c10.916,0 19.791,8.863 19.791,19.792l0,94.792Zm195.834,-0l21.875,-0c6.333,-0 11.458,5.129 11.458,11.458c-0,6.329 -5.125,11.458 -11.458,11.458l-66.667,0c-6.333,0 -11.458,-5.129 -11.458,-11.458c-0,-6.329 5.125,-11.458 11.458,-11.458l21.875,-0l-0,-91.667l-21.875,0c-6.333,0 -11.458,-5.129 -11.458,-11.458c-0,-6.329 5.125,-11.459 11.458,-11.459l25,0c10.917,0 19.792,8.863 19.792,19.792l-0,94.792Zm195.833,-0l21.875,-0c6.333,-0 11.458,5.129 11.458,11.458c0,6.329 -5.125,11.458 -11.458,11.458l-66.667,0c-6.333,0 -11.458,-5.129 -11.458,-11.458c-0,-6.329 5.125,-11.458 11.458,-11.458l21.875,-0l0,-91.667l-21.875,0c-6.333,0 -11.458,-5.129 -11.458,-11.458c-0,-6.329 5.125,-11.459 11.458,-11.459l25,0c10.917,0 19.792,8.863 19.792,19.792l-0,94.792Zm195.833,-0l21.875,-0c6.334,-0 11.459,5.129 11.459,11.458c-0,6.329 -5.125,11.458 -11.459,11.458l-66.666,0c-6.334,0 -11.459,-5.129 -11.459,-11.458c0,-6.329 5.125,-11.458 11.459,-11.458l21.875,-0l-0,-91.667l-21.875,0c-6.334,0 -11.459,-5.129 -11.459,-11.458c0,-6.329 5.125,-11.459 11.459,-11.459l25,0c10.916,0 19.791,8.863 19.791,19.792l0,94.792Zm-2154.17,220.833l21.875,0c6.329,0 11.458,5.129 11.458,11.458c-0,6.33 -5.129,11.459 -11.458,11.459l-66.667,-0c-6.329,-0 -11.458,-5.129 -11.458,-11.459c-0,-6.329 5.129,-11.458 11.458,-11.458l21.875,0l-0,-91.667l-21.875,0c-6.329,0 -11.458,-5.129 -11.458,-11.458c-0,-6.329 5.129,-11.458 11.458,-11.458l25,-0c10.929,-0 19.792,8.862 19.792,19.791l-0,94.792Zm195.833,0l21.875,0c6.329,0 11.458,5.129 11.458,11.458c0,6.33 -5.129,11.459 -11.458,11.459l-66.667,-0c-6.329,-0 -11.458,-5.129 -11.458,-11.459c-0,-6.329 5.129,-11.458 11.458,-11.458l21.875,0l0,-91.667l-21.875,0c-6.329,0 -11.458,-5.129 -11.458,-11.458c-0,-6.329 5.129,-11.458 11.458,-11.458l25,-0c10.929,-0 19.792,8.862 19.792,19.791l-0,94.792Zm195.833,0l21.875,0c6.329,0 11.459,5.129 11.459,11.458c-0,6.33 -5.13,11.459 -11.459,11.459l-66.666,-0c-6.33,-0 -11.459,-5.129 -11.459,-11.459c0,-6.329 5.129,-11.458 11.459,-11.458l21.875,0l-0,-91.667l-21.875,0c-6.33,0 -11.459,-5.129 -11.459,-11.458c0,-6.329 5.129,-11.458 11.459,-11.458l25,-0c10.929,-0 19.791,8.862 19.791,19.791l0,94.792Zm195.834,0l21.875,0c6.329,0 11.458,5.129 11.458,11.458c-0,6.33 -5.129,11.459 -11.458,11.459l-66.667,-0c-6.329,-0 -11.458,-5.129 -11.458,-11.459c-0,-6.329 5.129,-11.458 11.458,-11.458l21.875,0l-0,-91.667l-21.875,0c-6.329,0 -11.458,-5.129 -11.458,-11.458c-0,-6.329 5.129,-11.458 11.458,-11.458l25,-0c10.929,-0 19.792,8.862 19.792,19.791l-0,94.792Zm195.833,0l21.875,0c6.329,0 11.458,5.129 11.458,11.458c0,6.33 -5.129,11.459 -11.458,11.459l-66.667,-0c-6.329,-0 -11.458,-5.129 -11.458,-11.459c-0,-6.329 5.129,-11.458 11.458,-11.458l21.875,0l0,-91.667l-21.875,0c-6.329,0 -11.458,-5.129 -11.458,-11.458c-0,-6.329 5.129,-11.458 11.458,-11.458l25,-0c10.929,-0 19.792,8.862 19.792,19.791l-0,94.792Zm195.833,0l21.875,0c6.329,0 11.459,5.129 11.459,11.458c-0,6.33 -5.13,11.459 -11.459,11.459l-66.666,-0c-6.33,-0 -11.459,-5.129 -11.459,-11.459c0,-6.329 5.129,-11.458 11.459,-11.458l21.875,0l-0,-91.667l-21.875,0c-6.33,0 -11.459,-5.129 -11.459,-11.458c0,-6.329 5.129,-11.458 11.459,-11.458l25,-0c10.929,-0 19.791,8.862 19.791,19.791l0,94.792Zm195.834,0l21.875,0c6.329,0 11.458,5.129 11.458,11.458c-0,6.33 -5.129,11.459 -11.458,11.459l-66.667,-0c-6.329,-0 -11.458,-5.129 -11.458,-11.459c-0,-6.329 5.129,-11.458 11.458,-11.458l21.875,0l-0,-91.667l-21.875,0c-6.329,0 -11.458,-5.129 -11.458,-11.458c-0,-6.329 5.129,-11.458 11.458,-11.458l25,-0c10.929,-0 19.792,8.862 19.792,19.791l-0,94.792Zm195.833,0l21.875,0c6.329,0 11.458,5.129 11.458,11.458c0,6.33 -5.129,11.459 -11.458,11.459l-66.667,-0c-6.329,-0 -11.458,-5.129 -11.458,-11.459c-0,-6.329 5.129,-11.458 11.458,-11.458l21.875,0l0,-91.667l-21.875,0c-6.329,0 -11.458,-5.129 -11.458,-11.458c-0,-6.329 5.129,-11.458 11.458,-11.458l25,-0c10.929,-0 19.792,8.862 19.792,19.791l-0,94.792Zm195.833,0l21.875,0c6.334,0 11.459,5.129 11.459,11.458c-0,6.33 -5.125,11.459 -11.459,11.459l-66.666,-0c-6.334,-0 -11.459,-5.129 -11.459,-11.459c0,-6.329 5.125,-11.458 11.459,-11.458l21.875,0l-0,-91.667l-21.875,0c-6.334,0 -11.459,-5.129 -11.459,-11.458c0,-6.329 5.125,-11.458 11.459,-11.458l25,-0c10.916,-0 19.791,8.862 19.791,19.791l0,94.792Zm195.834,0l21.875,0c6.333,0 11.458,5.129 11.458,11.458c-0,6.33 -5.125,11.459 -11.458,11.459l-66.667,-0c-6.333,-0 -11.458,-5.129 -11.458,-11.459c-0,-6.329 5.125,-11.458 11.458,-11.458l21.875,0l-0,-91.667l-21.875,0c-6.333,0 -11.458,-5.129 -11.458,-11.458c-0,-6.329 5.125,-11.458 11.458,-11.458l25,-0c10.917,-0 19.792,8.862 19.792,19.791l-0,94.792Zm195.833,0l21.875,0c6.333,0 11.458,5.129 11.458,11.458c0,6.33 -5.125,11.459 -11.458,11.459l-66.667,-0c-6.333,-0 -11.458,-5.129 -11.458,-11.459c-0,-6.329 5.125,-11.458 11.458,-11.458l21.875,0l0,-91.667l-21.875,0c-6.333,0 -11.458,-5.129 -11.458,-11.458c-0,-6.329 5.125,-11.458 11.458,-11.458l25,-0c10.917,-0 19.792,8.862 19.792,19.791l-0,94.792Zm-1762.5,220.833l21.875,0c6.329,0 11.458,5.13 11.458,11.459c0,6.329 -5.129,11.458 -11.458,11.458l-66.667,0c-6.329,0 -11.458,-5.129 -11.458,-11.458c-0,-6.329 5.129,-11.459 11.458,-11.459l21.875,0l0,-91.666l-21.875,-0c-6.329,-0 -11.458,-5.129 -11.458,-11.459c-0,-6.329 5.129,-11.458 11.458,-11.458l25,0c10.929,0 19.792,8.863 19.792,19.792l-0,94.791Zm195.833,0l21.875,0c6.329,0 11.459,5.13 11.459,11.459c-0,6.329 -5.13,11.458 -11.459,11.458l-66.666,0c-6.33,0 -11.459,-5.129 -11.459,-11.458c0,-6.329 5.129,-11.459 11.459,-11.459l21.875,0l-0,-91.666l-21.875,-0c-6.33,-0 -11.459,-5.129 -11.459,-11.459c0,-6.329 5.129,-11.458 11.459,-11.458l25,0c10.929,0 19.791,8.863 19.791,19.792l0,94.791Zm195.834,0l21.875,0c6.329,0 11.458,5.13 11.458,11.459c-0,6.329 -5.129,11.458 -11.458,11.458l-66.667,0c-6.329,0 -11.458,-5.129 -11.458,-11.458c-0,-6.329 5.129,-11.459 11.458,-11.459l21.875,0l-0,-91.666l-21.875,-0c-6.329,-0 -11.458,-5.129 -11.458,-11.459c-0,-6.329 5.129,-11.458 11.458,-11.458l25,0c10.929,0 19.792,8.863 19.792,19.792l-0,94.791Zm391.666,0l21.875,0c6.329,0 11.459,5.13 11.459,11.459c-0,6.329 -5.13,11.458 -11.459,11.458l-66.666,0c-6.33,0 -11.459,-5.129 -11.459,-11.458c0,-6.329 5.129,-11.459 11.459,-11.459l21.875,0l-0,-91.666l-21.875,-0c-6.33,-0 -11.459,-5.129 -11.459,-11.459c0,-6.329 5.129,-11.458 11.459,-11.458l25,0c10.929,0 19.791,8.863 19.791,19.792l0,94.791Zm195.834,0l21.875,0c6.329,0 11.458,5.13 11.458,11.459c-0,6.329 -5.129,11.458 -11.458,11.458l-66.667,0c-6.329,0 -11.458,-5.129 -11.458,-11.458c-0,-6.329 5.129,-11.459 11.458,-11.459l21.875,0l-0,-91.666l-21.875,-0c-6.329,-0 -11.458,-5.129 -11.458,-11.459c-0,-6.329 5.129,-11.458 11.458,-11.458l25,0c10.929,0 19.792,8.863 19.792,19.792l-0,94.791Zm195.833,0l21.875,0c6.329,0 11.458,5.13 11.458,11.459c0,6.329 -5.129,11.458 -11.458,11.458l-66.667,0c-6.329,0 -11.458,-5.129 -11.458,-11.458c-0,-6.329 5.129,-11.459 11.458,-11.459l21.875,0l0,-91.666l-21.875,-0c-6.329,-0 -11.458,-5.129 -11.458,-11.459c-0,-6.329 5.129,-11.458 11.458,-11.458l25,0c10.929,0 19.792,8.863 19.792,19.792l-0,94.791Zm195.833,0l21.875,0c6.334,0 11.459,5.13 11.459,11.459c-0,6.329 -5.125,11.458 -11.459,11.458l-66.666,0c-6.334,0 -11.459,-5.129 -11.459,-11.458c0,-6.329 5.125,-11.459 11.459,-11.459l21.875,0l-0,-91.666l-21.875,-0c-6.334,-0 -11.459,-5.129 -11.459,-11.459c0,-6.329 5.125,-11.458 11.459,-11.458l25,0c10.916,0 19.791,8.863 19.791,19.792l0,94.791Zm195.834,0l21.875,0c6.333,0 11.458,5.13 11.458,11.459c-0,6.329 -5.125,11.458 -11.458,11.458l-66.667,0c-6.333,0 -11.458,-5.129 -11.458,-11.458c-0,-6.329 5.125,-11.459 11.458,-11.459l21.875,0l-0,-91.666l-21.875,-0c-6.333,-0 -11.458,-5.129 -11.458,-11.459c-0,-6.329 5.125,-11.458 11.458,-11.458l25,0c10.917,0 19.792,8.863 19.792,19.792l-0,94.791Zm-1370.83,220.834l21.875,-0c6.329,-0 11.459,5.129 11.459,11.458c-0,6.329 -5.13,11.458 -11.459,11.458l-66.666,0c-6.33,0 -11.459,-5.129 -11.459,-11.458c0,-6.329 5.129,-11.458 11.459,-11.458l21.875,-0l-0,-91.667l-21.875,0c-6.33,0 -11.459,-5.129 -11.459,-11.458c0,-6.329 5.129,-11.459 11.459,-11.459l25,0c10.929,0 19.791,8.863 19.791,19.792l0,94.792Zm195.834,-0l21.875,-0c6.329,-0 11.458,5.129 11.458,11.458c-0,6.329 -5.129,11.458 -11.458,11.458l-66.667,0c-6.329,0 -11.458,-5.129 -11.458,-11.458c-0,-6.329 5.129,-11.458 11.458,-11.458l21.875,-0l-0,-91.667l-21.875,0c-6.329,0 -11.458,-5.129 -11.458,-11.458c-0,-6.329 5.129,-11.459 11.458,-11.459l25,0c10.929,0 19.792,8.863 19.792,19.792l-0,94.792Zm587.5,-0l21.875,-0c6.329,-0 11.458,5.129 11.458,11.458c-0,6.329 -5.129,11.458 -11.458,11.458l-66.667,0c-6.329,0 -11.458,-5.129 -11.458,-11.458c-0,-6.329 5.129,-11.458 11.458,-11.458l21.875,-0l-0,-91.667l-21.875,0c-6.329,0 -11.458,-5.129 -11.458,-11.458c-0,-6.329 5.129,-11.459 11.458,-11.459l25,0c10.929,0 19.792,8.863 19.792,19.792l-0,94.792Zm195.833,-0l21.875,-0c6.329,-0 11.458,5.129 11.458,11.458c0,6.329 -5.129,11.458 -11.458,11.458l-66.667,0c-6.329,0 -11.458,-5.129 -11.458,-11.458c-0,-6.329 5.129,-11.458 11.458,-11.458l21.875,-0l0,-91.667l-21.875,0c-6.329,0 -11.458,-5.129 -11.458,-11.458c-0,-6.329 5.129,-11.459 11.458,-11.459l25,0c10.929,0 19.792,8.863 19.792,19.792l-0,94.792Zm195.833,-0l21.875,-0c6.334,-0 11.459,5.129 11.459,11.458c-0,6.329 -5.125,11.458 -11.459,11.458l-66.666,0c-6.334,0 -11.459,-5.129 -11.459,-11.458c0,-6.329 5.125,-11.458 11.459,-11.458l21.875,-0l-0,-91.667l-21.875,0c-6.334,0 -11.459,-5.129 -11.459,-11.458c0,-6.329 5.125,-11.459 11.459,-11.459l25,0c10.916,0 19.791,8.863 19.791,19.792l0,94.792Zm195.834,-0l21.875,-0c6.333,-0 11.458,5.129 11.458,11.458c-0,6.329 -5.125,11.458 -11.458,11.458l-66.667,0c-6.333,0 -11.458,-5.129 -11.458,-11.458c-0,-6.329 5.125,-11.458 11.458,-11.458l21.875,-0l-0,-91.667l-21.875,0c-6.333,0 -11.458,-5.129 -11.458,-11.458c-0,-6.329 5.125,-11.459 11.458,-11.459l25,0c10.917,0 19.792,8.863 19.792,19.792l-0,94.792Zm-391.667,220.833l21.875,0c6.329,0 11.458,5.125 11.458,11.458c0,6.334 -5.129,11.459 -11.458,11.459l-66.667,-0c-6.329,-0 -11.458,-5.125 -11.458,-11.459c-0,-6.333 5.129,-11.458 11.458,-11.458l21.875,0l0,-91.667l-21.875,0c-6.329,0 -11.458,-5.125 -11.458,-11.458c-0,-6.333 5.129,-11.458 11.458,-11.458l25,-0c10.929,-0 19.792,8.875 19.792,19.791l-0,94.792Zm195.833,0l21.875,0c6.334,0 11.459,5.125 11.459,11.458c-0,6.334 -5.125,11.459 -11.459,11.459l-66.666,-0c-6.334,-0 -11.459,-5.125 -11.459,-11.459c0,-6.333 5.125,-11.458 11.459,-11.458l21.875,0l-0,-91.667l-21.875,0c-6.334,0 -11.459,-5.125 -11.459,-11.458c0,-6.333 5.125,-11.458 11.459,-11.458l25,-0c10.916,-0 19.791,8.875 19.791,19.791l0,94.792Z" style="fill:#fff;"/><path d="M1529.41,3317.05l-1487.74,0c-23.013,0 -41.667,-18.667 -41.667,-41.667l-0,-2754.17c-0,-23.013 18.654,-41.667 41.667,-41.667l3308.09,0l-1820.35,2837.5Z" style="fill:#7bc6ff;fill-opacity:0.1;"/><path d="M3184.03,737.882l-3184.03,0l-0,-216.666c-0,-23.013 18.654,-41.667 41.667,-41.667l3308.09,0l-165.729,258.333Z" style="fill:#7bc6ff;fill-opacity:0.2;"/><path d="M1227.91,3787.01l2423.34,-3777.43c6.208,-9.678 19.106,-12.494 28.784,-6.286c9.678,6.209 12.494,19.107 6.286,28.785l-287.065,447.467l1446.57,0c23,0 41.667,18.654 41.667,41.667l-0,2754.17c-0,23 -18.667,41.667 -41.667,41.667l-3266.92,0l-315.928,492.458c-6.209,9.678 -19.106,12.494 -28.784,6.286c-9.678,-6.209 -12.495,-19.107 -6.286,-28.785Zm863.752,-1269.22l-486.024,757.597l3240.19,0l0,-2537.5l-1612.3,0l-472.7,736.828l0,1244.42c0,21.847 -17.736,39.584 -39.583,39.584c-21.847,-0 -39.583,-17.737 -39.583,-39.584l-0,-1121.02l-117.5,183.155l-0,1158.7c-0,21.846 -17.737,39.583 -39.584,39.583c-21.846,0 -39.583,-17.737 -39.583,-39.583l-0,-1035.3l-117.5,183.155l-0,631.307c-0,21.847 -17.737,39.584 -39.583,39.584c-21.847,-0 -39.584,-17.737 -39.584,-39.584l0,-507.904l-117.5,183.155l0,766.416c0,21.847 -17.736,39.583 -39.583,39.583c-21.847,0 -39.583,-17.736 -39.583,-39.583l-0,-643.014Zm2642.72,-1909.46l-37.016,37.221c-5.459,5.488 -5.459,14.4 -0.001,19.888c5.459,5.488 14.321,5.488 19.779,-0l37.017,-37.221l37.016,37.221c5.458,5.488 14.321,5.488 19.779,0c5.458,-5.488 5.458,-14.4 -0,-19.888l-37.017,-37.221l36.249,-36.448c5.458,-5.489 5.458,-14.4 -0,-19.888c-5.458,-5.489 -14.321,-5.489 -19.779,-0l-36.248,36.448l-36.249,-36.448c-5.458,-5.489 -14.32,-5.489 -19.779,-0c-5.458,5.488 -5.458,14.399 0.001,19.888l36.248,36.448Zm-1186.89,1389.97l-0,58.333c-0,21.847 -17.737,39.584 -39.583,39.584c-21.847,-0 -39.584,-17.737 -39.584,-39.584l0,-58.333c0,-21.847 17.737,-39.583 39.584,-39.583c21.846,-0 39.583,17.736 39.583,39.583Zm-393.333,-662.5l-0,1383.33c-0,21.847 -17.737,39.584 -39.584,39.584c-21.846,-0 -39.583,-17.737 -39.583,-39.584l-0,-1383.33c-0,-21.847 17.737,-39.583 39.583,-39.583c21.847,-0 39.584,17.736 39.584,39.583Zm-196.667,220.833l-0,941.667c-0,21.847 -17.737,39.583 -39.583,39.583c-21.847,0 -39.584,-17.736 -39.584,-39.583l0,-941.667c0,-21.846 17.737,-39.583 39.584,-39.583c21.846,0 39.583,17.737 39.583,39.583Zm393.333,220.834l0,500c0,21.846 -17.736,39.583 -39.583,39.583c-21.847,0 -39.583,-17.737 -39.583,-39.583l-0,-500c-0,-21.847 17.736,-39.584 39.583,-39.584c21.847,0 39.583,17.737 39.583,39.584Zm393.334,-0l-0,500c-0,21.846 -17.737,39.583 -39.584,39.583c-21.846,0 -39.583,-17.737 -39.583,-39.583l-0,-500c-0,-21.847 17.737,-39.584 39.583,-39.584c21.847,0 39.584,17.737 39.584,39.584Zm196.666,-220.834l0,941.667c0,21.847 -17.736,39.583 -39.583,39.583c-21.847,0 -39.583,-17.736 -39.583,-39.583l-0,-941.667c-0,-21.846 17.736,-39.583 39.583,-39.583c21.847,0 39.583,17.737 39.583,39.583Zm196.667,-220.833l-0,1383.33c-0,21.847 -17.737,39.584 -39.583,39.584c-21.847,-0 -39.584,-17.737 -39.584,-39.584l0,-1383.33c0,-21.847 17.737,-39.583 39.584,-39.583c21.846,-0 39.583,17.736 39.583,39.583Zm196.667,-220.833l-0,1825c-0,21.846 -17.737,39.583 -39.584,39.583c-21.846,0 -39.583,-17.737 -39.583,-39.583l-0,-1825c-0,-21.847 17.737,-39.584 39.583,-39.584c21.847,0 39.584,17.737 39.584,39.584Zm196.666,441.666l0,941.667c0,21.847 -17.736,39.583 -39.583,39.583c-21.847,0 -39.583,-17.736 -39.583,-39.583l-0,-941.667c-0,-21.846 17.736,-39.583 39.583,-39.583c21.847,0 39.583,17.737 39.583,39.583Zm196.667,220.834l-0,500c-0,21.846 -17.737,39.583 -39.583,39.583c-21.847,0 -39.584,-17.737 -39.584,-39.583l0,-500c0,-21.847 17.737,-39.584 39.584,-39.584c21.846,0 39.583,17.737 39.583,39.584Z" style="fill:#fff;"/><path d="M1745.93,2979.55l-41.759,0l-1.084,-0.042c-10.625,-0.541 -19.166,-9.083 -19.708,-19.708l-0.042,-1.083l0,-95.834c0,-11.166 8.75,-20.25 19.75,-20.791l1.084,-0.042l70.833,0l1.083,0.042c11,0.541 19.75,9.625 19.75,20.791l0,38.874l-22.916,35.721l-0,-72.511l-66.667,-0l-0,91.666l54.378,0l-14.702,22.917Zm143.523,-223.718c-5.851,-3.451 -9.874,-9.682 -10.241,-16.865l-0.041,-1.084l-0,-95.833c-0,-11.167 8.75,-20.25 19.75,-20.792l1.083,-0.041l70.833,-0l1.084,0.041c1.215,0.06 2.403,0.224 3.555,0.484l-14.365,22.391l-59.024,0l0,91.667l0.217,0l-12.851,20.032Zm773.051,-1205.01l-0,-12.942c-0,-11.145 8.75,-20.245 19.75,-20.804l1.083,-0.029l0.835,0l-21.668,33.775Zm216.801,-337.942l-0.134,0l-1.084,-0.029c-10.625,-0.537 -19.166,-9.079 -19.708,-19.733l-0.042,-1.071l0,-95.833c0,-11.146 8.75,-20.246 19.75,-20.804l1.084,-0.03l70.833,0l1.083,0.03c4.976,0.252 9.492,2.253 12.945,5.4l-16.111,25.114l-0,-7.627l-66.667,0l-0,91.667l12.752,-0l-14.701,22.916Zm-2741.8,-358.333l70.833,0l1.071,0.029c11.008,0.559 19.763,9.659 19.763,20.804l-0,95.834l-0.03,1.071c-0.537,10.654 -9.079,19.195 -19.733,19.733l-1.071,0.029l-70.833,0l-1.071,-0.029c-10.654,-0.538 -19.196,-9.079 -19.733,-19.733l-0.029,-1.071l-0,-95.834c-0,-11.145 8.754,-20.245 19.762,-20.804l1.071,-0.029Zm2.083,114.583l66.667,0l-0,-91.666l-66.667,-0l0,91.666Zm193.75,-114.583l70.834,0l1.07,0.029c11.009,0.559 19.763,9.659 19.763,20.804l-0,95.834l-0.029,1.071c-0.538,10.654 -9.079,19.195 -19.734,19.733l-1.07,0.029l-70.834,0l-1.071,-0.029c-10.654,-0.538 -19.195,-9.079 -19.733,-19.733l-0.029,-1.071l-0,-95.834c-0,-11.145 8.754,-20.245 19.762,-20.804l1.071,-0.029Zm2.084,114.583l66.666,0l0,-91.666l-66.666,-0l-0,91.666Zm193.75,-114.583l70.833,0l1.071,0.029c11.008,0.559 19.762,9.659 19.762,20.804l0,95.834l-0.029,1.071c-0.537,10.654 -9.079,19.195 -19.733,19.733l-1.071,0.029l-70.833,0l-1.071,-0.029c-10.654,-0.538 -19.196,-9.079 -19.734,-19.733l-0.029,-1.071l0,-95.834c0,-11.145 8.754,-20.245 19.763,-20.804l1.071,-0.029Zm2.083,114.583l66.667,0l-0,-91.666l-66.667,-0l-0,91.666Zm193.75,-114.583l70.833,0l1.071,0.029c11.008,0.559 19.763,9.659 19.763,20.804l-0,95.834l-0.03,1.071c-0.537,10.654 -9.079,19.195 -19.733,19.733l-1.071,0.029l-70.833,0l-1.071,-0.029c-10.654,-0.538 -19.196,-9.079 -19.733,-19.733l-0.029,-1.071l-0,-95.834c-0,-11.145 8.754,-20.245 19.762,-20.804l1.071,-0.029Zm2.083,114.583l66.667,0l-0,-91.666l-66.667,-0l0,91.666Zm193.75,-114.583l70.834,0l1.07,0.029c11.009,0.559 19.763,9.659 19.763,20.804l-0,95.834l-0.029,1.071c-0.538,10.654 -9.079,19.195 -19.734,19.733l-1.07,0.029l-70.834,0l-1.071,-0.029c-10.654,-0.538 -19.195,-9.079 -19.733,-19.733l-0.029,-1.071l-0,-95.834c-0,-11.145 8.754,-20.245 19.762,-20.804l1.071,-0.029Zm2.084,114.583l66.666,0l0,-91.666l-66.666,-0l-0,91.666Zm193.75,-114.583l70.833,0l1.071,0.029c11.008,0.559 19.762,9.659 19.762,20.804l0,95.834l-0.029,1.071c-0.537,10.654 -9.079,19.195 -19.733,19.733l-1.071,0.029l-70.833,0l-1.071,-0.029c-10.654,-0.538 -19.196,-9.079 -19.734,-19.733l-0.029,-1.071l0,-95.834c0,-11.145 8.754,-20.245 19.763,-20.804l1.071,-0.029Zm2.083,114.583l66.667,0l-0,-91.666l-66.667,-0l-0,91.666Zm193.75,-114.583l70.833,0l1.071,0.029c11.008,0.559 19.763,9.659 19.763,20.804l-0,95.834l-0.03,1.071c-0.537,10.654 -9.079,19.195 -19.733,19.733l-1.071,0.029l-70.833,0l-1.071,-0.029c-10.654,-0.538 -19.196,-9.079 -19.733,-19.733l-0.029,-1.071l-0,-95.834c-0,-11.145 8.754,-20.245 19.762,-20.804l1.071,-0.029Zm2.083,114.583l66.667,0l-0,-91.666l-66.667,-0l0,91.666Zm193.75,-114.583l70.834,0l1.07,0.029c11.013,0.559 19.763,9.659 19.763,20.804l-0,95.834l-0.042,1.071c-0.541,10.654 -9.083,19.195 -19.721,19.733l-1.07,0.029l-70.834,0l-1.071,-0.029c-10.654,-0.538 -19.195,-9.079 -19.733,-19.733l-0.029,-1.071l-0,-95.834c-0,-11.145 8.754,-20.245 19.762,-20.804l1.071,-0.029Zm2.084,114.583l66.666,0l0,-91.666l-66.666,-0l-0,91.666Zm193.75,-114.583l70.833,0l1.083,0.029c11,0.559 19.75,9.659 19.75,20.804l0,95.834l-0.041,1.071c-0.542,10.654 -9.084,19.195 -19.709,19.733l-1.083,0.029l-70.833,0l-1.084,-0.029c-10.625,-0.538 -19.166,-9.079 -19.708,-19.733l-0.042,-1.071l0,-95.834c0,-11.145 8.75,-20.245 19.75,-20.804l1.084,-0.029Zm2.083,114.583l66.667,0l-0,-91.666l-66.667,-0l-0,91.666Zm193.75,-114.583l70.833,0l1.084,0.029c11,0.559 19.75,9.659 19.75,20.804l-0,95.834l-0.042,1.071c-0.542,10.654 -9.083,19.195 -19.708,19.733l-1.084,0.029l-70.833,0l-1.083,-0.029c-10.625,-0.538 -19.167,-9.079 -19.709,-19.733l-0.041,-1.071l-0,-95.834c-0,-11.145 8.75,-20.245 19.75,-20.804l1.083,-0.029Zm2.083,114.583l66.667,0l-0,-91.666l-66.667,-0l0,91.666Zm389.584,-114.583l70.833,0l1.083,0.029c11,0.559 19.75,9.659 19.75,20.804l0,95.834l-0.041,1.071c-0.542,10.654 -9.084,19.195 -19.709,19.733l-1.083,0.029l-70.833,0l-1.084,-0.029c-10.625,-0.538 -19.166,-9.079 -19.708,-19.733l-0.042,-1.071l0,-95.834c0,-11.145 8.75,-20.245 19.75,-20.804l1.084,-0.029Zm2.083,114.583l66.667,0l-0,-91.666l-66.667,-0l-0,91.666Zm193.75,-114.583l70.833,0l1.084,0.029c11,0.559 19.75,9.659 19.75,20.804l-0,95.834l-0.042,1.071c-0.542,10.654 -9.083,19.195 -19.708,19.733l-1.084,0.029l-70.833,0l-1.083,-0.029c-10.625,-0.538 -19.167,-9.079 -19.709,-19.733l-0.041,-1.071l-0,-95.834c-0,-11.145 8.75,-20.245 19.75,-20.804l1.083,-0.029Zm2.083,114.583l66.667,0l-0,-91.666l-66.667,-0l0,91.666Zm193.75,-114.583l70.834,0l1.083,0.029c11,0.559 19.75,9.659 19.75,20.804l-0,95.834l-0.042,1.071c-0.541,10.654 -9.083,19.195 -19.708,19.733l-1.083,0.029l-70.834,0l-1.083,-0.029c-10.625,-0.538 -19.167,-9.079 -19.708,-19.733l-0.042,-1.071l-0,-95.834c-0,-11.145 8.75,-20.245 19.75,-20.804l1.083,-0.029Zm2.084,114.583l66.666,0l0,-91.666l-66.666,-0l-0,91.666Zm193.75,-114.583l70.833,0l1.083,0.029c11,0.559 19.75,9.659 19.75,20.804l0,95.834l-0.041,1.071c-0.542,10.654 -9.084,19.195 -19.709,19.733l-1.083,0.029l-70.833,0l-1.084,-0.029c-10.625,-0.538 -19.166,-9.079 -19.708,-19.733l-0.042,-1.071l0,-95.834c0,-11.145 8.75,-20.245 19.75,-20.804l1.084,-0.029Zm2.083,114.583l66.667,0l-0,-91.666l-66.667,-0l-0,91.666Zm-2743.75,106.25l70.833,0l1.071,0.03c11.008,0.558 19.763,9.658 19.763,20.804l-0,95.833l-0.03,1.071c-0.537,10.654 -9.079,19.196 -19.733,19.733l-1.071,0.029l-70.833,0l-1.071,-0.029c-10.654,-0.537 -19.196,-9.079 -19.733,-19.733l-0.029,-1.071l-0,-95.833c-0,-11.146 8.754,-20.246 19.762,-20.804l1.071,-0.03Zm2.083,114.584l66.667,-0l-0,-91.667l-66.667,0l0,91.667Zm193.75,-114.584l70.834,0l1.07,0.03c11.009,0.558 19.763,9.658 19.763,20.804l-0,95.833l-0.029,1.071c-0.538,10.654 -9.079,19.196 -19.734,19.733l-1.07,0.029l-70.834,0l-1.071,-0.029c-10.654,-0.537 -19.195,-9.079 -19.733,-19.733l-0.029,-1.071l-0,-95.833c-0,-11.146 8.754,-20.246 19.762,-20.804l1.071,-0.03Zm2.084,114.584l66.666,-0l0,-91.667l-66.666,0l-0,91.667Zm193.75,-114.584l70.833,0l1.071,0.03c11.008,0.558 19.762,9.658 19.762,20.804l0,95.833l-0.029,1.071c-0.537,10.654 -9.079,19.196 -19.733,19.733l-1.071,0.029l-70.833,0l-1.071,-0.029c-10.654,-0.537 -19.196,-9.079 -19.734,-19.733l-0.029,-1.071l0,-95.833c0,-11.146 8.754,-20.246 19.763,-20.804l1.071,-0.03Zm2.083,114.584l66.667,-0l-0,-91.667l-66.667,0l-0,91.667Zm193.75,-114.584l70.833,0l1.071,0.03c11.008,0.558 19.763,9.658 19.763,20.804l-0,95.833l-0.03,1.071c-0.537,10.654 -9.079,19.196 -19.733,19.733l-1.071,0.029l-70.833,0l-1.071,-0.029c-10.654,-0.537 -19.196,-9.079 -19.733,-19.733l-0.029,-1.071l-0,-95.833c-0,-11.146 8.754,-20.246 19.762,-20.804l1.071,-0.03Zm2.083,114.584l66.667,-0l-0,-91.667l-66.667,0l0,91.667Zm193.75,-114.584l70.834,0l1.07,0.03c11.009,0.558 19.763,9.658 19.763,20.804l-0,95.833l-0.029,1.071c-0.538,10.654 -9.079,19.196 -19.734,19.733l-1.07,0.029l-70.834,0l-1.071,-0.029c-10.654,-0.537 -19.195,-9.079 -19.733,-19.733l-0.029,-1.071l-0,-95.833c-0,-11.146 8.754,-20.246 19.762,-20.804l1.071,-0.03Zm2.084,114.584l66.666,-0l0,-91.667l-66.666,0l-0,91.667Zm193.75,-114.584l70.833,0l1.071,0.03c11.008,0.558 19.762,9.658 19.762,20.804l0,95.833l-0.029,1.071c-0.537,10.654 -9.079,19.196 -19.733,19.733l-1.071,0.029l-70.833,0l-1.071,-0.029c-10.654,-0.537 -19.196,-9.079 -19.734,-19.733l-0.029,-1.071l0,-95.833c0,-11.146 8.754,-20.246 19.763,-20.804l1.071,-0.03Zm2.083,114.584l66.667,-0l-0,-91.667l-66.667,0l-0,91.667Zm193.75,-114.584l70.833,0l1.071,0.03c11.008,0.558 19.763,9.658 19.763,20.804l-0,95.833l-0.03,1.071c-0.537,10.654 -9.079,19.196 -19.733,19.733l-1.071,0.029l-70.833,0l-1.071,-0.029c-10.654,-0.537 -19.196,-9.079 -19.733,-19.733l-0.029,-1.071l-0,-95.833c-0,-11.146 8.754,-20.246 19.762,-20.804l1.071,-0.03Zm2.083,114.584l66.667,-0l-0,-91.667l-66.667,0l0,91.667Zm193.75,-114.584l70.834,0l1.07,0.03c11.013,0.558 19.763,9.658 19.763,20.804l-0,95.833l-0.042,1.071c-0.541,10.654 -9.083,19.196 -19.721,19.733l-1.07,0.029l-70.834,0l-1.071,-0.029c-10.654,-0.537 -19.195,-9.079 -19.733,-19.733l-0.029,-1.071l-0,-95.833c-0,-11.146 8.754,-20.246 19.762,-20.804l1.071,-0.03Zm2.084,114.584l66.666,-0l0,-91.667l-66.666,0l-0,91.667Zm193.75,-114.584l70.833,0l1.083,0.03c11,0.558 19.75,9.658 19.75,20.804l0,95.833l-0.041,1.071c-0.542,10.654 -9.084,19.196 -19.709,19.733l-1.083,0.029l-70.833,0l-1.084,-0.029c-10.625,-0.537 -19.166,-9.079 -19.708,-19.733l-0.042,-1.071l0,-95.833c0,-11.146 8.75,-20.246 19.75,-20.804l1.084,-0.03Zm2.083,114.584l66.667,-0l-0,-91.667l-66.667,0l-0,91.667Zm193.75,-114.584l70.833,0l1.084,0.03c11,0.558 19.75,9.658 19.75,20.804l-0,95.833l-0.042,1.071c-0.542,10.654 -9.083,19.196 -19.708,19.733l-1.084,0.029l-70.833,0l-1.083,-0.029c-10.625,-0.537 -19.167,-9.079 -19.709,-19.733l-0.041,-1.071l-0,-95.833c-0,-11.146 8.75,-20.246 19.75,-20.804l1.083,-0.03Zm2.083,114.584l66.667,-0l-0,-91.667l-66.667,0l0,91.667Zm389.584,-114.584l70.833,0l1.083,0.03c11,0.558 19.75,9.658 19.75,20.804l0,95.833l-0.041,1.071c-0.542,10.654 -9.084,19.196 -19.709,19.733l-1.083,0.029l-70.833,0l-1.084,-0.029c-10.625,-0.537 -19.166,-9.079 -19.708,-19.733l-0.042,-1.071l0,-95.833c0,-11.146 8.75,-20.246 19.75,-20.804l1.084,-0.03Zm2.083,114.584l66.667,-0l-0,-91.667l-66.667,0l-0,91.667Zm389.583,-114.584l70.834,0l1.083,0.03c11,0.558 19.75,9.658 19.75,20.804l-0,95.833l-0.042,1.071c-0.541,10.654 -9.083,19.196 -19.708,19.733l-1.083,0.029l-70.834,0l-1.083,-0.029c-10.625,-0.537 -19.167,-9.079 -19.708,-19.733l-0.042,-1.071l-0,-95.833c-0,-11.146 8.75,-20.246 19.75,-20.804l1.083,-0.03Zm2.084,114.584l66.666,-0l0,-91.667l-66.666,0l-0,91.667Zm-2547.92,106.25l70.833,-0l1.071,0.029c11.008,0.558 19.763,9.658 19.763,20.804l-0,95.833l-0.03,1.071c-0.537,10.654 -9.079,19.196 -19.733,19.734l-1.071,0.029l-70.833,-0l-1.071,-0.029c-10.654,-0.538 -19.196,-9.08 -19.733,-19.734l-0.029,-1.071l-0,-95.833c-0,-11.146 8.754,-20.246 19.762,-20.804l1.071,-0.029Zm2.083,114.583l66.667,0l-0,-91.667l-66.667,0l0,91.667Zm193.75,-114.583l70.834,-0l1.07,0.029c11.009,0.558 19.763,9.658 19.763,20.804l-0,95.833l-0.029,1.071c-0.538,10.654 -9.079,19.196 -19.734,19.734l-1.07,0.029l-70.834,-0l-1.071,-0.029c-10.654,-0.538 -19.195,-9.08 -19.733,-19.734l-0.029,-1.071l-0,-95.833c-0,-11.146 8.754,-20.246 19.762,-20.804l1.071,-0.029Zm2.084,114.583l66.666,0l0,-91.667l-66.666,0l-0,91.667Zm193.75,-114.583l70.833,-0l1.071,0.029c11.008,0.558 19.762,9.658 19.762,20.804l0,95.833l-0.029,1.071c-0.537,10.654 -9.079,19.196 -19.733,19.734l-1.071,0.029l-70.833,-0l-1.071,-0.029c-10.654,-0.538 -19.196,-9.08 -19.734,-19.734l-0.029,-1.071l0,-95.833c0,-11.146 8.754,-20.246 19.763,-20.804l1.071,-0.029Zm2.083,114.583l66.667,0l-0,-91.667l-66.667,0l-0,91.667Zm193.75,-114.583l70.833,-0l1.071,0.029c11.008,0.558 19.763,9.658 19.763,20.804l-0,95.833l-0.03,1.071c-0.537,10.654 -9.079,19.196 -19.733,19.734l-1.071,0.029l-70.833,-0l-1.071,-0.029c-10.654,-0.538 -19.196,-9.08 -19.733,-19.734l-0.029,-1.071l-0,-95.833c-0,-11.146 8.754,-20.246 19.762,-20.804l1.071,-0.029Zm2.083,114.583l66.667,0l-0,-91.667l-66.667,0l0,91.667Zm193.75,-114.583l70.834,-0l1.07,0.029c11.009,0.558 19.763,9.658 19.763,20.804l-0,95.833l-0.029,1.071c-0.538,10.654 -9.079,19.196 -19.734,19.734l-1.07,0.029l-70.834,-0l-1.071,-0.029c-10.654,-0.538 -19.195,-9.08 -19.733,-19.734l-0.029,-1.071l-0,-95.833c-0,-11.146 8.754,-20.246 19.762,-20.804l1.071,-0.029Zm2.084,114.583l66.666,0l0,-91.667l-66.666,0l-0,91.667Zm193.75,-114.583l70.833,-0l1.071,0.029c11.008,0.558 19.762,9.658 19.762,20.804l0,95.833l-0.029,1.071c-0.537,10.654 -9.079,19.196 -19.733,19.734l-1.071,0.029l-70.833,-0l-1.071,-0.029c-10.654,-0.538 -19.196,-9.08 -19.734,-19.734l-0.029,-1.071l0,-95.833c0,-11.146 8.754,-20.246 19.763,-20.804l1.071,-0.029Zm2.083,114.583l66.667,0l-0,-91.667l-66.667,0l-0,91.667Zm193.75,-114.583l70.833,-0l1.071,0.029c11.008,0.558 19.763,9.658 19.763,20.804l-0,95.833l-0.03,1.071c-0.537,10.654 -9.079,19.196 -19.733,19.734l-1.071,0.029l-70.833,-0l-1.071,-0.029c-10.654,-0.538 -19.196,-9.08 -19.733,-19.734l-0.029,-1.071l-0,-95.833c-0,-11.146 8.754,-20.246 19.762,-20.804l1.071,-0.029Zm2.083,114.583l66.667,0l-0,-91.667l-66.667,0l0,91.667Zm585.417,-114.583l70.833,-0l1.084,0.029c11,0.558 19.75,9.658 19.75,20.804l-0,95.833l-0.042,1.071c-0.542,10.654 -9.083,19.196 -19.708,19.734l-1.084,0.029l-70.833,-0l-1.083,-0.029c-10.625,-0.538 -19.167,-9.08 -19.709,-19.734l-0.041,-1.071l-0,-95.833c-0,-11.146 8.75,-20.246 19.75,-20.804l1.083,-0.029Zm2.083,114.583l66.667,0l-0,-91.667l-66.667,0l0,91.667Zm-1764.58,106.25l70.833,0l1.071,0.029c11.008,0.559 19.763,9.659 19.763,20.804l-0,95.834l-0.03,1.071c-0.537,10.654 -9.079,19.195 -19.733,19.733l-1.071,0.029l-70.833,0l-1.071,-0.029c-10.654,-0.538 -19.196,-9.079 -19.733,-19.733l-0.029,-1.071l-0,-95.834c-0,-11.145 8.754,-20.245 19.762,-20.804l1.071,-0.029Zm2.083,114.583l66.667,0l-0,-91.666l-66.667,-0l0,91.666Zm193.75,-114.583l70.834,0l1.07,0.029c11.009,0.559 19.763,9.659 19.763,20.804l-0,95.834l-0.029,1.071c-0.538,10.654 -9.079,19.195 -19.734,19.733l-1.07,0.029l-70.834,0l-1.071,-0.029c-10.654,-0.538 -19.195,-9.079 -19.733,-19.733l-0.029,-1.071l-0,-95.834c-0,-11.145 8.754,-20.245 19.762,-20.804l1.071,-0.029Zm2.084,114.583l66.666,0l0,-91.666l-66.666,-0l-0,91.666Zm585.416,-114.583l70.834,0l1.07,0.029c11.009,0.559 19.763,9.659 19.763,20.804l-0,95.834l-0.029,1.071c-0.538,10.654 -9.079,19.195 -19.734,19.733l-1.07,0.029l-70.834,0l-1.071,-0.029c-10.654,-0.538 -19.195,-9.079 -19.733,-19.733l-0.029,-1.071l-0,-95.834c-0,-11.145 8.754,-20.245 19.762,-20.804l1.071,-0.029Zm2.084,114.583l66.666,0l0,-91.666l-66.666,-0l-0,91.666Zm193.75,-114.583l70.833,0l1.071,0.029c11.008,0.559 19.762,9.659 19.762,20.804l0,95.834l-0.029,1.071c-0.537,10.654 -9.079,19.195 -19.733,19.733l-1.071,0.029l-70.833,0l-1.071,-0.029c-10.654,-0.538 -19.196,-9.079 -19.734,-19.733l-0.029,-1.071l0,-95.834c0,-11.145 8.754,-20.245 19.763,-20.804l1.071,-0.029Zm2.083,114.583l66.667,0l-0,-91.666l-66.667,-0l-0,91.666Zm-981.25,106.25l70.833,0l1.071,0.03c11.008,0.558 19.763,9.658 19.763,20.804l-0,95.833l-0.03,1.071c-0.537,10.654 -9.079,19.196 -19.733,19.733l-1.071,0.029l-70.833,0l-1.071,-0.029c-10.654,-0.537 -19.196,-9.079 -19.733,-19.733l-0.029,-1.071l-0,-95.833c-0,-11.146 8.754,-20.246 19.762,-20.804l1.071,-0.03Zm2.083,114.584l66.667,-0l-0,-91.667l-66.667,0l0,91.667Zm781.25,-114.584l70.834,0l1.07,0.03c11.009,0.558 19.763,9.658 19.763,20.804l-0,95.833l-0.029,1.071c-0.538,10.654 -9.079,19.196 -19.734,19.733l-1.07,0.029l-70.834,0l-1.071,-0.029c-10.654,-0.537 -19.195,-9.079 -19.733,-19.733l-0.029,-1.071l-0,-95.833c-0,-11.146 8.754,-20.246 19.762,-20.804l1.071,-0.03Zm2.084,114.584l66.666,-0l0,-91.667l-66.666,0l-0,91.667Zm-785.417,327.083l70.833,0l1.071,0.029c11.008,0.559 19.763,9.659 19.763,20.804l-0,95.834l-0.03,1.071c-0.537,10.654 -9.079,19.195 -19.733,19.733l-1.071,0.029l-70.833,0l-1.071,-0.029c-10.654,-0.538 -19.196,-9.079 -19.733,-19.733l-0.029,-1.071l-0,-95.834c-0,-11.145 8.754,-20.245 19.762,-20.804l1.071,-0.029Zm2.083,114.583l66.667,0l-0,-91.666l-66.667,-0l0,91.666Zm781.25,-114.583l70.834,0l1.07,0.029c11.009,0.559 19.763,9.659 19.763,20.804l-0,95.834l-0.029,1.071c-0.538,10.654 -9.079,19.195 -19.734,19.733l-1.07,0.029l-70.834,0l-1.071,-0.029c-10.654,-0.538 -19.195,-9.079 -19.733,-19.733l-0.029,-1.071l-0,-95.834c-0,-11.145 8.754,-20.245 19.762,-20.804l1.071,-0.029Zm2.084,114.583l66.666,0l0,-91.666l-66.666,-0l-0,91.666Zm-785.417,106.25l70.833,0l1.071,0.03c11.008,0.558 19.763,9.658 19.763,20.804l-0,95.833l-0.03,1.071c-0.537,10.654 -9.079,19.196 -19.733,19.733l-1.071,0.029l-70.833,0l-1.071,-0.029c-10.654,-0.537 -19.196,-9.079 -19.733,-19.733l-0.029,-1.071l-0,-95.833c-0,-11.146 8.754,-20.246 19.762,-20.804l1.071,-0.03Zm2.083,114.584l66.667,-0l-0,-91.667l-66.667,0l0,91.667Zm193.75,-114.584l70.834,0l1.07,0.03c11.009,0.558 19.763,9.658 19.763,20.804l-0,95.833l-0.029,1.071c-0.538,10.654 -9.079,19.196 -19.734,19.733l-1.07,0.029l-70.834,0l-1.071,-0.029c-10.654,-0.537 -19.195,-9.079 -19.733,-19.733l-0.029,-1.071l-0,-95.833c-0,-11.146 8.754,-20.246 19.762,-20.804l1.071,-0.03Zm2.084,114.584l66.666,-0l0,-91.667l-66.666,0l-0,91.667Zm585.416,-114.584l70.834,0l1.07,0.03c11.009,0.558 19.763,9.658 19.763,20.804l-0,95.833l-0.029,1.071c-0.538,10.654 -9.079,19.196 -19.734,19.733l-1.07,0.029l-70.834,0l-1.071,-0.029c-10.654,-0.537 -19.195,-9.079 -19.733,-19.733l-0.029,-1.071l-0,-95.833c-0,-11.146 8.754,-20.246 19.762,-20.804l1.071,-0.03Zm2.084,114.584l66.666,-0l0,-91.667l-66.666,0l-0,91.667Zm193.75,-114.584l70.833,0l1.071,0.03c11.008,0.558 19.762,9.658 19.762,20.804l0,95.833l-0.029,1.071c-0.537,10.654 -9.079,19.196 -19.733,19.733l-1.071,0.029l-70.833,0l-1.071,-0.029c-10.654,-0.537 -19.196,-9.079 -19.734,-19.733l-0.029,-1.071l0,-95.833c0,-11.146 8.754,-20.246 19.763,-20.804l1.071,-0.03Zm2.083,114.584l66.667,-0l-0,-91.667l-66.667,0l-0,91.667Zm-981.25,106.25l70.833,-0l1.071,0.041c11.008,0.542 19.763,9.625 19.763,20.792l-0,95.833l-0.03,1.084c-0.537,10.625 -9.079,19.166 -19.733,19.708l-1.071,0.042l-70.833,-0l-1.071,-0.042c-10.654,-0.542 -19.196,-9.083 -19.733,-19.708l-0.029,-1.084l-0,-95.833c-0,-11.167 8.754,-20.25 19.762,-20.792l1.071,-0.041Zm2.083,114.583l66.667,0l-0,-91.667l-66.667,0l0,91.667Zm193.75,-114.583l70.834,-0l1.07,0.041c11.009,0.542 19.763,9.625 19.763,20.792l-0,95.833l-0.029,1.084c-0.538,10.625 -9.079,19.166 -19.734,19.708l-1.07,0.042l-70.834,-0l-1.071,-0.042c-10.654,-0.542 -19.195,-9.083 -19.733,-19.708l-0.029,-1.084l-0,-95.833c-0,-11.167 8.754,-20.25 19.762,-20.792l1.071,-0.041Zm2.084,114.583l66.666,0l0,-91.667l-66.666,0l-0,91.667Zm193.75,-114.583l70.833,-0l1.071,0.041c11.008,0.542 19.762,9.625 19.762,20.792l0,95.833l-0.029,1.084c-0.537,10.625 -9.079,19.166 -19.733,19.708l-1.071,0.042l-70.833,-0l-1.071,-0.042c-10.654,-0.542 -19.196,-9.083 -19.734,-19.708l-0.029,-1.084l0,-95.833c0,-11.167 8.754,-20.25 19.763,-20.792l1.071,-0.041Zm2.083,114.583l66.667,0l-0,-91.667l-66.667,0l-0,91.667Zm193.75,-114.583l70.833,-0l1.071,0.041c11.008,0.542 19.763,9.625 19.763,20.792l-0,95.833l-0.03,1.084c-0.537,10.625 -9.079,19.166 -19.733,19.708l-1.071,0.042l-70.833,-0l-1.071,-0.042c-10.654,-0.542 -19.196,-9.083 -19.733,-19.708l-0.029,-1.084l-0,-95.833c-0,-11.167 8.754,-20.25 19.762,-20.792l1.071,-0.041Zm2.083,114.583l66.667,0l-0,-91.667l-66.667,0l0,91.667Zm193.75,-114.583l70.834,-0l1.07,0.041c11.009,0.542 19.763,9.625 19.763,20.792l-0,95.833l-0.029,1.084c-0.538,10.625 -9.079,19.166 -19.734,19.708l-1.07,0.042l-70.834,-0l-1.071,-0.042c-10.654,-0.542 -19.195,-9.083 -19.733,-19.708l-0.029,-1.084l-0,-95.833c-0,-11.167 8.754,-20.25 19.762,-20.792l1.071,-0.041Zm2.084,114.583l66.666,0l0,-91.667l-66.666,0l-0,91.667Zm193.75,-114.583l70.833,-0l1.071,0.041c11.008,0.542 19.762,9.625 19.762,20.792l0,95.833l-0.029,1.084c-0.537,10.625 -9.079,19.166 -19.733,19.708l-1.071,0.042l-70.833,-0l-1.071,-0.042c-10.654,-0.542 -19.196,-9.083 -19.734,-19.708l-0.029,-1.084l0,-95.833c0,-11.167 8.754,-20.25 19.763,-20.792l1.071,-0.041Zm2.083,114.583l66.667,0l-0,-91.667l-66.667,0l-0,91.667Zm193.75,-114.583l70.833,-0l1.071,0.041c11.008,0.542 19.763,9.625 19.763,20.792l-0,95.833l-0.03,1.084c-0.537,10.625 -9.079,19.166 -19.733,19.708l-1.071,0.042l-70.833,-0l-1.071,-0.042c-10.654,-0.542 -19.196,-9.083 -19.733,-19.708l-0.029,-1.084l-0,-95.833c-0,-11.167 8.754,-20.25 19.762,-20.792l1.071,-0.041Zm2.083,114.583l66.667,0l-0,-91.667l-66.667,0l0,91.667Zm-1177.08,106.25l70.833,0l1.071,0.042c11.008,0.541 19.763,9.625 19.763,20.791l-0,95.834l-0.03,1.083c-0.537,10.625 -9.079,19.167 -19.733,19.708l-1.071,0.042l-70.833,0l-1.071,-0.042c-10.654,-0.541 -19.196,-9.083 -19.733,-19.708l-0.029,-1.083l-0,-95.834c-0,-11.166 8.754,-20.25 19.762,-20.791l1.071,-0.042Zm2.083,114.583l66.667,0l-0,-91.666l-66.667,-0l0,91.666Zm193.75,-114.583l70.834,0l1.07,0.042c11.009,0.541 19.763,9.625 19.763,20.791l-0,95.834l-0.029,1.083c-0.538,10.625 -9.079,19.167 -19.734,19.708l-1.07,0.042l-70.834,0l-1.071,-0.042c-10.654,-0.541 -19.195,-9.083 -19.733,-19.708l-0.029,-1.083l-0,-95.834c-0,-11.166 8.754,-20.25 19.762,-20.791l1.071,-0.042Zm2.084,114.583l66.666,0l0,-91.666l-66.666,-0l-0,91.666Zm193.75,-114.583l70.833,0l1.071,0.042c11.008,0.541 19.762,9.625 19.762,20.791l0,95.834l-0.029,1.083c-0.537,10.625 -9.079,19.167 -19.733,19.708l-1.071,0.042l-70.833,0l-1.071,-0.042c-10.654,-0.541 -19.196,-9.083 -19.734,-19.708l-0.029,-1.083l0,-95.834c0,-11.166 8.754,-20.25 19.763,-20.791l1.071,-0.042Zm2.083,114.583l66.667,0l-0,-91.666l-66.667,-0l-0,91.666Zm193.75,-114.583l70.833,0l1.071,0.042c11.008,0.541 19.763,9.625 19.763,20.791l-0,95.834l-0.03,1.083c-0.537,10.625 -9.079,19.167 -19.733,19.708l-1.071,0.042l-70.833,0l-1.071,-0.042c-10.654,-0.541 -19.196,-9.083 -19.733,-19.708l-0.029,-1.083l-0,-95.834c-0,-11.166 8.754,-20.25 19.762,-20.791l1.071,-0.042Zm2.083,114.583l66.667,0l-0,-91.666l-66.667,-0l0,91.666Zm193.75,-114.583l70.834,0l1.07,0.042c11.009,0.541 19.763,9.625 19.763,20.791l-0,95.834l-0.029,1.083c-0.538,10.625 -9.079,19.167 -19.734,19.708l-1.07,0.042l-70.834,0l-1.071,-0.042c-10.654,-0.541 -19.195,-9.083 -19.733,-19.708l-0.029,-1.083l-0,-95.834c-0,-11.166 8.754,-20.25 19.762,-20.791l1.071,-0.042Zm2.084,114.583l66.666,0l0,-91.666l-66.666,-0l-0,91.666Zm193.75,-114.583l70.833,0l1.071,0.042c11.008,0.541 19.762,9.625 19.762,20.791l0,95.834l-0.029,1.083c-0.537,10.625 -9.079,19.167 -19.733,19.708l-1.071,0.042l-70.833,0l-1.071,-0.042c-10.654,-0.541 -19.196,-9.083 -19.734,-19.708l-0.029,-1.083l0,-95.834c0,-11.166 8.754,-20.25 19.763,-20.791l1.071,-0.042Zm2.083,114.583l66.667,0l-0,-91.666l-66.667,-0l-0,91.666Zm193.75,-114.583l70.833,0l1.071,0.042c11.008,0.541 19.763,9.625 19.763,20.791l-0,95.834l-0.03,1.083c-0.537,10.625 -9.079,19.167 -19.733,19.708l-1.071,0.042l-70.833,0l-1.071,-0.042c-10.654,-0.541 -19.196,-9.083 -19.733,-19.708l-0.029,-1.083l-0,-95.834c-0,-11.166 8.754,-20.25 19.762,-20.791l1.071,-0.042Zm2.083,114.583l66.667,0l-0,-91.666l-66.667,-0l0,91.666Zm193.75,-114.583l70.834,0l1.07,0.042c11.013,0.541 19.763,9.625 19.763,20.791l-0,95.834l-0.042,1.083c-0.541,10.625 -9.083,19.167 -19.721,19.708l-1.07,0.042l-70.834,0l-1.071,-0.042c-10.654,-0.541 -19.195,-9.083 -19.733,-19.708l-0.029,-1.083l-0,-95.834c-0,-11.166 8.754,-20.25 19.762,-20.791l1.071,-0.042Zm2.084,114.583l66.666,0l0,-91.666l-66.666,-0l-0,91.666Zm-1372.92,106.25l70.833,0l1.071,0.042c11.008,0.542 19.763,9.625 19.763,20.792l-0,95.833l-0.03,1.083c-0.537,10.625 -9.079,19.167 -19.733,19.709l-1.071,0.041l-70.833,0l-1.071,-0.041c-10.654,-0.542 -19.196,-9.084 -19.733,-19.709l-0.029,-1.083l-0,-95.833c-0,-11.167 8.754,-20.25 19.762,-20.792l1.071,-0.042Zm2.083,114.584l66.667,-0l-0,-91.667l-66.667,0l0,91.667Zm193.75,-114.584l70.834,0l1.07,0.042c11.009,0.542 19.763,9.625 19.763,20.792l-0,95.833l-0.029,1.083c-0.538,10.625 -9.079,19.167 -19.734,19.709l-1.07,0.041l-70.834,0l-1.071,-0.041c-10.654,-0.542 -19.195,-9.084 -19.733,-19.709l-0.029,-1.083l-0,-95.833c-0,-11.167 8.754,-20.25 19.762,-20.792l1.071,-0.042Zm2.084,114.584l66.666,-0l0,-91.667l-66.666,0l-0,91.667Zm193.75,-114.584l70.833,0l1.071,0.042c11.008,0.542 19.762,9.625 19.762,20.792l0,95.833l-0.029,1.083c-0.537,10.625 -9.079,19.167 -19.733,19.709l-1.071,0.041l-70.833,0l-1.071,-0.041c-10.654,-0.542 -19.196,-9.084 -19.734,-19.709l-0.029,-1.083l0,-95.833c0,-11.167 8.754,-20.25 19.763,-20.792l1.071,-0.042Zm2.083,114.584l66.667,-0l-0,-91.667l-66.667,0l-0,91.667Zm193.75,-114.584l70.833,0l1.071,0.042c11.008,0.542 19.763,9.625 19.763,20.792l-0,95.833l-0.03,1.083c-0.537,10.625 -9.079,19.167 -19.733,19.709l-1.071,0.041l-70.833,0l-1.071,-0.041c-10.654,-0.542 -19.196,-9.084 -19.733,-19.709l-0.029,-1.083l-0,-95.833c-0,-11.167 8.754,-20.25 19.762,-20.792l1.071,-0.042Zm2.083,114.584l66.667,-0l-0,-91.667l-66.667,0l0,91.667Zm193.75,-114.584l70.834,0l1.07,0.042c11.009,0.542 19.763,9.625 19.763,20.792l-0,95.833l-0.029,1.083c-0.538,10.625 -9.079,19.167 -19.734,19.709l-1.07,0.041l-70.834,0l-1.071,-0.041c-10.654,-0.542 -19.195,-9.084 -19.733,-19.709l-0.029,-1.083l-0,-95.833c-0,-11.167 8.754,-20.25 19.762,-20.792l1.071,-0.042Zm2.084,114.584l66.666,-0l0,-91.667l-66.666,0l-0,91.667Zm193.75,-114.584l70.833,0l1.071,0.042c11.008,0.542 19.762,9.625 19.762,20.792l0,95.833l-0.029,1.083c-0.537,10.625 -9.079,19.167 -19.733,19.709l-1.071,0.041l-70.833,0l-1.071,-0.041c-10.654,-0.542 -19.196,-9.084 -19.734,-19.709l-0.029,-1.083l0,-95.833c0,-11.167 8.754,-20.25 19.763,-20.792l1.071,-0.042Zm2.083,114.584l66.667,-0l-0,-91.667l-66.667,0l-0,91.667Zm193.75,-114.584l70.833,0l1.071,0.042c11.008,0.542 19.763,9.625 19.763,20.792l-0,95.833l-0.03,1.083c-0.537,10.625 -9.079,19.167 -19.733,19.709l-1.071,0.041l-70.833,0l-1.071,-0.041c-10.654,-0.542 -19.196,-9.084 -19.733,-19.709l-0.029,-1.083l-0,-95.833c-0,-11.167 8.754,-20.25 19.762,-20.792l1.071,-0.042Zm2.083,114.584l66.667,-0l-0,-91.667l-66.667,0l0,91.667Zm193.75,-114.584l70.834,0l1.07,0.042c11.013,0.542 19.763,9.625 19.763,20.792l-0,95.833l-0.042,1.083c-0.541,10.625 -9.083,19.167 -19.721,19.709l-1.07,0.041l-70.834,0l-1.071,-0.041c-10.654,-0.542 -19.195,-9.084 -19.733,-19.709l-0.029,-1.083l-0,-95.833c-0,-11.167 8.754,-20.25 19.762,-20.792l1.071,-0.042Zm2.084,114.584l66.666,-0l0,-91.667l-66.666,0l-0,91.667Z" style="fill:#ddf0ff;fill-opacity:0.3;"/></g></g></svg>