<?xml version="1.0" encoding="UTF-8" standalone="no"?>
<!DOCTYPE svg PUBLIC "-//W3C//DTD SVG 1.1//EN" "http://www.w3.org/Graphics/SVG/1.1/DTD/svg11.dtd">
<svg width="100%" height="100%" viewBox="0 0 494 386" version="1.1" xmlns="http://www.w3.org/2000/svg" xmlns:xlink="http://www.w3.org/1999/xlink" xml:space="preserve" xmlns:serif="http://www.serif.com/" style="fill-rule:evenodd;clip-rule:evenodd;stroke-linejoin:round;stroke-miterlimit:2;">
    <g id="XRayJamLogo.svg" transform="matrix(0.100894,0,0,0.100894,246.586,192.708)">
        <g transform="matrix(1,0,0,1,-2444,-1910)">
            <clipPath id="_clip1">
                <rect x="0" y="0" width="4888" height="3820"/>
            </clipPath>
            <g clip-path="url(#_clip1)">
                <rect id="Artboard1" x="0" y="-0" width="4887.53" height="3819.66" style="fill:none;"/>
                <g>
                    <g>
                        <path d="M2102.78,2423.3L2098.96,2423.3C2092.63,2423.3 2087.5,2418.17 2087.5,2411.84C2087.5,2405.51 2092.63,2400.38 2098.96,2400.38L2117.48,2400.38L2102.78,2423.3ZM2172.33,2314.89C2170.45,2316.25 2168.13,2317.05 2165.63,2317.05L2098.96,2317.05C2092.63,2317.05 2087.5,2311.92 2087.5,2305.59C2087.5,2299.26 2092.63,2294.13 2098.96,2294.13L2120.83,2294.13L2120.83,2202.47L2098.96,2202.47C2092.63,2202.47 2087.5,2197.34 2087.5,2191.01C2087.5,2184.68 2092.63,2179.55 2098.96,2179.55L2123.96,2179.55C2134.88,2179.55 2143.75,2188.41 2143.75,2199.34L2143.75,2294.13L2165.63,2294.13C2171.96,2294.13 2177.08,2299.26 2177.08,2305.59C2177.08,2306.35 2177.01,2307.09 2176.87,2307.81L2172.33,2314.89ZM2312.61,2096.22L2294.79,2096.22C2288.46,2096.22 2283.33,2091.09 2283.33,2084.76C2283.33,2078.43 2288.46,2073.3 2294.79,2073.3L2316.67,2073.3L2316.67,1981.63L2294.79,1981.63C2288.46,1981.63 2283.33,1976.5 2283.33,1970.17C2283.33,1963.85 2288.46,1958.72 2294.79,1958.72L2319.79,1958.72C2330.71,1958.72 2339.58,1967.58 2339.58,1978.51L2339.58,2054.18L2312.61,2096.22ZM2512.5,1784.64L2512.5,1760.8L2490.63,1760.8C2484.29,1760.8 2479.17,1755.67 2479.17,1749.34C2479.17,1743.01 2484.29,1737.88 2490.63,1737.88L2515.63,1737.88C2524.14,1737.88 2531.41,1743.27 2534.2,1750.82L2512.5,1784.64ZM2737.63,1433.72L2686.46,1433.72C2680.13,1433.72 2675,1428.59 2675,1422.26C2675,1415.93 2680.13,1410.8 2686.46,1410.8L2708.33,1410.8L2708.33,1319.13L2686.46,1319.13C2680.13,1319.13 2675,1314 2675,1307.67C2675,1301.35 2680.13,1296.22 2686.46,1296.22L2711.46,1296.22C2722.38,1296.22 2731.25,1305.08 2731.25,1316.01L2731.25,1410.8L2752.33,1410.8L2737.63,1433.72ZM2143.75,969.133L2165.63,969.133C2171.96,969.133 2177.08,974.263 2177.08,980.592C2177.08,986.921 2171.96,992.05 2165.63,992.05L2098.96,992.05C2092.63,992.05 2087.5,986.921 2087.5,980.592C2087.5,974.263 2092.63,969.133 2098.96,969.133L2120.83,969.133L2120.83,877.467L2098.96,877.467C2092.63,877.467 2087.5,872.338 2087.5,866.008C2087.5,859.679 2092.63,854.55 2098.96,854.55L2123.96,854.55C2134.88,854.55 2143.75,863.413 2143.75,874.342L2143.75,969.133ZM2143.75,1189.97L2165.63,1189.97C2171.96,1189.97 2177.08,1195.1 2177.08,1201.42C2177.08,1207.75 2171.96,1212.88 2165.63,1212.88L2098.96,1212.88C2092.63,1212.88 2087.5,1207.75 2087.5,1201.42C2087.5,1195.1 2092.63,1189.97 2098.96,1189.97L2120.83,1189.97L2120.83,1098.3L2098.96,1098.3C2092.63,1098.3 2087.5,1093.17 2087.5,1086.84C2087.5,1080.51 2092.63,1075.38 2098.96,1075.38L2123.96,1075.38C2134.88,1075.38 2143.75,1084.25 2143.75,1095.17L2143.75,1189.97ZM2535.42,1189.97L2557.29,1189.97C2563.63,1189.97 2568.75,1195.1 2568.75,1201.42C2568.75,1207.75 2563.63,1212.88 2557.29,1212.88L2490.63,1212.88C2484.29,1212.88 2479.17,1207.75 2479.17,1201.42C2479.17,1195.1 2484.29,1189.97 2490.63,1189.97L2512.5,1189.97L2512.5,1098.3L2490.63,1098.3C2484.29,1098.3 2479.17,1093.17 2479.17,1086.84C2479.17,1080.51 2484.29,1075.38 2490.63,1075.38L2515.63,1075.38C2526.54,1075.38 2535.42,1084.25 2535.42,1095.17L2535.42,1189.97ZM1556.25,1410.8L1578.13,1410.8C1584.45,1410.8 1589.58,1415.93 1589.58,1422.26C1589.58,1428.59 1584.45,1433.72 1578.13,1433.72L1511.46,1433.72C1505.13,1433.72 1500,1428.59 1500,1422.26C1500,1415.93 1505.13,1410.8 1511.46,1410.8L1533.33,1410.8L1533.33,1319.13L1511.46,1319.13C1505.13,1319.13 1500,1314 1500,1307.67C1500,1301.35 1505.13,1296.22 1511.46,1296.22L1536.46,1296.22C1547.39,1296.22 1556.25,1305.08 1556.25,1316.01L1556.25,1410.8ZM1752.08,1410.8L1773.96,1410.8C1780.29,1410.8 1785.42,1415.93 1785.42,1422.26C1785.42,1428.59 1780.29,1433.72 1773.96,1433.72L1707.29,1433.72C1700.96,1433.72 1695.83,1428.59 1695.83,1422.26C1695.83,1415.93 1700.96,1410.8 1707.29,1410.8L1729.17,1410.8L1729.17,1319.13L1707.29,1319.13C1700.96,1319.13 1695.83,1314 1695.83,1307.67C1695.83,1301.35 1700.96,1296.22 1707.29,1296.22L1732.29,1296.22C1743.21,1296.22 1752.08,1305.08 1752.08,1316.01L1752.08,1410.8ZM2143.75,1410.8L2165.63,1410.8C2171.96,1410.8 2177.08,1415.93 2177.08,1422.26C2177.08,1428.59 2171.96,1433.72 2165.63,1433.72L2098.96,1433.72C2092.63,1433.72 2087.5,1428.59 2087.5,1422.26C2087.5,1415.93 2092.63,1410.8 2098.96,1410.8L2120.83,1410.8L2120.83,1319.13L2098.96,1319.13C2092.63,1319.13 2087.5,1314 2087.5,1307.67C2087.5,1301.35 2092.63,1296.22 2098.96,1296.22L2123.96,1296.22C2134.88,1296.22 2143.75,1305.08 2143.75,1316.01L2143.75,1410.8ZM2339.58,1410.8L2361.46,1410.8C2367.79,1410.8 2372.92,1415.93 2372.92,1422.26C2372.92,1428.59 2367.79,1433.72 2361.46,1433.72L2294.79,1433.72C2288.46,1433.72 2283.33,1428.59 2283.33,1422.26C2283.33,1415.93 2288.46,1410.8 2294.79,1410.8L2316.67,1410.8L2316.67,1319.13L2294.79,1319.13C2288.46,1319.13 2283.33,1314 2283.33,1307.67C2283.33,1301.35 2288.46,1296.22 2294.79,1296.22L2319.79,1296.22C2330.71,1296.22 2339.58,1305.08 2339.58,1316.01L2339.58,1410.8ZM2535.42,1410.8L2557.29,1410.8C2563.63,1410.8 2568.75,1415.93 2568.75,1422.26C2568.75,1428.59 2563.63,1433.72 2557.29,1433.72L2490.63,1433.72C2484.29,1433.72 2479.17,1428.59 2479.17,1422.26C2479.17,1415.93 2484.29,1410.8 2490.63,1410.8L2512.5,1410.8L2512.5,1319.13L2490.63,1319.13C2484.29,1319.13 2479.17,1314 2479.17,1307.67C2479.17,1301.35 2484.29,1296.22 2490.63,1296.22L2515.63,1296.22C2526.54,1296.22 2535.42,1305.08 2535.42,1316.01L2535.42,1410.8ZM577.088,1631.63L598.963,1631.63C605.292,1631.63 610.422,1636.76 610.422,1643.09C610.422,1649.42 605.292,1654.55 598.963,1654.55L532.297,1654.55C525.967,1654.55 520.838,1649.42 520.838,1643.09C520.838,1636.76 525.967,1631.63 532.297,1631.63L554.172,1631.63L554.172,1539.97L532.297,1539.97C525.967,1539.97 520.838,1534.84 520.838,1528.51C520.838,1522.18 525.967,1517.05 532.297,1517.05L557.297,1517.05C568.226,1517.05 577.088,1525.91 577.088,1536.84L577.088,1631.63ZM772.922,1631.63L794.797,1631.63C801.126,1631.63 806.255,1636.76 806.255,1643.09C806.255,1649.42 801.126,1654.55 794.797,1654.55L728.13,1654.55C721.801,1654.55 716.672,1649.42 716.672,1643.09C716.672,1636.76 721.801,1631.63 728.13,1631.63L750.005,1631.63L750.005,1539.97L728.13,1539.97C721.801,1539.97 716.672,1534.84 716.672,1528.51C716.672,1522.18 721.801,1517.05 728.13,1517.05L753.13,1517.05C764.059,1517.05 772.922,1525.91 772.922,1536.84L772.922,1631.63ZM1360.42,1631.63L1382.3,1631.63C1388.63,1631.63 1393.76,1636.76 1393.76,1643.09C1393.76,1649.42 1388.63,1654.55 1382.3,1654.55L1315.63,1654.55C1309.3,1654.55 1304.17,1649.42 1304.17,1643.09C1304.17,1636.76 1309.3,1631.63 1315.63,1631.63L1337.51,1631.63L1337.51,1539.97L1315.63,1539.97C1309.3,1539.97 1304.17,1534.84 1304.17,1528.51C1304.17,1522.18 1309.3,1517.05 1315.63,1517.05L1340.63,1517.05C1351.56,1517.05 1360.42,1525.91 1360.42,1536.84L1360.42,1631.63ZM1556.26,1631.63L1578.13,1631.63C1584.46,1631.63 1589.59,1636.76 1589.59,1643.09C1589.59,1649.42 1584.46,1654.55 1578.13,1654.55L1511.46,1654.55C1505.13,1654.55 1500.01,1649.42 1500.01,1643.09C1500.01,1636.76 1505.13,1631.63 1511.46,1631.63L1533.34,1631.63L1533.34,1539.97L1511.46,1539.97C1505.13,1539.97 1500.01,1534.84 1500.01,1528.51C1500.01,1522.18 1505.13,1517.05 1511.46,1517.05L1536.46,1517.05C1547.39,1517.05 1556.26,1525.91 1556.26,1536.84L1556.26,1631.63ZM1752.09,1631.63L1773.96,1631.63C1780.3,1631.63 1785.42,1636.76 1785.42,1643.09C1785.42,1649.42 1780.3,1654.55 1773.96,1654.55L1707.3,1654.55C1700.96,1654.55 1695.84,1649.42 1695.84,1643.09C1695.84,1636.76 1700.96,1631.63 1707.3,1631.63L1729.17,1631.63L1729.17,1539.97L1707.3,1539.97C1700.96,1539.97 1695.84,1534.84 1695.84,1528.51C1695.84,1522.18 1700.96,1517.05 1707.3,1517.05L1732.3,1517.05C1743.21,1517.05 1752.09,1525.91 1752.09,1536.84L1752.09,1631.63ZM1947.92,1631.63L1969.8,1631.63C1976.13,1631.63 1981.26,1636.76 1981.26,1643.09C1981.26,1649.42 1976.13,1654.55 1969.8,1654.55L1903.13,1654.55C1896.8,1654.55 1891.67,1649.42 1891.67,1643.09C1891.67,1636.76 1896.8,1631.63 1903.13,1631.63L1925.01,1631.63L1925.01,1539.97L1903.13,1539.97C1896.8,1539.97 1891.67,1534.84 1891.67,1528.51C1891.67,1522.18 1896.8,1517.05 1903.13,1517.05L1928.13,1517.05C1939.05,1517.05 1947.92,1525.91 1947.92,1536.84L1947.92,1631.63ZM2143.76,1631.63L2165.63,1631.63C2171.96,1631.63 2177.09,1636.76 2177.09,1643.09C2177.09,1649.42 2171.96,1654.55 2165.63,1654.55L2098.96,1654.55C2092.63,1654.55 2087.51,1649.42 2087.51,1643.09C2087.51,1636.76 2092.63,1631.63 2098.96,1631.63L2120.84,1631.63L2120.84,1539.97L2098.96,1539.97C2092.63,1539.97 2087.51,1534.84 2087.51,1528.51C2087.51,1522.18 2092.63,1517.05 2098.96,1517.05L2123.96,1517.05C2134.88,1517.05 2143.76,1525.91 2143.76,1536.84L2143.76,1631.63ZM2339.59,1631.63L2361.46,1631.63C2367.8,1631.63 2372.92,1636.76 2372.92,1643.09C2372.92,1649.42 2367.8,1654.55 2361.46,1654.55L2294.8,1654.55C2288.46,1654.55 2283.34,1649.42 2283.34,1643.09C2283.34,1636.76 2288.46,1631.63 2294.8,1631.63L2316.67,1631.63L2316.67,1539.97L2294.8,1539.97C2288.46,1539.97 2283.34,1534.84 2283.34,1528.51C2283.34,1522.18 2288.46,1517.05 2294.8,1517.05L2319.8,1517.05C2330.71,1517.05 2339.59,1525.91 2339.59,1536.84L2339.59,1631.63ZM2535.42,1631.63L2557.3,1631.63C2563.63,1631.63 2568.76,1636.76 2568.76,1643.09C2568.76,1649.42 2563.63,1654.55 2557.3,1654.55L2490.63,1654.55C2484.3,1654.55 2479.17,1649.42 2479.17,1643.09C2479.17,1636.76 2484.3,1631.63 2490.63,1631.63L2512.51,1631.63L2512.51,1539.97L2490.63,1539.97C2484.3,1539.97 2479.17,1534.84 2479.17,1528.51C2479.17,1522.18 2484.3,1517.05 2490.63,1517.05L2515.63,1517.05C2526.55,1517.05 2535.42,1525.91 2535.42,1536.84L2535.42,1631.63ZM381.252,1852.47L403.127,1852.47C409.456,1852.47 414.585,1857.6 414.585,1863.92C414.585,1870.25 409.456,1875.38 403.127,1875.38L336.46,1875.38C330.131,1875.38 325.002,1870.25 325.002,1863.92C325.002,1857.6 330.131,1852.47 336.46,1852.47L358.335,1852.47L358.335,1760.8L336.46,1760.8C330.131,1760.8 325.002,1755.67 325.002,1749.34C325.002,1743.01 330.131,1737.88 336.46,1737.88L361.46,1737.88C372.389,1737.88 381.252,1746.75 381.252,1757.67L381.252,1852.47ZM577.085,1852.47L598.96,1852.47C605.289,1852.47 610.419,1857.6 610.419,1863.92C610.419,1870.25 605.289,1875.38 598.96,1875.38L532.294,1875.38C525.964,1875.38 520.835,1870.25 520.835,1863.92C520.835,1857.6 525.964,1852.47 532.294,1852.47L554.169,1852.47L554.169,1760.8L532.294,1760.8C525.964,1760.8 520.835,1755.67 520.835,1749.34C520.835,1743.01 525.964,1737.88 532.294,1737.88L557.294,1737.88C568.223,1737.88 577.085,1746.75 577.085,1757.67L577.085,1852.47ZM772.919,1852.47L794.794,1852.47C801.123,1852.47 806.252,1857.6 806.252,1863.92C806.252,1870.25 801.123,1875.38 794.794,1875.38L728.127,1875.38C721.798,1875.38 716.669,1870.25 716.669,1863.92C716.669,1857.6 721.798,1852.47 728.127,1852.47L750.002,1852.47L750.002,1760.8L728.127,1760.8C721.798,1760.8 716.669,1755.67 716.669,1749.34C716.669,1743.01 721.798,1737.88 728.127,1737.88L753.127,1737.88C764.056,1737.88 772.919,1746.75 772.919,1757.67L772.919,1852.47ZM1164.59,1852.47L1186.46,1852.47C1192.79,1852.47 1197.92,1857.6 1197.92,1863.92C1197.92,1870.25 1192.79,1875.38 1186.46,1875.38L1119.79,1875.38C1113.46,1875.38 1108.34,1870.25 1108.34,1863.92C1108.34,1857.6 1113.46,1852.47 1119.79,1852.47L1141.67,1852.47L1141.67,1760.8L1119.79,1760.8C1113.46,1760.8 1108.34,1755.67 1108.34,1749.34C1108.34,1743.01 1113.46,1737.88 1119.79,1737.88L1144.79,1737.88C1155.72,1737.88 1164.59,1746.75 1164.59,1757.67L1164.59,1852.47ZM1360.42,1852.47L1382.29,1852.47C1388.62,1852.47 1393.75,1857.6 1393.75,1863.92C1393.75,1870.25 1388.62,1875.38 1382.29,1875.38L1315.63,1875.38C1309.3,1875.38 1304.17,1870.25 1304.17,1863.92C1304.17,1857.6 1309.3,1852.47 1315.63,1852.47L1337.5,1852.47L1337.5,1760.8L1315.63,1760.8C1309.3,1760.8 1304.17,1755.67 1304.17,1749.34C1304.17,1743.01 1309.3,1737.88 1315.63,1737.88L1340.63,1737.88C1351.56,1737.88 1360.42,1746.75 1360.42,1757.67L1360.42,1852.47ZM1556.25,1852.47L1578.13,1852.47C1584.46,1852.47 1589.59,1857.6 1589.59,1863.92C1589.59,1870.25 1584.46,1875.38 1578.13,1875.38L1511.46,1875.38C1505.13,1875.38 1500,1870.25 1500,1863.92C1500,1857.6 1505.13,1852.47 1511.46,1852.47L1533.34,1852.47L1533.34,1760.8L1511.46,1760.8C1505.13,1760.8 1500,1755.67 1500,1749.34C1500,1743.01 1505.13,1737.88 1511.46,1737.88L1536.46,1737.88C1547.39,1737.88 1556.25,1746.75 1556.25,1757.67L1556.25,1852.47ZM1752.09,1852.47L1773.96,1852.47C1780.29,1852.47 1785.42,1857.6 1785.42,1863.92C1785.42,1870.25 1780.29,1875.38 1773.96,1875.38L1707.29,1875.38C1700.96,1875.38 1695.84,1870.25 1695.84,1863.92C1695.84,1857.6 1700.96,1852.47 1707.29,1852.47L1729.17,1852.47L1729.17,1760.8L1707.29,1760.8C1700.96,1760.8 1695.84,1755.67 1695.84,1749.34C1695.84,1743.01 1700.96,1737.88 1707.29,1737.88L1732.29,1737.88C1743.21,1737.88 1752.09,1746.75 1752.09,1757.67L1752.09,1852.47ZM1947.92,1852.47L1969.79,1852.47C1976.13,1852.47 1981.25,1857.6 1981.25,1863.92C1981.25,1870.25 1976.13,1875.38 1969.79,1875.38L1903.13,1875.38C1896.79,1875.38 1891.67,1870.25 1891.67,1863.92C1891.67,1857.6 1896.79,1852.47 1903.13,1852.47L1925,1852.47L1925,1760.8L1903.13,1760.8C1896.79,1760.8 1891.67,1755.67 1891.67,1749.34C1891.67,1743.01 1896.79,1737.88 1903.13,1737.88L1928.13,1737.88C1939.04,1737.88 1947.92,1746.75 1947.92,1757.67L1947.92,1852.47ZM2143.75,1852.47L2165.63,1852.47C2171.96,1852.47 2177.09,1857.6 2177.09,1863.92C2177.09,1870.25 2171.96,1875.38 2165.63,1875.38L2098.96,1875.38C2092.63,1875.38 2087.5,1870.25 2087.5,1863.92C2087.5,1857.6 2092.63,1852.47 2098.96,1852.47L2120.84,1852.47L2120.84,1760.8L2098.96,1760.8C2092.63,1760.8 2087.5,1755.67 2087.5,1749.34C2087.5,1743.01 2092.63,1737.88 2098.96,1737.88L2123.96,1737.88C2134.88,1737.88 2143.75,1746.75 2143.75,1757.67L2143.75,1852.47ZM2339.59,1852.47L2361.46,1852.47C2367.79,1852.47 2372.92,1857.6 2372.92,1863.92C2372.92,1870.25 2367.79,1875.38 2361.46,1875.38L2294.79,1875.38C2288.46,1875.38 2283.34,1870.25 2283.34,1863.92C2283.34,1857.6 2288.46,1852.47 2294.79,1852.47L2316.67,1852.47L2316.67,1760.8L2294.79,1760.8C2288.46,1760.8 2283.34,1755.67 2283.34,1749.34C2283.34,1743.01 2288.46,1737.88 2294.79,1737.88L2319.79,1737.88C2330.71,1737.88 2339.59,1746.75 2339.59,1757.67L2339.59,1852.47ZM185.415,2073.3L207.29,2073.3C213.619,2073.3 218.748,2078.43 218.748,2084.76C218.748,2091.09 213.619,2096.22 207.29,2096.22L140.623,2096.22C134.294,2096.22 129.165,2091.09 129.165,2084.76C129.165,2078.43 134.294,2073.3 140.623,2073.3L162.498,2073.3L162.498,1981.63L140.623,1981.63C134.294,1981.63 129.165,1976.5 129.165,1970.17C129.165,1963.85 134.294,1958.72 140.623,1958.72L165.623,1958.72C176.552,1958.72 185.415,1967.58 185.415,1978.51L185.415,2073.3ZM381.248,2073.3L403.123,2073.3C409.452,2073.3 414.581,2078.43 414.581,2084.76C414.581,2091.09 409.452,2096.22 403.123,2096.22L336.456,2096.22C330.127,2096.22 324.998,2091.09 324.998,2084.76C324.998,2078.43 330.127,2073.3 336.456,2073.3L358.331,2073.3L358.331,1981.63L336.456,1981.63C330.127,1981.63 324.998,1976.5 324.998,1970.17C324.998,1963.85 330.127,1958.72 336.456,1958.72L361.456,1958.72C372.385,1958.72 381.248,1967.58 381.248,1978.51L381.248,2073.3ZM577.081,2073.3L598.956,2073.3C605.285,2073.3 610.415,2078.43 610.415,2084.76C610.415,2091.09 605.285,2096.22 598.956,2096.22L532.29,2096.22C525.96,2096.22 520.831,2091.09 520.831,2084.76C520.831,2078.43 525.96,2073.3 532.29,2073.3L554.165,2073.3L554.165,1981.63L532.29,1981.63C525.96,1981.63 520.831,1976.5 520.831,1970.17C520.831,1963.85 525.96,1958.72 532.29,1958.72L557.29,1958.72C568.219,1958.72 577.081,1967.58 577.081,1978.51L577.081,2073.3ZM772.915,2073.3L794.79,2073.3C801.119,2073.3 806.248,2078.43 806.248,2084.76C806.248,2091.09 801.119,2096.22 794.79,2096.22L728.123,2096.22C721.794,2096.22 716.665,2091.09 716.665,2084.76C716.665,2078.43 721.794,2073.3 728.123,2073.3L749.998,2073.3L749.998,1981.63L728.123,1981.63C721.794,1981.63 716.665,1976.5 716.665,1970.17C716.665,1963.85 721.794,1958.72 728.123,1958.72L753.123,1958.72C764.052,1958.72 772.915,1967.58 772.915,1978.51L772.915,2073.3ZM968.748,2073.3L990.623,2073.3C996.952,2073.3 1002.08,2078.43 1002.08,2084.76C1002.08,2091.09 996.952,2096.22 990.623,2096.22L923.956,2096.22C917.627,2096.22 912.498,2091.09 912.498,2084.76C912.498,2078.43 917.627,2073.3 923.956,2073.3L945.831,2073.3L945.831,1981.63L923.956,1981.63C917.627,1981.63 912.498,1976.5 912.498,1970.17C912.498,1963.85 917.627,1958.72 923.956,1958.72L948.956,1958.72C959.885,1958.72 968.748,1967.58 968.748,1978.51L968.748,2073.3ZM1164.58,2073.3L1186.46,2073.3C1192.79,2073.3 1197.91,2078.43 1197.91,2084.76C1197.91,2091.09 1192.79,2096.22 1186.46,2096.22L1119.79,2096.22C1113.46,2096.22 1108.33,2091.09 1108.33,2084.76C1108.33,2078.43 1113.46,2073.3 1119.79,2073.3L1141.66,2073.3L1141.66,1981.63L1119.79,1981.63C1113.46,1981.63 1108.33,1976.5 1108.33,1970.17C1108.33,1963.85 1113.46,1958.72 1119.79,1958.72L1144.79,1958.72C1155.72,1958.72 1164.58,1967.58 1164.58,1978.51L1164.58,2073.3ZM1360.41,2073.3L1382.29,2073.3C1388.62,2073.3 1393.75,2078.43 1393.75,2084.76C1393.75,2091.09 1388.62,2096.22 1382.29,2096.22L1315.62,2096.22C1309.29,2096.22 1304.16,2091.09 1304.16,2084.76C1304.16,2078.43 1309.29,2073.3 1315.62,2073.3L1337.5,2073.3L1337.5,1981.63L1315.62,1981.63C1309.29,1981.63 1304.16,1976.5 1304.16,1970.17C1304.16,1963.85 1309.29,1958.72 1315.62,1958.72L1340.62,1958.72C1351.55,1958.72 1360.41,1967.58 1360.41,1978.51L1360.41,2073.3ZM1556.25,2073.3L1578.12,2073.3C1584.45,2073.3 1589.58,2078.43 1589.58,2084.76C1589.58,2091.09 1584.45,2096.22 1578.12,2096.22L1511.46,2096.22C1505.13,2096.22 1500,2091.09 1500,2084.76C1500,2078.43 1505.13,2073.3 1511.46,2073.3L1533.33,2073.3L1533.33,1981.63L1511.46,1981.63C1505.13,1981.63 1500,1976.5 1500,1970.17C1500,1963.85 1505.13,1958.72 1511.46,1958.72L1536.46,1958.72C1547.38,1958.72 1556.25,1967.58 1556.25,1978.51L1556.25,2073.3ZM1752.08,2073.3L1773.96,2073.3C1780.29,2073.3 1785.41,2078.43 1785.41,2084.76C1785.41,2091.09 1780.29,2096.22 1773.96,2096.22L1707.29,2096.22C1700.96,2096.22 1695.83,2091.09 1695.83,2084.76C1695.83,2078.43 1700.96,2073.3 1707.29,2073.3L1729.16,2073.3L1729.16,1981.63L1707.29,1981.63C1700.96,1981.63 1695.83,1976.5 1695.83,1970.17C1695.83,1963.85 1700.96,1958.72 1707.29,1958.72L1732.29,1958.72C1743.21,1958.72 1752.08,1967.58 1752.08,1978.51L1752.08,2073.3ZM1947.91,2073.3L1969.79,2073.3C1976.12,2073.3 1981.25,2078.43 1981.25,2084.76C1981.25,2091.09 1976.12,2096.22 1969.79,2096.22L1903.12,2096.22C1896.79,2096.22 1891.66,2091.09 1891.66,2084.76C1891.66,2078.43 1896.79,2073.3 1903.12,2073.3L1925,2073.3L1925,1981.63L1903.12,1981.63C1896.79,1981.63 1891.66,1976.5 1891.66,1970.17C1891.66,1963.85 1896.79,1958.72 1903.12,1958.72L1928.12,1958.72C1939.04,1958.72 1947.91,1967.58 1947.91,1978.51L1947.91,2073.3ZM2143.75,2073.3L2165.62,2073.3C2171.96,2073.3 2177.08,2078.43 2177.08,2084.76C2177.08,2091.09 2171.96,2096.22 2165.62,2096.22L2098.96,2096.22C2092.62,2096.22 2087.5,2091.09 2087.5,2084.76C2087.5,2078.43 2092.62,2073.3 2098.96,2073.3L2120.83,2073.3L2120.83,1981.63L2098.96,1981.63C2092.62,1981.63 2087.5,1976.5 2087.5,1970.17C2087.5,1963.85 2092.62,1958.72 2098.96,1958.72L2123.96,1958.72C2134.87,1958.72 2143.75,1967.58 2143.75,1978.51L2143.75,2073.3ZM381.248,2294.13L403.123,2294.13C409.452,2294.13 414.581,2299.26 414.581,2305.59C414.581,2311.92 409.452,2317.05 403.123,2317.05L336.456,2317.05C330.127,2317.05 324.998,2311.92 324.998,2305.59C324.998,2299.26 330.127,2294.13 336.456,2294.13L358.331,2294.13L358.331,2202.47L336.456,2202.47C330.127,2202.47 324.998,2197.34 324.998,2191.01C324.998,2184.68 330.127,2179.55 336.456,2179.55L361.456,2179.55C372.385,2179.55 381.248,2188.41 381.248,2199.34L381.248,2294.13ZM577.081,2294.13L598.956,2294.13C605.285,2294.13 610.415,2299.26 610.415,2305.59C610.415,2311.92 605.285,2317.05 598.956,2317.05L532.29,2317.05C525.96,2317.05 520.831,2311.92 520.831,2305.59C520.831,2299.26 525.96,2294.13 532.29,2294.13L554.165,2294.13L554.165,2202.47L532.29,2202.47C525.96,2202.47 520.831,2197.34 520.831,2191.01C520.831,2184.68 525.96,2179.55 532.29,2179.55L557.29,2179.55C568.219,2179.55 577.081,2188.41 577.081,2199.34L577.081,2294.13ZM772.915,2294.13L794.79,2294.13C801.119,2294.13 806.248,2299.26 806.248,2305.59C806.248,2311.92 801.119,2317.05 794.79,2317.05L728.123,2317.05C721.794,2317.05 716.665,2311.92 716.665,2305.59C716.665,2299.26 721.794,2294.13 728.123,2294.13L749.998,2294.13L749.998,2202.47L728.123,2202.47C721.794,2202.47 716.665,2197.34 716.665,2191.01C716.665,2184.68 721.794,2179.55 728.123,2179.55L753.123,2179.55C764.052,2179.55 772.915,2188.41 772.915,2199.34L772.915,2294.13ZM1164.58,2294.13L1186.46,2294.13C1192.79,2294.13 1197.91,2299.26 1197.91,2305.59C1197.91,2311.92 1192.79,2317.05 1186.46,2317.05L1119.79,2317.05C1113.46,2317.05 1108.33,2311.92 1108.33,2305.59C1108.33,2299.26 1113.46,2294.13 1119.79,2294.13L1141.66,2294.13L1141.66,2202.47L1119.79,2202.47C1113.46,2202.47 1108.33,2197.34 1108.33,2191.01C1108.33,2184.68 1113.46,2179.55 1119.79,2179.55L1144.79,2179.55C1155.72,2179.55 1164.58,2188.41 1164.58,2199.34L1164.58,2294.13ZM1360.41,2294.13L1382.29,2294.13C1388.62,2294.13 1393.75,2299.26 1393.75,2305.59C1393.75,2311.92 1388.62,2317.05 1382.29,2317.05L1315.62,2317.05C1309.29,2317.05 1304.16,2311.92 1304.16,2305.59C1304.16,2299.26 1309.29,2294.13 1315.62,2294.13L1337.5,2294.13L1337.5,2202.47L1315.62,2202.47C1309.29,2202.47 1304.16,2197.34 1304.16,2191.01C1304.16,2184.68 1309.29,2179.55 1315.62,2179.55L1340.62,2179.55C1351.55,2179.55 1360.41,2188.41 1360.41,2199.34L1360.41,2294.13ZM1556.25,2294.13L1578.12,2294.13C1584.45,2294.13 1589.58,2299.26 1589.58,2305.59C1589.58,2311.92 1584.45,2317.05 1578.12,2317.05L1511.46,2317.05C1505.13,2317.05 1500,2311.92 1500,2305.59C1500,2299.26 1505.13,2294.13 1511.46,2294.13L1533.33,2294.13L1533.33,2202.47L1511.46,2202.47C1505.13,2202.47 1500,2197.34 1500,2191.01C1500,2184.68 1505.13,2179.55 1511.46,2179.55L1536.46,2179.55C1547.38,2179.55 1556.25,2188.41 1556.25,2199.34L1556.25,2294.13ZM1752.08,2294.13L1773.96,2294.13C1780.29,2294.13 1785.41,2299.26 1785.41,2305.59C1785.41,2311.92 1780.29,2317.05 1773.96,2317.05L1707.29,2317.05C1700.96,2317.05 1695.83,2311.92 1695.83,2305.59C1695.83,2299.26 1700.96,2294.13 1707.29,2294.13L1729.16,2294.13L1729.16,2202.47L1707.29,2202.47C1700.96,2202.47 1695.83,2197.34 1695.83,2191.01C1695.83,2184.68 1700.96,2179.55 1707.29,2179.55L1732.29,2179.55C1743.21,2179.55 1752.08,2188.41 1752.08,2199.34L1752.08,2294.13ZM1947.91,2294.13L1969.79,2294.13C1976.12,2294.13 1981.25,2299.26 1981.25,2305.59C1981.25,2311.92 1976.12,2317.05 1969.79,2317.05L1903.12,2317.05C1896.79,2317.05 1891.66,2311.92 1891.66,2305.59C1891.66,2299.26 1896.79,2294.13 1903.12,2294.13L1925,2294.13L1925,2202.47L1903.12,2202.47C1896.79,2202.47 1891.66,2197.34 1891.66,2191.01C1891.66,2184.68 1896.79,2179.55 1903.12,2179.55L1928.12,2179.55C1939.04,2179.55 1947.91,2188.41 1947.91,2199.34L1947.91,2294.13ZM577.085,2514.97L598.96,2514.97C605.289,2514.97 610.419,2520.1 610.419,2526.43C610.419,2532.75 605.289,2537.88 598.96,2537.88L532.294,2537.88C525.964,2537.88 520.835,2532.75 520.835,2526.43C520.835,2520.1 525.964,2514.97 532.294,2514.97L554.169,2514.97L554.169,2423.3L532.294,2423.3C525.964,2423.3 520.835,2418.17 520.835,2411.84C520.835,2405.51 525.964,2400.38 532.294,2400.38L557.294,2400.38C568.223,2400.38 577.085,2409.25 577.085,2420.18L577.085,2514.97ZM772.919,2514.97L794.794,2514.97C801.123,2514.97 806.252,2520.1 806.252,2526.43C806.252,2532.75 801.123,2537.88 794.794,2537.88L728.127,2537.88C721.798,2537.88 716.669,2532.75 716.669,2526.43C716.669,2520.1 721.798,2514.97 728.127,2514.97L750.002,2514.97L750.002,2423.3L728.127,2423.3C721.798,2423.3 716.669,2418.17 716.669,2411.84C716.669,2405.51 721.798,2400.38 728.127,2400.38L753.127,2400.38C764.056,2400.38 772.919,2409.25 772.919,2420.18L772.919,2514.97ZM1360.42,2514.97L1382.29,2514.97C1388.62,2514.97 1393.75,2520.1 1393.75,2526.43C1393.75,2532.75 1388.62,2537.88 1382.29,2537.88L1315.63,2537.88C1309.3,2537.88 1304.17,2532.75 1304.17,2526.43C1304.17,2520.1 1309.3,2514.97 1315.63,2514.97L1337.5,2514.97L1337.5,2423.3L1315.63,2423.3C1309.3,2423.3 1304.17,2418.17 1304.17,2411.84C1304.17,2405.51 1309.3,2400.38 1315.63,2400.38L1340.63,2400.38C1351.56,2400.38 1360.42,2409.25 1360.42,2420.18L1360.42,2514.97ZM1556.25,2514.97L1578.13,2514.97C1584.46,2514.97 1589.59,2520.1 1589.59,2526.43C1589.59,2532.75 1584.46,2537.88 1578.13,2537.88L1511.46,2537.88C1505.13,2537.88 1500,2532.75 1500,2526.43C1500,2520.1 1505.13,2514.97 1511.46,2514.97L1533.34,2514.97L1533.34,2423.3L1511.46,2423.3C1505.13,2423.3 1500,2418.17 1500,2411.84C1500,2405.51 1505.13,2400.38 1511.46,2400.38L1536.46,2400.38C1547.39,2400.38 1556.25,2409.25 1556.25,2420.18L1556.25,2514.97ZM1752.09,2514.97L1773.96,2514.97C1780.29,2514.97 1785.42,2520.1 1785.42,2526.43C1785.42,2532.75 1780.29,2537.88 1773.96,2537.88L1707.29,2537.88C1700.96,2537.88 1695.84,2532.75 1695.84,2526.43C1695.84,2520.1 1700.96,2514.97 1707.29,2514.97L1729.17,2514.97L1729.17,2423.3L1707.29,2423.3C1700.96,2423.3 1695.84,2418.17 1695.84,2411.84C1695.84,2405.51 1700.96,2400.38 1707.29,2400.38L1732.29,2400.38C1743.21,2400.38 1752.09,2409.25 1752.09,2420.18L1752.09,2514.97ZM1947.92,2514.97L1969.79,2514.97C1976.13,2514.97 1981.25,2520.1 1981.25,2526.43C1981.25,2532.75 1976.13,2537.88 1969.79,2537.88L1903.13,2537.88C1896.79,2537.88 1891.67,2532.75 1891.67,2526.43C1891.67,2520.1 1896.79,2514.97 1903.13,2514.97L1925,2514.97L1925,2423.3L1903.13,2423.3C1896.79,2423.3 1891.67,2418.17 1891.67,2411.84C1891.67,2405.51 1896.79,2400.38 1903.13,2400.38L1928.13,2400.38C1939.04,2400.38 1947.92,2409.25 1947.92,2420.18L1947.92,2514.97ZM1556.25,2735.8L1578.13,2735.8C1584.46,2735.8 1589.59,2740.93 1589.59,2747.26C1589.59,2753.59 1584.46,2758.72 1578.13,2758.72L1511.46,2758.72C1505.13,2758.72 1500,2753.59 1500,2747.26C1500,2740.93 1505.13,2735.8 1511.46,2735.8L1533.34,2735.8L1533.34,2644.13L1511.46,2644.13C1505.13,2644.13 1500,2639.01 1500,2632.68C1500,2626.34 1505.13,2621.22 1511.46,2621.22L1536.46,2621.22C1547.39,2621.22 1556.25,2630.09 1556.25,2641.01L1556.25,2735.8ZM1752.09,2735.8L1773.96,2735.8C1780.29,2735.8 1785.42,2740.93 1785.42,2747.26C1785.42,2753.59 1780.29,2758.72 1773.96,2758.72L1707.29,2758.72C1700.96,2758.72 1695.84,2753.59 1695.84,2747.26C1695.84,2740.93 1700.96,2735.8 1707.29,2735.8L1729.17,2735.8L1729.17,2644.13L1707.29,2644.13C1700.96,2644.13 1695.84,2639.01 1695.84,2632.68C1695.84,2626.34 1700.96,2621.22 1707.29,2621.22L1732.29,2621.22C1743.21,2621.22 1752.09,2630.09 1752.09,2641.01L1752.09,2735.8Z" style="fill:white;"/>
                        <path d="M1529.41,3317.05L41.67,3317.05C18.657,3317.05 0.003,3298.38 0.003,3275.38L0.003,521.213C0.003,498.2 18.657,479.546 41.67,479.546L3349.76,479.546L1529.41,3317.05L1529.41,3317.05Z" style="fill:rgb(123,198,255);fill-opacity:0.1;"/>
                        <path d="M3184.03,737.882L0,737.882L0,521.216C0,498.203 18.654,479.549 41.667,479.549L3349.76,479.549L3184.03,737.882L3184.03,737.882Z" style="fill:rgb(123,198,255);fill-opacity:0.2;"/>
                        <path d="M1227.91,3787.01L3651.25,9.58C3657.46,-0.098 3670.36,-2.914 3680.03,3.294C3689.71,9.503 3692.53,22.401 3686.32,32.079L3399.26,479.546L4845.82,479.546C4868.82,479.546 4887.49,498.2 4887.49,521.213L4887.49,3275.38C4887.49,3298.38 4868.82,3317.05 4845.82,3317.05L1578.9,3317.05L1262.98,3809.51C1256.77,3819.19 1243.87,3822 1234.19,3815.79C1224.52,3809.59 1221.7,3796.69 1227.91,3787.01L1227.91,3787.01ZM2091.66,2517.79L1605.64,3275.39L4845.83,3275.39L4845.83,737.887L3233.53,737.887L2760.83,1474.71L2760.83,2719.14C2760.83,2740.98 2743.09,2758.72 2721.24,2758.72C2699.4,2758.72 2681.66,2740.98 2681.66,2719.14L2681.66,1598.12L2564.16,1781.27L2564.16,2939.97C2564.16,2961.82 2546.43,2979.55 2524.58,2979.55C2502.73,2979.55 2484.99,2961.82 2484.99,2939.97L2484.99,1904.67L2367.49,2087.82L2367.49,2719.13C2367.49,2740.98 2349.76,2758.72 2327.91,2758.72C2306.07,2758.72 2288.33,2740.98 2288.33,2719.13L2288.33,2211.23L2170.83,2394.38L2170.83,3160.8C2170.83,3182.65 2153.09,3200.38 2131.24,3200.38C2109.4,3200.38 2091.66,3182.65 2091.66,3160.8L2091.66,2517.78L2091.66,2517.79ZM4734.38,608.33L4697.37,645.551C4691.91,651.039 4691.91,659.951 4697.36,665.439C4702.82,670.927 4711.69,670.927 4717.14,665.439L4754.16,628.218L4791.18,665.439C4796.64,670.927 4805.5,670.927 4810.96,665.439C4816.41,659.951 4816.41,651.039 4810.96,645.551L4773.94,608.33L4810.19,571.882C4815.65,566.393 4815.65,557.482 4810.19,551.994C4804.73,546.505 4795.87,546.505 4790.41,551.994L4754.16,588.442L4717.91,551.994C4712.45,546.505 4703.59,546.505 4698.13,551.994C4692.68,557.482 4692.68,566.393 4698.13,571.882L4734.38,608.33ZM3547.49,1998.3L3547.49,2056.63C3547.49,2078.48 3529.76,2096.22 3507.91,2096.22C3486.06,2096.22 3468.33,2078.48 3468.33,2056.63L3468.33,1998.3C3468.33,1976.45 3486.06,1958.72 3507.91,1958.72C3529.76,1958.72 3547.49,1976.45 3547.49,1998.3ZM3154.16,1335.8L3154.16,2719.13C3154.16,2740.98 3136.42,2758.71 3114.58,2758.71C3092.73,2758.71 3074.99,2740.98 3074.99,2719.13L3074.99,1335.8C3074.99,1313.95 3092.73,1296.22 3114.58,1296.22C3136.42,1296.22 3154.16,1313.95 3154.16,1335.8ZM2957.49,1556.63L2957.49,2498.3C2957.49,2520.15 2939.76,2537.88 2917.91,2537.88C2896.06,2537.88 2878.33,2520.15 2878.33,2498.3L2878.33,1556.63C2878.33,1534.79 2896.06,1517.05 2917.91,1517.05C2939.76,1517.05 2957.49,1534.79 2957.49,1556.63ZM3350.83,1777.47L3350.83,2277.47C3350.83,2299.31 3333.09,2317.05 3311.24,2317.05C3289.39,2317.05 3271.66,2299.31 3271.66,2277.47L3271.66,1777.47C3271.66,1755.62 3289.39,1737.88 3311.24,1737.88C3333.09,1737.88 3350.83,1755.62 3350.83,1777.47ZM3744.16,1777.47L3744.16,2277.47C3744.16,2299.31 3726.42,2317.05 3704.58,2317.05C3682.73,2317.05 3664.99,2299.31 3664.99,2277.47L3664.99,1777.47C3664.99,1755.62 3682.73,1737.88 3704.58,1737.88C3726.42,1737.88 3744.16,1755.62 3744.16,1777.47ZM3940.83,1556.63L3940.83,2498.3C3940.83,2520.15 3923.09,2537.88 3901.24,2537.88C3879.39,2537.88 3861.66,2520.15 3861.66,2498.3L3861.66,1556.63C3861.66,1534.79 3879.39,1517.05 3901.24,1517.05C3923.09,1517.05 3940.83,1534.79 3940.83,1556.63ZM4137.49,1335.8L4137.49,2719.13C4137.49,2740.98 4119.76,2758.71 4097.91,2758.71C4076.06,2758.71 4058.33,2740.98 4058.33,2719.13L4058.33,1335.8C4058.33,1313.95 4076.06,1296.22 4097.91,1296.22C4119.76,1296.22 4137.49,1313.95 4137.49,1335.8ZM4334.16,1114.97L4334.16,2939.97C4334.16,2961.81 4316.42,2979.55 4294.57,2979.55C4272.73,2979.55 4254.99,2961.81 4254.99,2939.97L4254.99,1114.97C4254.99,1093.12 4272.73,1075.38 4294.57,1075.38C4316.42,1075.38 4334.16,1093.12 4334.16,1114.97ZM4530.82,1556.63L4530.82,2498.3C4530.82,2520.15 4513.09,2537.88 4491.24,2537.88C4469.4,2537.88 4451.66,2520.15 4451.66,2498.3L4451.66,1556.63C4451.66,1534.79 4469.4,1517.05 4491.24,1517.05C4513.09,1517.05 4530.82,1534.79 4530.82,1556.63ZM4727.49,1777.47L4727.49,2277.47C4727.49,2299.31 4709.76,2317.05 4687.91,2317.05C4666.06,2317.05 4648.32,2299.31 4648.32,2277.47L4648.32,1777.47C4648.32,1755.62 4666.06,1737.88 4687.91,1737.88C4709.76,1737.88 4727.49,1755.62 4727.49,1777.47Z" style="fill:white;"/>
                        <path d="M1745.93,2979.55L1704.17,2979.55L1703.09,2979.51C1692.46,2978.97 1683.92,2970.43 1683.38,2959.8L1683.34,2958.72L1683.34,2862.88C1683.34,2851.72 1692.09,2842.63 1703.09,2842.09L1704.17,2842.05L1775,2842.05L1776.09,2842.09C1787.09,2842.63 1795.84,2851.72 1795.84,2862.88L1795.84,2901.76L1772.92,2937.48L1772.92,2864.97L1706.25,2864.97L1706.25,2956.63L1760.63,2956.63L1745.93,2979.55ZM1889.45,2755.83C1883.6,2752.38 1879.58,2746.15 1879.21,2738.97L1879.17,2737.88L1879.17,2642.05C1879.17,2630.88 1887.92,2621.8 1898.92,2621.26L1900,2621.22L1970.84,2621.22L1971.92,2621.26C1973.14,2621.32 1974.32,2621.48 1975.48,2621.74L1961.11,2644.13L1902.09,2644.13L1902.09,2735.8L1902.3,2735.8L1889.45,2755.83ZM2662.5,1550.82L2662.5,1537.88C2662.5,1526.74 2671.25,1517.63 2682.25,1517.08L2683.34,1517.05L2684.17,1517.05L2662.5,1550.82ZM2879.3,1212.88L2879.17,1212.88L2878.09,1212.85C2867.46,1212.31 2858.92,1203.77 2858.38,1193.12L2858.34,1192.05L2858.34,1096.21C2858.34,1085.07 2867.09,1075.97 2878.09,1075.41L2879.17,1075.38L2950,1075.38L2951.09,1075.41C2956.06,1075.66 2960.58,1077.66 2964.03,1080.81L2947.92,1105.92L2947.92,1098.3L2881.25,1098.3L2881.25,1189.96L2894.01,1189.96L2879.3,1212.88ZM137.505,854.547L208.338,854.547L209.409,854.576C220.417,855.135 229.172,864.235 229.172,875.38L229.172,971.214L229.142,972.285C228.605,982.939 220.063,991.48 209.409,992.018L208.338,992.047L137.505,992.047L136.434,992.018C125.78,991.48 117.238,982.939 116.701,972.285L116.672,971.214L116.672,875.38C116.672,864.235 125.426,855.135 136.434,854.576L137.505,854.547ZM139.588,969.13L206.255,969.13L206.255,877.464L139.588,877.464L139.588,969.13ZM333.338,854.547L404.172,854.547L405.242,854.576C416.251,855.135 425.005,864.235 425.005,875.38L425.005,971.214L424.976,972.285C424.438,982.939 415.897,991.48 405.242,992.018L404.172,992.047L333.338,992.047L332.267,992.018C321.613,991.48 313.072,982.939 312.534,972.285L312.505,971.214L312.505,875.38C312.505,864.235 321.259,855.135 332.267,854.576L333.338,854.547ZM335.422,969.13L402.088,969.13L402.088,877.464L335.422,877.464L335.422,969.13ZM529.172,854.547L600.005,854.547L601.076,854.576C612.084,855.135 620.838,864.235 620.838,875.38L620.838,971.214L620.809,972.285C620.272,982.939 611.73,991.48 601.076,992.018L600.005,992.047L529.172,992.047L528.101,992.018C517.447,991.48 508.905,982.939 508.367,972.285L508.338,971.214L508.338,875.38C508.338,864.235 517.092,855.135 528.101,854.576L529.172,854.547ZM531.255,969.13L597.922,969.13L597.922,877.464L531.255,877.464L531.255,969.13ZM725.005,854.547L795.838,854.547L796.909,854.576C807.917,855.135 816.672,864.235 816.672,875.38L816.672,971.214L816.642,972.285C816.105,982.939 807.563,991.48 796.909,992.018L795.838,992.047L725.005,992.047L723.934,992.018C713.28,991.48 704.738,982.939 704.201,972.285L704.172,971.214L704.172,875.38C704.172,864.235 712.926,855.135 723.934,854.576L725.005,854.547ZM727.088,969.13L793.755,969.13L793.755,877.464L727.088,877.464L727.088,969.13ZM920.838,854.547L991.672,854.547L992.742,854.576C1003.75,855.135 1012.5,864.235 1012.5,875.38L1012.5,971.214L1012.48,972.285C1011.94,982.939 1003.4,991.48 992.742,992.018L991.672,992.047L920.838,992.047L919.767,992.018C909.113,991.48 900.572,982.939 900.034,972.285L900.005,971.214L900.005,875.38C900.005,864.235 908.759,855.135 919.767,854.576L920.838,854.547ZM922.922,969.13L989.588,969.13L989.588,877.464L922.922,877.464L922.922,969.13ZM1116.67,854.547L1187.51,854.547L1188.58,854.576C1199.58,855.135 1208.34,864.235 1208.34,875.38L1208.34,971.214L1208.31,972.285C1207.77,982.939 1199.23,991.48 1188.58,992.018L1187.51,992.047L1116.67,992.047L1115.6,992.018C1104.95,991.48 1096.4,982.939 1095.87,972.285L1095.84,971.214L1095.84,875.38C1095.84,864.235 1104.59,855.135 1115.6,854.576L1116.67,854.547ZM1118.76,969.13L1185.42,969.13L1185.42,877.464L1118.76,877.464L1118.76,969.13ZM1312.51,854.547L1383.34,854.547L1384.41,854.576C1395.42,855.135 1404.17,864.235 1404.17,875.38L1404.17,971.214L1404.14,972.285C1403.61,982.939 1395.06,991.48 1384.41,992.018L1383.34,992.047L1312.51,992.047L1311.43,992.018C1300.78,991.48 1292.24,982.939 1291.7,972.285L1291.67,971.214L1291.67,875.38C1291.67,864.235 1300.43,855.135 1311.43,854.576L1312.51,854.547ZM1314.59,969.13L1381.26,969.13L1381.26,877.464L1314.59,877.464L1314.59,969.13ZM1508.34,854.547L1579.17,854.547L1580.24,854.576C1591.26,855.135 1600.01,864.235 1600.01,875.38L1600.01,971.214L1599.96,972.285C1599.42,982.939 1590.88,991.48 1580.24,992.018L1579.17,992.047L1508.34,992.047L1507.27,992.018C1496.61,991.48 1488.07,982.939 1487.53,972.285L1487.51,971.214L1487.51,875.38C1487.51,864.235 1496.26,855.135 1507.27,854.576L1508.34,854.547ZM1510.42,969.13L1577.09,969.13L1577.09,877.464L1510.42,877.464L1510.42,969.13ZM1704.17,854.547L1775.01,854.547L1776.09,854.576C1787.09,855.135 1795.84,864.235 1795.84,875.38L1795.84,971.214L1795.8,972.285C1795.26,982.939 1786.71,991.48 1776.09,992.018L1775.01,992.047L1704.17,992.047L1703.09,992.018C1692.46,991.48 1683.92,982.939 1683.38,972.285L1683.34,971.214L1683.34,875.38C1683.34,864.235 1692.09,855.135 1703.09,854.576L1704.17,854.547ZM1706.26,969.13L1772.92,969.13L1772.92,877.464L1706.26,877.464L1706.26,969.13ZM1900.01,854.547L1970.84,854.547L1971.92,854.576C1982.92,855.135 1991.67,864.235 1991.67,875.38L1991.67,971.214L1991.63,972.285C1991.09,982.939 1982.55,991.48 1971.92,992.018L1970.84,992.047L1900.01,992.047L1898.92,992.018C1888.3,991.48 1879.76,982.939 1879.21,972.285L1879.17,971.214L1879.17,875.38C1879.17,864.235 1887.92,855.135 1898.92,854.576L1900.01,854.547ZM1902.09,969.13L1968.76,969.13L1968.76,877.464L1902.09,877.464L1902.09,969.13ZM2291.67,854.547L2362.51,854.547L2363.59,854.576C2374.59,855.135 2383.34,864.235 2383.34,875.38L2383.34,971.214L2383.3,972.285C2382.76,982.939 2374.21,991.48 2363.59,992.018L2362.51,992.047L2291.67,992.047L2290.59,992.018C2279.96,991.48 2271.42,982.939 2270.88,972.285L2270.84,971.214L2270.84,875.38C2270.84,864.235 2279.59,855.135 2290.59,854.576L2291.67,854.547ZM2293.76,969.13L2360.42,969.13L2360.42,877.464L2293.76,877.464L2293.76,969.13ZM2487.51,854.547L2558.34,854.547L2559.42,854.576C2570.42,855.135 2579.17,864.235 2579.17,875.38L2579.17,971.214L2579.13,972.285C2578.59,982.939 2570.05,991.48 2559.42,992.018L2558.34,992.047L2487.51,992.047L2486.42,992.018C2475.8,991.48 2467.26,982.939 2466.71,972.285L2466.67,971.214L2466.67,875.38C2466.67,864.235 2475.42,855.135 2486.42,854.576L2487.51,854.547ZM2489.59,969.13L2556.26,969.13L2556.26,877.464L2489.59,877.464L2489.59,969.13ZM2683.34,854.547L2754.17,854.547L2755.26,854.576C2766.26,855.135 2775.01,864.235 2775.01,875.38L2775.01,971.214L2774.96,972.285C2774.42,982.939 2765.88,991.48 2755.26,992.018L2754.17,992.047L2683.34,992.047L2682.26,992.018C2671.63,991.48 2663.09,982.939 2662.55,972.285L2662.51,971.214L2662.51,875.38C2662.51,864.235 2671.26,855.135 2682.26,854.576L2683.34,854.547ZM2685.42,969.13L2752.09,969.13L2752.09,877.464L2685.42,877.464L2685.42,969.13ZM2879.17,854.547L2950.01,854.547L2951.09,854.576C2962.09,855.135 2970.84,864.235 2970.84,875.38L2970.84,971.214L2970.8,972.285C2970.26,982.939 2961.71,991.48 2951.09,992.018L2950.01,992.047L2879.17,992.047L2878.09,992.018C2867.46,991.48 2858.92,982.939 2858.38,972.285L2858.34,971.214L2858.34,875.38C2858.34,864.235 2867.09,855.135 2878.09,854.576L2879.17,854.547ZM2881.26,969.13L2947.92,969.13L2947.92,877.464L2881.26,877.464L2881.26,969.13ZM137.505,1075.38L208.338,1075.38L209.409,1075.41C220.417,1075.97 229.172,1085.07 229.172,1096.21L229.172,1192.05L229.142,1193.12C228.605,1203.77 220.063,1212.31 209.409,1212.85L208.338,1212.88L137.505,1212.88L136.434,1212.85C125.78,1212.31 117.238,1203.77 116.701,1193.12L116.672,1192.05L116.672,1096.21C116.672,1085.07 125.426,1075.97 136.434,1075.41L137.505,1075.38ZM139.588,1189.96L206.255,1189.96L206.255,1098.3L139.588,1098.3L139.588,1189.96ZM333.338,1075.38L404.172,1075.38L405.242,1075.41C416.251,1075.97 425.005,1085.07 425.005,1096.21L425.005,1192.05L424.976,1193.12C424.438,1203.77 415.897,1212.31 405.242,1212.85L404.172,1212.88L333.338,1212.88L332.267,1212.85C321.613,1212.31 313.072,1203.77 312.534,1193.12L312.505,1192.05L312.505,1096.21C312.505,1085.07 321.259,1075.97 332.267,1075.41L333.338,1075.38ZM335.422,1189.96L402.088,1189.96L402.088,1098.3L335.422,1098.3L335.422,1189.96ZM529.172,1075.38L600.005,1075.38L601.076,1075.41C612.084,1075.97 620.838,1085.07 620.838,1096.21L620.838,1192.05L620.809,1193.12C620.272,1203.77 611.73,1212.31 601.076,1212.85L600.005,1212.88L529.172,1212.88L528.101,1212.85C517.447,1212.31 508.905,1203.77 508.367,1193.12L508.338,1192.05L508.338,1096.21C508.338,1085.07 517.092,1075.97 528.101,1075.41L529.172,1075.38ZM531.255,1189.96L597.922,1189.96L597.922,1098.3L531.255,1098.3L531.255,1189.96ZM725.005,1075.38L795.838,1075.38L796.909,1075.41C807.917,1075.97 816.672,1085.07 816.672,1096.21L816.672,1192.05L816.642,1193.12C816.105,1203.77 807.563,1212.31 796.909,1212.85L795.838,1212.88L725.005,1212.88L723.934,1212.85C713.28,1212.31 704.738,1203.77 704.201,1193.12L704.172,1192.05L704.172,1096.21C704.172,1085.07 712.926,1075.97 723.934,1075.41L725.005,1075.38ZM727.088,1189.96L793.755,1189.96L793.755,1098.3L727.088,1098.3L727.088,1189.96ZM920.838,1075.38L991.672,1075.38L992.742,1075.41C1003.75,1075.97 1012.5,1085.07 1012.5,1096.21L1012.5,1192.05L1012.48,1193.12C1011.94,1203.77 1003.4,1212.31 992.742,1212.85L991.672,1212.88L920.838,1212.88L919.767,1212.85C909.113,1212.31 900.572,1203.77 900.034,1193.12L900.005,1192.05L900.005,1096.21C900.005,1085.07 908.759,1075.97 919.767,1075.41L920.838,1075.38ZM922.922,1189.96L989.588,1189.96L989.588,1098.3L922.922,1098.3L922.922,1189.96ZM1116.67,1075.38L1187.51,1075.38L1188.58,1075.41C1199.58,1075.97 1208.34,1085.07 1208.34,1096.21L1208.34,1192.05L1208.31,1193.12C1207.77,1203.77 1199.23,1212.31 1188.58,1212.85L1187.51,1212.88L1116.67,1212.88L1115.6,1212.85C1104.95,1212.31 1096.4,1203.77 1095.87,1193.12L1095.84,1192.05L1095.84,1096.21C1095.84,1085.07 1104.59,1075.97 1115.6,1075.41L1116.67,1075.38ZM1118.76,1189.96L1185.42,1189.96L1185.42,1098.3L1118.76,1098.3L1118.76,1189.96ZM1312.51,1075.38L1383.34,1075.38L1384.41,1075.41C1395.42,1075.97 1404.17,1085.07 1404.17,1096.21L1404.17,1192.05L1404.14,1193.12C1403.61,1203.77 1395.06,1212.31 1384.41,1212.85L1383.34,1212.88L1312.51,1212.88L1311.43,1212.85C1300.78,1212.31 1292.24,1203.77 1291.7,1193.12L1291.67,1192.05L1291.67,1096.21C1291.67,1085.07 1300.43,1075.97 1311.43,1075.41L1312.51,1075.38ZM1314.59,1189.96L1381.26,1189.96L1381.26,1098.3L1314.59,1098.3L1314.59,1189.96ZM1508.34,1075.38L1579.17,1075.38L1580.24,1075.41C1591.26,1075.97 1600.01,1085.07 1600.01,1096.21L1600.01,1192.05L1599.96,1193.12C1599.42,1203.77 1590.88,1212.31 1580.24,1212.85L1579.17,1212.88L1508.34,1212.88L1507.27,1212.85C1496.61,1212.31 1488.07,1203.77 1487.53,1193.12L1487.51,1192.05L1487.51,1096.21C1487.51,1085.07 1496.26,1075.97 1507.27,1075.41L1508.34,1075.38ZM1510.42,1189.96L1577.09,1189.96L1577.09,1098.3L1510.42,1098.3L1510.42,1189.96ZM1704.17,1075.38L1775.01,1075.38L1776.09,1075.41C1787.09,1075.97 1795.84,1085.07 1795.84,1096.21L1795.84,1192.05L1795.8,1193.12C1795.26,1203.77 1786.71,1212.31 1776.09,1212.85L1775.01,1212.88L1704.17,1212.88L1703.09,1212.85C1692.46,1212.31 1683.92,1203.77 1683.38,1193.12L1683.34,1192.05L1683.34,1096.21C1683.34,1085.07 1692.09,1075.97 1703.09,1075.41L1704.17,1075.38ZM1706.26,1189.96L1772.92,1189.96L1772.92,1098.3L1706.26,1098.3L1706.26,1189.96ZM1900.01,1075.38L1970.84,1075.38L1971.92,1075.41C1982.92,1075.97 1991.67,1085.07 1991.67,1096.21L1991.67,1192.05L1991.63,1193.12C1991.09,1203.77 1982.55,1212.31 1971.92,1212.85L1970.84,1212.88L1900.01,1212.88L1898.92,1212.85C1888.3,1212.31 1879.76,1203.77 1879.21,1193.12L1879.17,1192.05L1879.17,1096.21C1879.17,1085.07 1887.92,1075.97 1898.92,1075.41L1900.01,1075.38ZM1902.09,1189.96L1968.76,1189.96L1968.76,1098.3L1902.09,1098.3L1902.09,1189.96ZM2291.67,1075.38L2362.51,1075.38L2363.59,1075.41C2374.59,1075.97 2383.34,1085.07 2383.34,1096.21L2383.34,1192.05L2383.3,1193.12C2382.76,1203.77 2374.21,1212.31 2363.59,1212.85L2362.51,1212.88L2291.67,1212.88L2290.59,1212.85C2279.96,1212.31 2271.42,1203.77 2270.88,1193.12L2270.84,1192.05L2270.84,1096.21C2270.84,1085.07 2279.59,1075.97 2290.59,1075.41L2291.67,1075.38ZM2293.76,1189.96L2360.42,1189.96L2360.42,1098.3L2293.76,1098.3L2293.76,1189.96ZM2683.34,1075.38L2754.17,1075.38L2755.26,1075.41C2766.26,1075.97 2775.01,1085.07 2775.01,1096.21L2775.01,1192.05L2774.96,1193.12C2774.42,1203.77 2765.88,1212.31 2755.26,1212.85L2754.17,1212.88L2683.34,1212.88L2682.26,1212.85C2671.63,1212.31 2663.09,1203.77 2662.55,1193.12L2662.51,1192.05L2662.51,1096.21C2662.51,1085.07 2671.26,1075.97 2682.26,1075.41L2683.34,1075.38ZM2685.42,1189.96L2752.09,1189.96L2752.09,1098.3L2685.42,1098.3L2685.42,1189.96ZM137.502,1296.21L208.335,1296.21L209.406,1296.24C220.414,1296.8 229.169,1305.9 229.169,1317.05L229.169,1412.88L229.139,1413.95C228.602,1424.61 220.06,1433.15 209.406,1433.68L208.335,1433.71L137.502,1433.71L136.431,1433.68C125.777,1433.15 117.235,1424.61 116.698,1413.95L116.669,1412.88L116.669,1317.05C116.669,1305.9 125.423,1296.8 136.431,1296.24L137.502,1296.21ZM139.585,1410.8L206.252,1410.8L206.252,1319.13L139.585,1319.13L139.585,1410.8ZM333.335,1296.21L404.169,1296.21L405.239,1296.24C416.248,1296.8 425.002,1305.9 425.002,1317.05L425.002,1412.88L424.973,1413.95C424.435,1424.61 415.894,1433.15 405.239,1433.68L404.169,1433.71L333.335,1433.71L332.264,1433.68C321.61,1433.15 313.069,1424.61 312.531,1413.95L312.502,1412.88L312.502,1317.05C312.502,1305.9 321.256,1296.8 332.264,1296.24L333.335,1296.21ZM335.419,1410.8L402.085,1410.8L402.085,1319.13L335.419,1319.13L335.419,1410.8ZM529.169,1296.21L600.002,1296.21L601.073,1296.24C612.081,1296.8 620.835,1305.9 620.835,1317.05L620.835,1412.88L620.806,1413.95C620.269,1424.61 611.727,1433.15 601.073,1433.68L600.002,1433.71L529.169,1433.71L528.098,1433.68C517.444,1433.15 508.902,1424.61 508.364,1413.95L508.335,1412.88L508.335,1317.05C508.335,1305.9 517.089,1296.8 528.098,1296.24L529.169,1296.21ZM531.252,1410.8L597.919,1410.8L597.919,1319.13L531.252,1319.13L531.252,1410.8ZM725.002,1296.21L795.835,1296.21L796.906,1296.24C807.914,1296.8 816.669,1305.9 816.669,1317.05L816.669,1412.88L816.639,1413.95C816.102,1424.61 807.56,1433.15 796.906,1433.68L795.835,1433.71L725.002,1433.71L723.931,1433.68C713.277,1433.15 704.735,1424.61 704.198,1413.95L704.169,1412.88L704.169,1317.05C704.169,1305.9 712.923,1296.8 723.931,1296.24L725.002,1296.21ZM727.085,1410.8L793.752,1410.8L793.752,1319.13L727.085,1319.13L727.085,1410.8ZM920.835,1296.21L991.669,1296.21L992.739,1296.24C1003.75,1296.8 1012.5,1305.9 1012.5,1317.05L1012.5,1412.88L1012.47,1413.95C1011.94,1424.61 1003.39,1433.15 992.739,1433.68L991.669,1433.71L920.835,1433.71L919.764,1433.68C909.11,1433.15 900.569,1424.61 900.031,1413.95L900.002,1412.88L900.002,1317.05C900.002,1305.9 908.756,1296.8 919.764,1296.24L920.835,1296.21ZM922.919,1410.8L989.585,1410.8L989.585,1319.13L922.919,1319.13L922.919,1410.8ZM1116.67,1296.21L1187.5,1296.21L1188.57,1296.24C1199.58,1296.8 1208.34,1305.9 1208.34,1317.05L1208.34,1412.88L1208.31,1413.95C1207.77,1424.61 1199.23,1433.15 1188.57,1433.68L1187.5,1433.71L1116.67,1433.71L1115.6,1433.68C1104.94,1433.15 1096.4,1424.61 1095.86,1413.95L1095.84,1412.88L1095.84,1317.05C1095.84,1305.9 1104.59,1296.8 1115.6,1296.24L1116.67,1296.21ZM1118.75,1410.8L1185.42,1410.8L1185.42,1319.13L1118.75,1319.13L1118.75,1410.8ZM1312.5,1296.21L1383.34,1296.21L1384.41,1296.24C1395.41,1296.8 1404.17,1305.9 1404.17,1317.05L1404.17,1412.88L1404.14,1413.95C1403.6,1424.61 1395.06,1433.15 1384.41,1433.68L1383.34,1433.71L1312.5,1433.71L1311.43,1433.68C1300.78,1433.15 1292.24,1424.61 1291.7,1413.95L1291.67,1412.88L1291.67,1317.05C1291.67,1305.9 1300.42,1296.8 1311.43,1296.24L1312.5,1296.21ZM1314.59,1410.8L1381.25,1410.8L1381.25,1319.13L1314.59,1319.13L1314.59,1410.8ZM1900,1296.21L1970.84,1296.21L1971.92,1296.24C1982.92,1296.8 1991.67,1305.9 1991.67,1317.05L1991.67,1412.88L1991.63,1413.95C1991.09,1424.61 1982.54,1433.15 1971.92,1433.68L1970.84,1433.71L1900,1433.71L1898.92,1433.68C1888.29,1433.15 1879.75,1424.61 1879.21,1413.95L1879.17,1412.88L1879.17,1317.05C1879.17,1305.9 1887.92,1296.8 1898.92,1296.24L1900,1296.21ZM1902.09,1410.8L1968.75,1410.8L1968.75,1319.13L1902.09,1319.13L1902.09,1410.8ZM137.505,1517.05L208.338,1517.05L209.409,1517.08C220.417,1517.63 229.172,1526.74 229.172,1537.88L229.172,1633.71L229.142,1634.79C228.605,1645.44 220.063,1653.98 209.409,1654.52L208.338,1654.55L137.505,1654.55L136.434,1654.52C125.78,1653.98 117.238,1645.44 116.701,1634.79L116.672,1633.71L116.672,1537.88C116.672,1526.74 125.426,1517.63 136.434,1517.08L137.505,1517.05ZM139.588,1631.63L206.255,1631.63L206.255,1539.96L139.588,1539.96L139.588,1631.63ZM333.338,1517.05L404.172,1517.05L405.242,1517.08C416.251,1517.63 425.005,1526.74 425.005,1537.88L425.005,1633.71L424.976,1634.79C424.438,1645.44 415.897,1653.98 405.242,1654.52L404.172,1654.55L333.338,1654.55L332.267,1654.52C321.613,1653.98 313.072,1645.44 312.534,1634.79L312.505,1633.71L312.505,1537.88C312.505,1526.74 321.259,1517.63 332.267,1517.08L333.338,1517.05ZM335.422,1631.63L402.088,1631.63L402.088,1539.96L335.422,1539.96L335.422,1631.63ZM920.838,1517.05L991.672,1517.05L992.742,1517.08C1003.75,1517.63 1012.5,1526.74 1012.5,1537.88L1012.5,1633.71L1012.48,1634.79C1011.94,1645.44 1003.4,1653.98 992.742,1654.52L991.672,1654.55L920.838,1654.55L919.767,1654.52C909.113,1653.98 900.572,1645.44 900.034,1634.79L900.005,1633.71L900.005,1537.88C900.005,1526.74 908.759,1517.63 919.767,1517.08L920.838,1517.05ZM922.922,1631.63L989.588,1631.63L989.588,1539.96L922.922,1539.96L922.922,1631.63ZM1116.67,1517.05L1187.51,1517.05L1188.58,1517.08C1199.58,1517.63 1208.34,1526.74 1208.34,1537.88L1208.34,1633.71L1208.31,1634.79C1207.77,1645.44 1199.23,1653.98 1188.58,1654.52L1187.51,1654.55L1116.67,1654.55L1115.6,1654.52C1104.95,1653.98 1096.4,1645.44 1095.87,1634.79L1095.84,1633.71L1095.84,1537.88C1095.84,1526.74 1104.59,1517.63 1115.6,1517.08L1116.67,1517.05ZM1118.76,1631.63L1185.42,1631.63L1185.42,1539.96L1118.76,1539.96L1118.76,1631.63ZM137.505,1737.88L208.338,1737.88L209.409,1737.91C220.417,1738.47 229.172,1747.57 229.172,1758.71L229.172,1854.55L229.142,1855.62C228.605,1866.27 220.063,1874.81 209.409,1875.35L208.338,1875.38L137.505,1875.38L136.434,1875.35C125.78,1874.81 117.238,1866.27 116.701,1855.62L116.672,1854.55L116.672,1758.71C116.672,1747.57 125.426,1738.47 136.434,1737.91L137.505,1737.88ZM139.588,1852.46L206.255,1852.46L206.255,1760.8L139.588,1760.8L139.588,1852.46ZM920.838,1737.88L991.672,1737.88L992.742,1737.91C1003.75,1738.47 1012.5,1747.57 1012.5,1758.71L1012.5,1854.55L1012.48,1855.62C1011.94,1866.27 1003.4,1874.81 992.742,1875.35L991.672,1875.38L920.838,1875.38L919.767,1875.35C909.113,1874.81 900.572,1866.27 900.034,1855.62L900.005,1854.55L900.005,1758.71C900.005,1747.57 908.759,1738.47 919.767,1737.91L920.838,1737.88ZM922.922,1852.46L989.588,1852.46L989.588,1760.8L922.922,1760.8L922.922,1852.46ZM137.505,2179.55L208.338,2179.55L209.409,2179.58C220.417,2180.14 229.172,2189.24 229.172,2200.38L229.172,2296.21L229.142,2297.28C228.605,2307.94 220.063,2316.48 209.409,2317.02L208.338,2317.05L137.505,2317.05L136.434,2317.02C125.78,2316.48 117.238,2307.94 116.701,2297.28L116.672,2296.21L116.672,2200.38C116.672,2189.24 125.426,2180.14 136.434,2179.58L137.505,2179.55ZM139.588,2294.13L206.255,2294.13L206.255,2202.46L139.588,2202.46L139.588,2294.13ZM920.838,2179.55L991.672,2179.55L992.742,2179.58C1003.75,2180.14 1012.5,2189.24 1012.5,2200.38L1012.5,2296.21L1012.48,2297.28C1011.94,2307.94 1003.4,2316.48 992.742,2317.02L991.672,2317.05L920.838,2317.05L919.767,2317.02C909.113,2316.48 900.572,2307.94 900.034,2297.28L900.005,2296.21L900.005,2200.38C900.005,2189.24 908.759,2180.14 919.767,2179.58L920.838,2179.55ZM922.922,2294.13L989.588,2294.13L989.588,2202.46L922.922,2202.46L922.922,2294.13ZM137.505,2400.38L208.338,2400.38L209.409,2400.41C220.417,2400.97 229.172,2410.07 229.172,2421.21L229.172,2517.05L229.142,2518.12C228.605,2528.77 220.063,2537.31 209.409,2537.85L208.338,2537.88L137.505,2537.88L136.434,2537.85C125.78,2537.31 117.238,2528.77 116.701,2518.12L116.672,2517.05L116.672,2421.21C116.672,2410.07 125.426,2400.97 136.434,2400.41L137.505,2400.38ZM139.588,2514.96L206.255,2514.96L206.255,2423.3L139.588,2423.3L139.588,2514.96ZM333.338,2400.38L404.172,2400.38L405.242,2400.41C416.251,2400.97 425.005,2410.07 425.005,2421.21L425.005,2517.05L424.976,2518.12C424.438,2528.77 415.897,2537.31 405.242,2537.85L404.172,2537.88L333.338,2537.88L332.267,2537.85C321.613,2537.31 313.072,2528.77 312.534,2518.12L312.505,2517.05L312.505,2421.21C312.505,2410.07 321.259,2400.97 332.267,2400.41L333.338,2400.38ZM335.422,2514.96L402.088,2514.96L402.088,2423.3L335.422,2423.3L335.422,2514.96ZM920.838,2400.38L991.672,2400.38L992.742,2400.41C1003.75,2400.97 1012.5,2410.07 1012.5,2421.21L1012.5,2517.05L1012.48,2518.12C1011.94,2528.77 1003.4,2537.31 992.742,2537.85L991.672,2537.88L920.838,2537.88L919.767,2537.85C909.113,2537.31 900.572,2528.77 900.034,2518.12L900.005,2517.05L900.005,2421.21C900.005,2410.07 908.759,2400.97 919.767,2400.41L920.838,2400.38ZM922.922,2514.96L989.588,2514.96L989.588,2423.3L922.922,2423.3L922.922,2514.96ZM1116.67,2400.38L1187.51,2400.38L1188.58,2400.41C1199.58,2400.97 1208.34,2410.07 1208.34,2421.21L1208.34,2517.05L1208.31,2518.12C1207.77,2528.77 1199.23,2537.31 1188.58,2537.85L1187.51,2537.88L1116.67,2537.88L1115.6,2537.85C1104.95,2537.31 1096.4,2528.77 1095.87,2518.12L1095.84,2517.05L1095.84,2421.21C1095.84,2410.07 1104.59,2400.97 1115.6,2400.41L1116.67,2400.38ZM1118.76,2514.96L1185.42,2514.96L1185.42,2423.3L1118.76,2423.3L1118.76,2514.96ZM137.505,2621.21L208.338,2621.21L209.409,2621.26C220.417,2621.8 229.172,2630.88 229.172,2642.05L229.172,2737.88L229.142,2738.96C228.605,2749.59 220.063,2758.13 209.409,2758.67L208.338,2758.71L137.505,2758.71L136.434,2758.67C125.78,2758.13 117.238,2749.59 116.701,2738.96L116.672,2737.88L116.672,2642.05C116.672,2630.88 125.426,2621.8 136.434,2621.26L137.505,2621.21ZM139.588,2735.8L206.255,2735.8L206.255,2644.13L139.588,2644.13L139.588,2735.8ZM333.338,2621.21L404.172,2621.21L405.242,2621.26C416.251,2621.8 425.005,2630.88 425.005,2642.05L425.005,2737.88L424.976,2738.96C424.438,2749.59 415.897,2758.13 405.242,2758.67L404.172,2758.71L333.338,2758.71L332.267,2758.67C321.613,2758.13 313.072,2749.59 312.534,2738.96L312.505,2737.88L312.505,2642.05C312.505,2630.88 321.259,2621.8 332.267,2621.26L333.338,2621.21ZM335.422,2735.8L402.088,2735.8L402.088,2644.13L335.422,2644.13L335.422,2735.8ZM529.172,2621.21L600.005,2621.21L601.076,2621.26C612.084,2621.8 620.838,2630.88 620.838,2642.05L620.838,2737.88L620.809,2738.96C620.272,2749.59 611.73,2758.13 601.076,2758.67L600.005,2758.71L529.172,2758.71L528.101,2758.67C517.447,2758.13 508.905,2749.59 508.367,2738.96L508.338,2737.88L508.338,2642.05C508.338,2630.88 517.092,2621.8 528.101,2621.26L529.172,2621.21ZM531.255,2735.8L597.922,2735.8L597.922,2644.13L531.255,2644.13L531.255,2735.8ZM725.005,2621.21L795.838,2621.21L796.909,2621.26C807.917,2621.8 816.672,2630.88 816.672,2642.05L816.672,2737.88L816.642,2738.96C816.105,2749.59 807.563,2758.13 796.909,2758.67L795.838,2758.71L725.005,2758.71L723.934,2758.67C713.28,2758.13 704.738,2749.59 704.201,2738.96L704.172,2737.88L704.172,2642.05C704.172,2630.88 712.926,2621.8 723.934,2621.26L725.005,2621.21ZM727.088,2735.8L793.755,2735.8L793.755,2644.13L727.088,2644.13L727.088,2735.8ZM920.838,2621.21L991.672,2621.21L992.742,2621.26C1003.75,2621.8 1012.5,2630.88 1012.5,2642.05L1012.5,2737.88L1012.48,2738.96C1011.94,2749.59 1003.4,2758.13 992.742,2758.67L991.672,2758.71L920.838,2758.71L919.767,2758.67C909.113,2758.13 900.572,2749.59 900.034,2738.96L900.005,2737.88L900.005,2642.05C900.005,2630.88 908.759,2621.8 919.767,2621.26L920.838,2621.21ZM922.922,2735.8L989.588,2735.8L989.588,2644.13L922.922,2644.13L922.922,2735.8ZM1116.67,2621.21L1187.51,2621.21L1188.58,2621.26C1199.58,2621.8 1208.34,2630.88 1208.34,2642.05L1208.34,2737.88L1208.31,2738.96C1207.77,2749.59 1199.23,2758.13 1188.58,2758.67L1187.51,2758.71L1116.67,2758.71L1115.6,2758.67C1104.95,2758.13 1096.4,2749.59 1095.87,2738.96L1095.84,2737.88L1095.84,2642.05C1095.84,2630.88 1104.59,2621.8 1115.6,2621.26L1116.67,2621.21ZM1118.76,2735.8L1185.42,2735.8L1185.42,2644.13L1118.76,2644.13L1118.76,2735.8ZM1312.51,2621.21L1383.34,2621.21L1384.41,2621.26C1395.42,2621.8 1404.17,2630.88 1404.17,2642.05L1404.17,2737.88L1404.14,2738.96C1403.61,2749.59 1395.06,2758.13 1384.41,2758.67L1383.34,2758.71L1312.51,2758.71L1311.43,2758.67C1300.78,2758.13 1292.24,2749.59 1291.7,2738.96L1291.67,2737.88L1291.67,2642.05C1291.67,2630.88 1300.43,2621.8 1311.43,2621.26L1312.51,2621.21ZM1314.59,2735.8L1381.26,2735.8L1381.26,2644.13L1314.59,2644.13L1314.59,2735.8ZM137.508,2842.05L208.341,2842.05L209.412,2842.09C220.42,2842.63 229.175,2851.71 229.175,2862.88L229.175,2958.71L229.145,2959.8C228.608,2970.42 220.066,2978.96 209.412,2979.51L208.341,2979.55L137.508,2979.55L136.437,2979.51C125.783,2978.96 117.241,2970.42 116.704,2959.8L116.675,2958.71L116.675,2862.88C116.675,2851.71 125.429,2842.63 136.437,2842.09L137.508,2842.05ZM139.591,2956.63L206.258,2956.63L206.258,2864.96L139.591,2864.96L139.591,2956.63ZM333.341,2842.05L404.175,2842.05L405.245,2842.09C416.254,2842.63 425.008,2851.71 425.008,2862.88L425.008,2958.71L424.979,2959.8C424.441,2970.42 415.9,2978.96 405.245,2979.51L404.175,2979.55L333.341,2979.55L332.27,2979.51C321.616,2978.96 313.075,2970.42 312.537,2959.8L312.508,2958.71L312.508,2862.88C312.508,2851.71 321.262,2842.63 332.27,2842.09L333.341,2842.05ZM335.425,2956.63L402.091,2956.63L402.091,2864.96L335.425,2864.96L335.425,2956.63ZM529.175,2842.05L600.008,2842.05L601.079,2842.09C612.087,2842.63 620.841,2851.71 620.841,2862.88L620.841,2958.71L620.812,2959.8C620.275,2970.42 611.733,2978.96 601.079,2979.51L600.008,2979.55L529.175,2979.55L528.104,2979.51C517.45,2978.96 508.908,2970.42 508.37,2959.8L508.341,2958.71L508.341,2862.88C508.341,2851.71 517.095,2842.63 528.104,2842.09L529.175,2842.05ZM531.258,2956.63L597.925,2956.63L597.925,2864.96L531.258,2864.96L531.258,2956.63ZM725.008,2842.05L795.841,2842.05L796.912,2842.09C807.92,2842.63 816.675,2851.71 816.675,2862.88L816.675,2958.71L816.645,2959.8C816.108,2970.42 807.566,2978.96 796.912,2979.51L795.841,2979.55L725.008,2979.55L723.937,2979.51C713.283,2978.96 704.741,2970.42 704.204,2959.8L704.175,2958.71L704.175,2862.88C704.175,2851.71 712.929,2842.63 723.937,2842.09L725.008,2842.05ZM727.091,2956.63L793.758,2956.63L793.758,2864.96L727.091,2864.96L727.091,2956.63ZM920.841,2842.05L991.675,2842.05L992.745,2842.09C1003.75,2842.63 1012.51,2851.71 1012.51,2862.88L1012.51,2958.71L1012.48,2959.8C1011.94,2970.42 1003.4,2978.96 992.745,2979.51L991.675,2979.55L920.841,2979.55L919.77,2979.51C909.116,2978.96 900.575,2970.42 900.037,2959.8L900.008,2958.71L900.008,2862.88C900.008,2851.71 908.762,2842.63 919.77,2842.09L920.841,2842.05ZM922.925,2956.63L989.591,2956.63L989.591,2864.96L922.925,2864.96L922.925,2956.63ZM1116.67,2842.05L1187.51,2842.05L1188.58,2842.09C1199.59,2842.63 1208.34,2851.71 1208.34,2862.88L1208.34,2958.71L1208.31,2959.8C1207.78,2970.42 1199.23,2978.96 1188.58,2979.51L1187.51,2979.55L1116.67,2979.55L1115.6,2979.51C1104.95,2978.96 1096.41,2970.42 1095.87,2959.8L1095.84,2958.71L1095.84,2862.88C1095.84,2851.71 1104.6,2842.63 1115.6,2842.09L1116.67,2842.05ZM1118.76,2956.63L1185.42,2956.63L1185.42,2864.96L1118.76,2864.96L1118.76,2956.63ZM1312.51,2842.05L1383.34,2842.05L1384.41,2842.09C1395.42,2842.63 1404.17,2851.71 1404.17,2862.88L1404.17,2958.71L1404.14,2959.8C1403.61,2970.42 1395.07,2978.96 1384.41,2979.51L1383.34,2979.55L1312.51,2979.55L1311.44,2979.51C1300.78,2978.96 1292.24,2970.42 1291.7,2959.8L1291.67,2958.71L1291.67,2862.88C1291.67,2851.71 1300.43,2842.63 1311.44,2842.09L1312.51,2842.05ZM1314.59,2956.63L1381.26,2956.63L1381.26,2864.96L1314.59,2864.96L1314.59,2956.63ZM1508.34,2842.05L1579.17,2842.05L1580.25,2842.09C1591.26,2842.63 1600.01,2851.71 1600.01,2862.88L1600.01,2958.71L1599.97,2959.8C1599.42,2970.42 1590.88,2978.96 1580.25,2979.51L1579.17,2979.55L1508.34,2979.55L1507.27,2979.51C1496.62,2978.96 1488.08,2970.42 1487.54,2959.8L1487.51,2958.71L1487.51,2862.88C1487.51,2851.71 1496.26,2842.63 1507.27,2842.09L1508.34,2842.05ZM1510.42,2956.63L1577.09,2956.63L1577.09,2864.96L1510.42,2864.96L1510.42,2956.63ZM137.505,3062.88L208.338,3062.88L209.409,3062.92C220.417,3063.46 229.172,3072.55 229.172,3083.71L229.172,3179.55L229.142,3180.63C228.605,3191.26 220.063,3199.8 209.409,3200.34L208.338,3200.38L137.505,3200.38L136.434,3200.34C125.78,3199.8 117.238,3191.26 116.701,3180.63L116.672,3179.55L116.672,3083.71C116.672,3072.55 125.426,3063.46 136.434,3062.92L137.505,3062.88ZM139.588,3177.46L206.255,3177.46L206.255,3085.8L139.588,3085.8L139.588,3177.46ZM333.338,3062.88L404.172,3062.88L405.242,3062.92C416.251,3063.46 425.005,3072.55 425.005,3083.71L425.005,3179.55L424.976,3180.63C424.438,3191.26 415.897,3199.8 405.242,3200.34L404.172,3200.38L333.338,3200.38L332.267,3200.34C321.613,3199.8 313.072,3191.26 312.534,3180.63L312.505,3179.55L312.505,3083.71C312.505,3072.55 321.259,3063.46 332.267,3062.92L333.338,3062.88ZM335.422,3177.46L402.088,3177.46L402.088,3085.8L335.422,3085.8L335.422,3177.46ZM529.172,3062.88L600.005,3062.88L601.076,3062.92C612.084,3063.46 620.838,3072.55 620.838,3083.71L620.838,3179.55L620.809,3180.63C620.272,3191.26 611.73,3199.8 601.076,3200.34L600.005,3200.38L529.172,3200.38L528.101,3200.34C517.447,3199.8 508.905,3191.26 508.367,3180.63L508.338,3179.55L508.338,3083.71C508.338,3072.55 517.092,3063.46 528.101,3062.92L529.172,3062.88ZM531.255,3177.46L597.922,3177.46L597.922,3085.8L531.255,3085.8L531.255,3177.46ZM725.005,3062.88L795.838,3062.88L796.909,3062.92C807.917,3063.46 816.672,3072.55 816.672,3083.71L816.672,3179.55L816.642,3180.63C816.105,3191.26 807.563,3199.8 796.909,3200.34L795.838,3200.38L725.005,3200.38L723.934,3200.34C713.28,3199.8 704.738,3191.26 704.201,3180.63L704.172,3179.55L704.172,3083.71C704.172,3072.55 712.926,3063.46 723.934,3062.92L725.005,3062.88ZM727.088,3177.46L793.755,3177.46L793.755,3085.8L727.088,3085.8L727.088,3177.46ZM920.838,3062.88L991.672,3062.88L992.742,3062.92C1003.75,3063.46 1012.5,3072.55 1012.5,3083.71L1012.5,3179.55L1012.48,3180.63C1011.94,3191.26 1003.4,3199.8 992.742,3200.34L991.672,3200.38L920.838,3200.38L919.767,3200.34C909.113,3199.8 900.572,3191.26 900.034,3180.63L900.005,3179.55L900.005,3083.71C900.005,3072.55 908.759,3063.46 919.767,3062.92L920.838,3062.88ZM922.922,3177.46L989.588,3177.46L989.588,3085.8L922.922,3085.8L922.922,3177.46ZM1116.67,3062.88L1187.51,3062.88L1188.58,3062.92C1199.58,3063.46 1208.34,3072.55 1208.34,3083.71L1208.34,3179.55L1208.31,3180.63C1207.77,3191.26 1199.23,3199.8 1188.58,3200.34L1187.51,3200.38L1116.67,3200.38L1115.6,3200.34C1104.95,3199.8 1096.4,3191.26 1095.87,3180.63L1095.84,3179.55L1095.84,3083.71C1095.84,3072.55 1104.59,3063.46 1115.6,3062.92L1116.67,3062.88ZM1118.76,3177.46L1185.42,3177.46L1185.42,3085.8L1118.76,3085.8L1118.76,3177.46ZM1312.51,3062.88L1383.34,3062.88L1384.41,3062.92C1395.42,3063.46 1404.17,3072.55 1404.17,3083.71L1404.17,3179.55L1404.14,3180.63C1403.61,3191.26 1395.06,3199.8 1384.41,3200.34L1383.34,3200.38L1312.51,3200.38L1311.43,3200.34C1300.78,3199.8 1292.24,3191.26 1291.7,3180.63L1291.67,3179.55L1291.67,3083.71C1291.67,3072.55 1300.43,3063.46 1311.43,3062.92L1312.51,3062.88ZM1314.59,3177.46L1381.26,3177.46L1381.26,3085.8L1314.59,3085.8L1314.59,3177.46ZM1508.34,3062.88L1579.17,3062.88L1580.24,3062.92C1591.26,3063.46 1600.01,3072.55 1600.01,3083.71L1600.01,3179.55L1599.96,3180.63C1599.42,3191.26 1590.88,3199.8 1580.24,3200.34L1579.17,3200.38L1508.34,3200.38L1507.27,3200.34C1496.61,3199.8 1488.07,3191.26 1487.53,3180.63L1487.51,3179.55L1487.51,3083.71C1487.51,3072.55 1496.26,3063.46 1507.27,3062.92L1508.34,3062.88ZM1510.42,3177.46L1577.09,3177.46L1577.09,3085.8L1510.42,3085.8L1510.42,3177.46Z" style="fill:rgb(221,240,255);fill-opacity:0.3;"/>
                    </g>
                </g>
            </g>
        </g>
    </g>
    <g transform="matrix(2.47818,0,0,2.47818,-761.206,-569.819)">
        <text x="373.417px" y="381.143px" style="font-family:'Inter-Bold', 'Inter';font-weight:700;font-size:16.093px;fill:white;">X<tspan x="384.429px 391.731px 401.996px 410.838px 420.302px 423.888px 433.068px 442.186px " y="381.143px 381.143px 381.143px 381.143px 381.143px 381.143px 381.143px 381.143px ">Ray Jam</tspan></text>
    </g>
    <g transform="matrix(0.765687,0,0,0.765687,351.423,249.562)">
        <text x="81.047px" y="141.566px" style="font-family:'Inter-Bold', 'Inter';font-weight:700;font-size:21.667px;fill:white;">June 915</text>
        <text x="130.368px" y="163.232px" style="font-family:'Inter-Bold', 'Inter';font-weight:700;font-size:21.667px;fill:white;">2025</text>
    </g>
</svg>
