<?xml version="1.0" encoding="UTF-8" standalone="no"?><!DOCTYPE svg PUBLIC "-//W3C//DTD SVG 1.1//EN" "http://www.w3.org/Graphics/SVG/1.1/DTD/svg11.dtd"><svg width="100%" height="100%" viewBox="0 0 1254 1173" version="1.1" xmlns="http://www.w3.org/2000/svg" xmlns:xlink="http://www.w3.org/1999/xlink" xml:space="preserve" xmlns:serif="http://www.serif.com/" style="fill-rule:evenodd;clip-rule:evenodd;stroke-linejoin:round;stroke-miterlimit:2;"><rect id="Learning-Jam" serif:id="Learning Jam" x="0" y="0" width="1253.38" height="1172.84" style="fill:none;"/><path d="M1001.17,719.521c30.329,1.912 65.15,2.121 104.344,-0.828c3.668,-0.276 7.002,1.969 8.182,5.36c1.608,3.332 5.662,5.811 10.082,7.997c8.344,4.127 18.629,6.509 24.208,6.089c3.944,-0.297 7.516,2.323 8.418,6.173c-0,0 79.252,338.302 93.971,405.955c1.635,7.516 2.467,12.041 2.508,12.867c0.148,2.936 -1.029,4.523 -1.439,5.112c-1.818,2.609 -4.201,3.458 -6.642,3.443c-163.462,-0.977 -322.602,-20.862 -442.313,-27.987c-77.967,-4.641 -138.846,-4.203 -172.412,11.424c-2.153,1.002 -4.622,1.002 -6.775,0c-33.565,-15.627 -94.445,-16.065 -172.412,-11.424c-119.71,7.125 -278.85,27.01 -442.312,27.987c-2.442,0.015 -4.825,-0.834 -6.642,-3.443c-0.411,-0.589 -1.588,-2.176 -1.44,-5.112c0.042,-0.826 0.873,-5.351 2.509,-12.867c14.719,-67.653 93.971,-405.955 93.971,-405.955c0.902,-3.85 4.474,-6.47 8.417,-6.173c5.58,0.42 15.864,-1.962 24.209,-6.089c4.578,-2.264 8.764,-4.844 10.245,-8.36c1.344,-3.193 4.58,-5.146 8,-4.889c49.374,3.715 91.808,2.419 127.065,-0.98l18.243,14.172c-37.432,4.54 -84.033,7.018 -139.466,3.318c0,-0 -74.5,361.858 -74.5,361.858c29.258,-2.094 114.539,-8.875 189.368,-21.488c55.744,-9.397 144.056,-33.667 223.588,-34.937c48.156,-0.769 93.103,6.991 126.509,30.473c-0,-79.213 -0,-238.223 -0.001,-298.25c-3.634,-8.658 -25.739,-57.086 -71.116,-71.545l-0,-16.699c1.169,0.298 2.308,0.615 3.419,0.951c39.849,12.046 64.351,46.98 75.694,67.431c11.317,-20.436 35.836,-55.472 75.755,-67.54c11.181,-3.38 25.366,-4.855 41.758,-4.794l0,15.815c-14.49,-0.021 -27.072,1.311 -37.112,4.346c-46.206,13.968 -68.676,63.192 -72.343,71.93l-0,298.246c33.405,-23.482 78.352,-31.242 126.508,-30.473c79.532,1.269 167.844,25.54 223.588,34.937c74.829,12.613 160.11,19.394 189.368,21.488c0,-0 -74.5,-361.858 -74.5,-361.858c-36.748,2.452 -69.615,2.19 -98.502,0.412l-0,-16.093Zm-866.348,27.819c-7.812,3.558 -16.646,5.806 -23.608,6.579c-10.634,45.42 -78.966,337.452 -92.523,399.761c-0.138,0.637 -0.273,1.263 -0.403,1.874c159.691,-1.685 314.565,-20.909 431.648,-27.878c78.935,-4.698 141.05,-3.519 176.754,11.403c35.703,-14.922 97.819,-16.101 176.753,-11.403c117.084,6.969 271.957,26.193 431.648,27.878c-0.13,-0.611 -0.265,-1.237 -0.403,-1.874c-13.556,-62.309 -81.889,-354.341 -92.522,-399.761c-6.961,-0.773 -15.793,-3.02 -23.604,-6.576l73.464,356.824c0.504,2.449 -0.161,4.993 -1.8,6.881c-1.639,1.888 -4.064,2.905 -6.559,2.75c-0,-0 -108.735,-6.754 -201.531,-22.396c-55.149,-9.296 -142.494,-33.459 -221.176,-34.716c-50.079,-0.799 -96.646,7.532 -128.041,36.421c-0.121,0.15 -0.249,0.297 -0.384,0.44c-3.03,3.231 -8.114,3.394 -11.346,0.364c-31.401,-29.45 -78.31,-37.921 -128.788,-37.115c-78.682,1.256 -166.027,25.419 -221.176,34.715c-92.796,15.642 -201.531,22.396 -201.531,22.396c-2.495,0.155 -4.92,-0.862 -6.559,-2.75c-1.639,-1.888 -2.304,-4.432 -1.8,-6.88l73.487,-356.937Zm196.779,-37.468c28.26,-5.233 48.11,-10.832 59.258,-13.215c1.572,-0.336 3.141,-0.668 4.706,-0.995l-0,16.407c-0.45,0.096 -0.9,0.191 -1.35,0.288c-9.334,1.995 -24.658,6.192 -45.805,10.572l-16.809,-13.057Zm105.018,-21.923c25.581,-4.185 49.366,-6.765 69.864,-7.046l-0,15.811c-20.292,0.257 -44.134,3.04 -69.864,7.425l-0,-16.19Zm348.598,-4.522c23.823,2.7 50.084,7.307 77.285,13.121c15.652,3.346 48.459,13.032 97.614,19.143l-0,16.182c-50.924,-6.184 -84.864,-16.182 -100.97,-19.625c-26.043,-5.567 -51.168,-10.12 -73.929,-12.855l-0,-15.966Zm-118.03,-410.619c-12.083,-3.496 -20.97,-14.683 -20.97,-27.989c0,-16.114 13.036,-29.121 28.997,-29.121c15.962,-0 28.998,13.007 28.998,29.121c-0,13.306 -8.887,24.493 -20.971,27.989l0,148.858c12.084,3.496 20.971,14.683 20.971,27.988c-0,3.994 -0.801,7.796 -2.248,11.257l43.889,34.093c5.058,-4.298 11.596,-6.887 18.717,-6.887c15.961,0 28.997,13.007 28.997,29.122c0,13.262 -8.828,24.418 -20.85,27.953l-0,46.364c4.373,1.266 8.328,3.539 11.594,6.555l132.83,-103.406c-1.604,-3.615 -2.497,-7.62 -2.497,-11.838c-0,-13.306 8.887,-24.492 20.97,-27.988l-0,-165.058c-12.083,-3.496 -20.97,-14.683 -20.97,-27.988c-0,-13.306 8.887,-24.493 20.97,-27.989l-0,-73.735c-12.083,-3.496 -20.97,-14.683 -20.97,-27.988c-0,-16.115 13.035,-29.122 28.997,-29.122c15.961,-0 28.997,13.007 28.997,29.122c0,13.305 -8.887,24.492 -20.97,27.988l-0,73.735c4.73,1.369 8.97,3.916 12.379,7.307l43.817,-34.037c-2.383,-4.225 -3.745,-9.109 -3.745,-14.318c0,-13.306 8.887,-24.493 20.97,-27.989l0,-72.125c-12.083,-3.495 -20.97,-14.682 -20.97,-27.988c0,-16.115 13.036,-29.122 28.997,-29.122c15.962,0 28.998,13.007 28.998,29.122c-0,13.306 -8.887,24.493 -20.971,27.988l0,72.125c12.084,3.496 20.971,14.683 20.971,27.989c-0,16.115 -13.036,29.121 -28.998,29.121c-4.946,0 -9.611,-1.249 -13.695,-3.452l-47.501,36.899c0.47,2.079 0.718,4.244 0.718,6.469c0,13.305 -8.887,24.492 -20.97,27.988l-0,165.058c12.083,3.496 20.97,14.682 20.97,27.988c0,16.115 -13.036,29.122 -28.997,29.122c-5.986,-0 -11.56,-1.829 -16.189,-4.965l-134.765,104.911c0.652,2.425 1,4.976 1,7.61c0,13.306 -8.887,24.492 -20.97,27.988l-0,158.436c-0,4.431 -3.597,8.027 -8.027,8.027c-4.43,0 -8.027,-3.596 -8.027,-8.027l-0,-158.436c-12.083,-3.496 -20.97,-14.682 -20.97,-27.988c-0,-13.306 8.887,-24.493 20.97,-27.989l-0,-46.294c-12.144,-3.456 -21.091,-14.673 -21.091,-28.023c0,-3.082 0.477,-6.051 1.36,-8.836l-45.001,-34.958c-4.731,3.359 -10.502,5.331 -16.717,5.331c-15.961,-0 -28.997,-13.007 -28.997,-29.122c0,-13.305 8.887,-24.492 20.97,-27.988l0,-148.858Zm276.454,196.991c-7.144,0 -12.943,5.856 -12.943,13.068c-0,7.212 5.799,13.068 12.943,13.068c7.144,-0 12.943,-5.856 12.943,-13.068c0,-7.212 -5.799,-13.068 -12.943,-13.068Zm-268.427,-238.047c-7.143,-0 -12.943,5.855 -12.943,13.067c0,7.213 5.8,13.068 12.943,13.068c7.144,0 12.944,-5.855 12.944,-13.068c-0,-7.212 -5.8,-13.067 -12.944,-13.067Zm357.902,-52.024c-7.143,-0 -12.943,5.855 -12.943,13.068c0,7.212 5.8,13.067 12.943,13.067c7.144,0 12.944,-5.855 12.944,-13.067c-0,-7.213 -5.8,-13.068 -12.944,-13.068Zm0,-101.966c7.144,-0 12.944,-5.856 12.944,-13.068c-0,-7.212 -5.8,-13.068 -12.944,-13.068c-7.143,0 -12.943,5.856 -12.943,13.068c0,7.212 5.8,13.068 12.943,13.068Zm-89.475,67.426c7.144,0 12.943,-5.855 12.943,-13.067c0,-7.213 -5.799,-13.068 -12.943,-13.068c-7.144,-0 -12.943,5.855 -12.943,13.068c-0,7.212 5.799,13.067 12.943,13.067Zm-0,103.577c-7.144,-0 -12.943,5.855 -12.943,13.068c-0,7.212 5.799,13.067 12.943,13.067c7.144,0 12.943,-5.855 12.943,-13.067c0,-7.213 -5.799,-13.068 -12.943,-13.068Zm-268.427,187.822c-7.143,-0 -12.943,5.855 -12.943,13.067c0,7.213 5.8,13.068 12.943,13.068c7.144,0 12.944,-5.855 12.944,-13.068c-0,-7.212 -5.8,-13.067 -12.944,-13.067Zm89.476,169.89c-7.144,0 -12.943,5.856 -12.943,13.068c-0,7.212 5.799,13.068 12.943,13.068c7.144,-0 12.943,-5.856 12.943,-13.068c0,-7.212 -5.799,-13.068 -12.943,-13.068Zm-11.941,-94.566c-0.721,1.628 -1.123,3.431 -1.123,5.328c0,7.212 5.8,13.068 12.944,13.068c7.143,-0 12.943,-5.856 12.943,-13.068c0,-7.212 -5.8,-13.068 -12.943,-13.068c-2.997,0 -5.757,1.031 -7.952,2.76l-3.869,4.98Zm-613.111,-316.034c-12.083,-3.496 -20.97,-14.683 -20.97,-27.989c-0,-16.114 13.036,-29.121 28.997,-29.121c15.962,-0 28.998,13.007 28.998,29.121c-0,13.306 -8.888,24.493 -20.971,27.989l0,154.372c12.083,3.496 20.971,14.683 20.971,27.989c-0,4.015 -0.81,7.837 -2.272,11.314l40.557,31.504c3.66,-4.364 8.57,-7.632 14.166,-9.251l-0,-66.052c-12.083,-3.496 -20.971,-14.682 -20.971,-27.988c0,-16.115 13.036,-29.122 28.998,-29.122c15.961,0 28.997,13.007 28.997,29.122c0,13.306 -8.887,24.492 -20.97,27.988l-0,66.052c12.083,3.496 20.97,14.683 20.97,27.988c0,13.306 -8.887,24.493 -20.97,27.989l-0,165.337c12.083,3.496 20.97,14.683 20.97,27.988c0,4.208 -0.889,8.203 -2.486,11.811l132.807,103.164c3.268,-3.021 7.227,-5.298 11.606,-6.565l-0,-132.497c-12.084,-3.496 -20.971,-14.683 -20.971,-27.989c0,-16.115 13.036,-29.121 28.998,-29.121c15.961,-0 28.997,13.006 28.997,29.121c0,13.306 -8.887,24.493 -20.97,27.989l-0,132.497c12.083,3.496 20.97,14.683 20.97,27.989c0,13.305 -8.887,24.492 -20.97,27.988l-0,148.798c-0,4.431 -3.597,8.027 -8.027,8.027c-4.431,0 -8.027,-3.596 -8.027,-8.027l-0,-148.798c-12.084,-3.496 -20.971,-14.683 -20.971,-27.988c0,-2.629 0.347,-5.175 0.997,-7.595l-134.737,-104.664c-4.634,3.146 -10.217,4.982 -16.213,4.982c-15.962,-0 -28.998,-13.007 -28.998,-29.122c0,-13.305 8.888,-24.492 20.971,-27.988l-0,-165.337c-12.083,-3.496 -20.971,-14.683 -20.971,-27.989c0,-1.195 0.072,-2.373 0.211,-3.53l-44.024,-34.198c-4.721,3.337 -10.473,5.294 -16.665,5.294c-15.961,0 -28.997,-13.006 -28.997,-29.121c-0,-13.306 8.887,-24.493 20.97,-27.989l0,-154.372Zm8.027,169.293c-7.143,0 -12.943,5.856 -12.943,13.068c-0,7.212 5.8,13.067 12.943,13.067c7.144,0 12.944,-5.855 12.944,-13.067c-0,-7.212 -5.8,-13.068 -12.944,-13.068Zm0,-184.214c7.144,0 12.944,-5.855 12.944,-13.068c-0,-7.212 -5.8,-13.067 -12.944,-13.067c-7.143,-0 -12.943,5.855 -12.943,13.067c-0,7.213 5.8,13.068 12.943,13.068Zm268.427,441.143c7.143,-0 12.943,-5.855 12.943,-13.068c0,-7.212 -5.8,-13.067 -12.943,-13.067c-7.144,-0 -12.944,5.855 -12.944,13.067c0,7.213 5.8,13.068 12.944,13.068Zm-0,162.339c-7.144,-0 -12.944,5.855 -12.944,13.068c0,7.212 5.8,13.067 12.944,13.067c7.143,0 12.943,-5.855 12.943,-13.067c0,-7.213 -5.8,-13.068 -12.943,-13.068Zm-178.951,-479.741c-7.144,0 -12.944,5.856 -12.944,13.068c0,7.212 5.8,13.068 12.944,13.068c7.143,-0 12.943,-5.856 12.943,-13.068c0,-7.212 -5.8,-13.068 -12.943,-13.068Zm-0,122.029c-7.144,-0 -12.944,5.855 -12.944,13.067c0,7.213 5.8,13.068 12.944,13.068c7.143,0 12.943,-5.855 12.943,-13.068c0,-7.212 -5.8,-13.067 -12.943,-13.067Zm-0,221.314c-7.144,-0 -12.944,5.855 -12.944,13.067c0,7.213 5.8,13.068 12.944,13.068c7.143,0 12.943,-5.855 12.943,-13.068c0,-7.212 -5.8,-13.067 -12.943,-13.067Zm159.581,-590.93c-12.083,-3.496 -20.97,-14.683 -20.97,-27.988c0,-16.115 13.036,-29.122 28.997,-29.122c15.962,-0 28.998,13.007 28.998,29.122c-0,13.305 -8.887,24.492 -20.971,27.988l0,244.932c12.084,3.496 20.971,14.683 20.971,27.989c-0,3.739 -0.702,7.312 -1.98,10.593l76.917,59.749c5.002,-4.102 11.388,-6.559 18.326,-6.559c15.961,-0 28.997,13.006 28.997,29.121c0,13.306 -8.887,24.493 -20.97,27.989l-0,345.541c-0,4.43 -3.597,8.027 -8.027,8.027c-4.43,-0 -8.027,-3.597 -8.027,-8.027l-0,-345.541c-12.083,-3.496 -20.97,-14.683 -20.97,-27.989c-0,-3.268 0.536,-6.409 1.524,-9.339l-77.493,-60.196c-4.835,3.615 -10.824,5.752 -17.295,5.752c-15.961,0 -28.997,-13.006 -28.997,-29.121c0,-13.306 8.887,-24.493 20.97,-27.989l0,-244.932Zm130.288,378.893c7.144,-0 12.943,-5.855 12.943,-13.068c0,-7.212 -5.799,-13.067 -12.943,-13.067c-7.144,-0 -12.943,5.855 -12.943,13.067c-0,7.213 5.799,13.068 12.943,13.068Zm-122.261,-393.814c7.144,0 12.944,-5.855 12.944,-13.067c-0,-7.213 -5.8,-13.068 -12.944,-13.068c-7.143,-0 -12.943,5.855 -12.943,13.068c0,7.212 5.8,13.067 12.943,13.067Zm0,274.774c-7.143,-0 -12.943,5.855 -12.943,13.068c0,7.212 5.8,13.067 12.943,13.067c7.144,0 12.944,-5.855 12.944,-13.067c-0,-7.213 -5.8,-13.068 -12.944,-13.068Zm-202.4,513.862c-12.083,-3.495 -20.97,-14.682 -20.97,-27.988c-0,-16.115 13.036,-29.122 28.997,-29.122c15.962,0 28.998,13.007 28.998,29.122c-0,13.306 -8.888,24.493 -20.971,27.988l0,45.099c0,4.431 -3.597,8.027 -8.027,8.027c-4.43,0 -8.027,-3.596 -8.027,-8.027l0,-45.099Zm8.027,-41.056c-7.143,0 -12.943,5.856 -12.943,13.068c-0,7.212 5.8,13.068 12.943,13.068c7.144,-0 12.944,-5.856 12.944,-13.068c-0,-7.212 -5.8,-13.068 -12.944,-13.068Zm762.24,-90.419c-12.084,-3.495 -20.971,-14.682 -20.971,-27.988c0,-16.115 13.036,-29.122 28.998,-29.122c15.961,0 28.997,13.007 28.997,29.122c-0,13.306 -8.887,24.493 -20.97,27.988l-0,155.679c-0,4.431 -3.597,8.027 -8.027,8.027c-4.431,0 -8.027,-3.596 -8.027,-8.027l-0,-155.679Zm8.027,-41.056c-7.144,0 -12.944,5.856 -12.944,13.068c0,7.212 5.8,13.068 12.944,13.068c7.143,-0 12.943,-5.856 12.943,-13.068c0,-7.212 -5.8,-13.068 -12.943,-13.068Zm-157.26,237.646c-11.834,-3.652 -20.484,-14.716 -20.484,-27.843c0,-16.115 13.036,-29.122 28.997,-29.122c15.962,0 28.998,13.007 28.998,29.122c-0,13.484 -9.126,24.791 -21.457,28.124l0,61.254c0,4.43 -3.596,8.027 -8.027,8.027c-4.43,0 -8.027,-3.597 -8.027,-8.027l0,-61.535Zm8.513,-40.911c-7.143,0 -12.943,5.856 -12.943,13.068c0,7.212 5.8,13.068 12.943,13.068c7.144,-0 12.944,-5.856 12.944,-13.068c-0,-7.212 -5.8,-13.068 -12.944,-13.068Z" style="fill:#fff;"/></svg>