<?xml version="1.0" encoding="UTF-8" standalone="no"?><!DOCTYPE svg PUBLIC "-//W3C//DTD SVG 1.1//EN" "http://www.w3.org/Graphics/SVG/1.1/DTD/svg11.dtd"><svg width="100%" height="100%" viewBox="0 0 301 229" version="1.1" xmlns="http://www.w3.org/2000/svg" xmlns:xlink="http://www.w3.org/1999/xlink" xml:space="preserve" xmlns:serif="http://www.serif.com/" style="fill-rule:evenodd;clip-rule:evenodd;stroke-linejoin:round;stroke-miterlimit:2;"><rect id="presentation" x="-0" y="0" width="300.716" height="228.578" style="fill:none;"/><path d="M124.979,14.95l175.159,0l0,152.429l-137.896,0c-1.49,-7.262 -3.898,-14.19 -7.097,-20.659l124.334,-0l-0,-111.11l-143.514,-0c-2.302,-7.632 -6.074,-14.628 -10.986,-20.66Zm-119.77,196.191c-2.997,-8.252 -4.631,-17.155 -4.631,-26.437c0,-42.797 34.745,-77.542 77.541,-77.542c42.796,0 77.541,34.745 77.541,77.542c0,9.282 -1.634,18.185 -4.631,26.437c-22.091,10.548 -46.816,16.455 -72.91,16.455c-26.094,0 -50.819,-5.907 -72.91,-16.455Zm15.522,-13.612c17.693,7.296 37.075,11.317 57.388,11.317c20.314,0 39.695,-4.021 57.389,-11.317c0.919,-4.129 1.402,-8.421 1.402,-12.825c0,-32.448 -26.343,-58.792 -58.791,-58.792c-32.448,0 -58.791,26.344 -58.791,58.792c0,4.404 0.484,8.696 1.403,12.825Zm57.388,-196.547c28.741,-0 52.075,23.334 52.075,52.074c-0,28.741 -23.334,52.075 -52.075,52.075c-28.74,-0 -52.074,-23.334 -52.074,-52.075c-0,-28.74 23.334,-52.074 52.074,-52.074Zm0,18.75c-18.392,-0 -33.324,14.932 -33.324,33.324c-0,18.392 14.932,33.325 33.324,33.325c18.392,-0 33.325,-14.933 33.325,-33.325c-0,-18.392 -14.933,-33.324 -33.325,-33.324Z"/></svg>