<svg width="461" height="280" viewBox="0 0 461 280" fill="none" xmlns="http://www.w3.org/2000/svg">
<path fill-rule="evenodd" clip-rule="evenodd" d="M22 0C9.84974 0 0 9.84974 0 22V258C0 270.15 9.84973 280 22 280H439C451.15 280 461 270.15 461 258V22C461 9.84974 451.15 0 439 0H22ZM36 14C23.8497 14 14 23.8497 14 36V236H447V36C447 23.8497 437.15 14 425 14H36Z" fill="white"/>
<circle cx="56.5" cy="200.5" r="22.5" fill="white"/>
<circle cx="101.5" cy="147.5" r="22.5" fill="white"/>
<circle cx="183.5" cy="188.5" r="22.5" fill="white"/>
<circle cx="183.5" cy="97.5" r="22.5" fill="white"/>
<circle cx="83.5" cy="52.5" r="22.5" fill="white"/>
<line x1="83.9476" y1="51.4415" x2="101.948" y2="146.442" stroke="white" stroke-width="6"/>
<line x1="53.7131" y1="198.058" x2="98.7131" y2="145.058" stroke="white" stroke-width="6"/>
<line x1="183.59" y1="99.544" x2="103.59" y2="149.544" stroke="white" stroke-width="6"/>
<line x1="181.645" y1="190.677" x2="100.645" y2="149.677" stroke="white" stroke-width="6"/>
<rect x="421" y="36" width="21" height="54" rx="5" transform="rotate(90 421 36)" fill="white"/>
<rect x="361" y="65" width="21" height="54" rx="5" transform="rotate(90 361 65)" fill="white"/>
<rect x="421" y="65" width="21" height="99" rx="5" transform="rotate(90 421 65)" fill="white"/>
<rect x="361" y="94" width="21" height="99" rx="5" transform="rotate(90 361 94)" fill="white"/>
<rect x="421" y="94" width="21" height="69" rx="5" transform="rotate(90 421 94)" fill="white"/>
<rect x="361" y="123" width="21" height="69" rx="5" transform="rotate(90 361 123)" fill="white"/>
<rect x="421" y="123" width="21" height="120" rx="5" transform="rotate(90 421 123)" fill="white"/>
<rect x="361" y="152" width="21" height="120" rx="5" transform="rotate(90 361 152)" fill="white"/>
<rect x="421" y="152" width="21" height="40" rx="5" transform="rotate(90 421 152)" fill="white"/>
<rect x="361" y="181" width="21" height="40" rx="5" transform="rotate(90 361 181)" fill="white"/>
</svg>
