<?xml version="1.0" encoding="utf-8"?>
<!-- Generator: Adobe Illustrator 19.2.1, SVG Export Plug-In . SVG Version: 6.00 Build 0)  -->
<svg version="1.1" id="Layer_1" xmlns="http://www.w3.org/2000/svg" xmlns:xlink="http://www.w3.org/1999/xlink" x="0px" y="0px"
	 width="512" height="512" viewBox="0 0 512 512" style="enable-background:new 0 0 512 512;opacity:0.6;" xml:space="preserve">
<path d="M54.5,512c-1-8.2-1.5-16.6-1.5-25c0-42.8,13.1-83.7,38-118.3c12-16.7,26.4-31.4,42.7-43.8c16.6-12.5,34.8-22.4,54.3-29.3
	c7.1-2.5,12.2-8.8,13.1-16.3c0.9-7.5-2.4-14.9-8.6-19.1c-31.4-21.2-50.2-56.5-50.2-94.3c0-30.4,11.8-58.9,33.3-80.4
	c21.5-21.5,50-33.3,80.4-33.3c30.4,0,58.9,11.8,80.4,33.3c21.5,21.5,33.3,50,33.3,80.4c0,37.8-18.8,73.1-50.2,94.3
	c-6.3,4.2-9.6,11.6-8.6,19.1c0.9,7.5,6,13.8,13.1,16.3c19.5,6.9,37.7,16.8,54.3,29.3c16.4,12.4,30.8,27.1,42.7,43.8
	c24.9,34.6,38,75.5,38,118.3c0,8.4-0.5,16.7-1.5,25h20.1c0.9-8.2,1.4-16.5,1.4-25c0-97-61.9-179.5-148.3-210.2
	c35.6-24,59-64.7,59-110.9c0-73.8-59.9-133.7-133.7-133.7S122.3,92.1,122.3,166c0,46.2,23.4,86.9,59,110.9
	C94.8,307.6,33,390.1,33,487c0,8.4,0.5,16.8,1.4,25H54.5z"/>
</svg>
