<?xml version="1.0" encoding="utf-8"?>
<!-- Generator: Adobe Illustrator 19.2.1, SVG Export Plug-In . SVG Version: 6.00 Build 0)  -->
<svg version="1.1" id="Layer_1" xmlns="http://www.w3.org/2000/svg" xmlns:xlink="http://www.w3.org/1999/xlink" x="0px" y="0px"
	 viewBox="0 0 1763.9 512" enable-background="new 0 0 1763.9 512" xml:space="preserve">
<path d="M244.4,94.5c11,1.9,22.1,3.2,32.8,5.9c75.9,18.9,132.4,82,143.3,159.6c14.7,104.2-56.4,200.6-160.3,217.2
	c-8.2,1.3-16.6,2.1-24.9,2.2c-29.8,0.3-59.7,0.1-89.5,0.1c-1,0-2-0.1-3.6-0.2c0-2.1,0-4,0-5.9c0-61.7,0-123.3,0.1-185
	c0-44.4,29.7-80.1,73.3-88.2c47.8-9,96,26.4,101.8,74.7c5.8,48.7-24.7,90.4-73,99.1c-17.3,3.1-34.2,0.5-50.3-6.7
	c-1.2-0.5-2.4-1.1-3.6-1.6c-0.3-0.1-0.6,0.1-1.5,0.2c0,3.4,0,6.8,0,10.3c0,15.5,0.2,31-0.1,46.5c-0.1,4.3,1.5,5.7,5.3,6.7
	c75.9,19.9,155.6-25.8,177-101.6c23.5-83.2-27.9-167.4-112.7-184.8c-79.1-16.2-159,38.5-172.1,117.9c-1.5,9.3-2.3,18.9-2.3,28.3
	c-0.2,61.3-0.1,122.7-0.1,184c0,2,0,3.9,0,6.1c-15.3,0-30.1,0-45.6,0c0-1.9,0-3.8,0-5.7c0-62.5,0-125,0-187.5
	c0-92.8,67.8-173.1,159.3-188.7c6.2-1.1,12.5-1.9,18.7-2.8C225.8,94.5,235.1,94.5,244.4,94.5z"/>
<path d="M1718.4,366.5c-10.3,0-20.6,0-31.7,0c0-7.7,0-15.3,0-22.9c-0.1-29.5,0-59-0.3-88.5c-0.3-23.1-17.7-43.9-40.3-48.6
	c-31-6.5-62.5,18.6-62.6,50.4c-0.1,34.5,0.1,69,0.2,103.5c0,2,0,3.9,0,6.2c-10.5,0-20.4,0-30.8,0c0-60.9,0-121.8,0-183.2
	c9.9,0,19.9,0,30.5,0c0,3,0,6.1,0,10.1c10-8.9,20.6-14.4,32.6-17.4c47.2-11.9,96.6,22.8,101.4,71.2c0.1,1.4,0.6,2.9,0.9,4.3
	C1718.4,289.8,1718.4,328.2,1718.4,366.5z"/>
<path d="M520,346.2c0,30.3,0,60.6,0,91.2c-10.3,0-20.2,0-30.4,0c-0.1-1.3-0.3-2.6-0.3-3.9c0-53.2-0.2-106.3,0.1-159.5
	c0.2-48.1,34-88.7,81-98.2c56.5-11.4,111.8,28.3,119.2,85.5c7.3,56.5-31.5,107-88,113.8c-29.5,3.5-55-6.6-77-26.1
	c-1.2-1-1.8-2.7-2.7-4.1C521.3,345.3,520.7,345.7,520,346.2z M589.9,344.9c38.6,0,69.7-31.1,69.8-69.9c0-38.7-31.1-70-69.7-70
	c-38.5,0-69.7,31.2-69.7,70C520.2,313.7,551.2,344.8,589.9,344.9z"/>
<path d="M1295.8,206.7c-43.2,36.3-86.4,72.7-129.5,109c9.4,16.1,37.2,34.1,69.4,27.5c18.1-3.7,32.6-13.2,43.3-28.2
	c10.6-14.9,14.4-31.6,12.3-50c10.4,0,20.4,0,30.3,0c10.9,34.1-20.5,86.5-61.7,103.1c-49,19.8-105.2-1.8-128.4-49.4
	c-23.1-47.2-5.7-104.7,39.8-131.4C1218.9,159.5,1272.3,177.9,1295.8,206.7z M1153.1,286.3c31.1-26.1,61.3-51.6,92.3-77.6
	c-27.7-8.5-51.4-3.5-71.5,15.4C1156.3,240.6,1150.2,261.4,1153.1,286.3z"/>
<path d="M902.2,366.7c-10.4,0-20.2,0-30.5,0c0-6.1,0-12,0-18.9c-1.9,1.5-3,2.3-4.1,3.2c-30.1,24.8-64.1,31.7-100.6,18.2
	c-36.6-13.6-58.7-40.8-64.7-79.6c-8.6-55.1,29.5-106.5,84.4-114.8c60.1-9.1,115,37.4,115.6,98.2c0.3,30,0.1,60,0.1,90
	C902.4,364.1,902.3,365.2,902.2,366.7z M732,274.7c0.1,38.7,31.3,69.9,69.9,69.8c38.4,0,69.8-31.4,69.7-69.5
	c-0.1-39.2-31.1-70.5-69.8-70.4C763.2,204.6,731.9,236.1,732,274.7z"/>
<path d="M1434.3,375.5c-55.5-0.1-100.6-45.4-100.5-101c0.1-55.8,45.6-101.1,101.2-100.9c55.4,0.2,100.5,45.9,100.3,101.3
	C1535,330.7,1489.8,375.6,1434.3,375.5z M1434.2,344.5c38.6,0.1,70-31.1,70.1-69.7c0.1-38.5-31.2-70.2-69.6-70.3
	c-38.5-0.1-70,31.2-70.2,69.7C1364.4,312.9,1395.8,344.5,1434.2,344.5z"/>
<path d="M912.2,213.9c0-10.6,0-20.4,0-30.9c5.9,0,11.6,0,18,0c0-24.1,0-47.5,0-71.1c10.4,0,20.2,0,30.6,0c0,23.4,0,46.8,0,70.9
	c15.8,0,31.1,0,46.4,0c0,10.6,0,20.5,0,31c-15.3,0-30.4,0-46.1,0c0,51.1,0,101.7,0,152.7c-10.5,0-20.3,0-30.9,0
	c0-50.7,0-101.3,0-152.5C923.9,213.9,918.3,213.9,912.2,213.9z"/>
<path d="M1053.3,366.6c-10.4,0-20.1,0-30.4,0c0-61.1,0-122,0-183.3c9.6,0,19.5,0,30,0c0,8.7,0,17.3,0,27.1
	c21.4-19,44.9-28.9,73.2-28c0,9.6,0,18.9,0,28.2c0,3.6-2.9,2.6-4.8,2.6c-18.3,0.5-34.1,7.2-47.1,20c-13.5,13.3-20.7,29.7-20.8,48.7
	c-0.2,26.2-0.1,52.3-0.1,78.5C1053.3,362.3,1053.3,364.1,1053.3,366.6z"/>
</svg>
