<?xml version="1.0" encoding="UTF-8" standalone="no"?>
<!DOCTYPE svg PUBLIC "-//W3C//DTD SVG 1.1//EN" "http://www.w3.org/Graphics/SVG/1.1/DTD/svg11.dtd">
<svg width="100%" height="100%" viewBox="0 0 500 293" version="1.1" xmlns="http://www.w3.org/2000/svg" xmlns:xlink="http://www.w3.org/1999/xlink" xml:space="preserve" xmlns:serif="http://www.serif.com/" style="fill-rule:evenodd;clip-rule:evenodd;stroke-linecap:round;stroke-linejoin:round;stroke-miterlimit:1.5;">
    <g transform="matrix(1.07579,0,0,1.21908,0,-52)">
        <g id="Layer1">
            <rect x="0" y="0" width="475" height="283"/>
            <path d="M475,0L0,0L0,283L475,283L475,0ZM466.634,7.383L466.634,275.617C466.634,275.617 8.366,275.617 8.366,275.617C8.366,235.821 8.366,47.18 8.366,7.383C8.366,7.383 466.634,7.383 466.634,7.383L466.634,7.383Z"/>
        </g>
    </g>
    <g id="New-in-motion" serif:id="New in motion" transform="matrix(0.996745,-0.0806156,0.0806156,0.996745,-16.5239,16.7232)">
        <g id="Handlebars" transform="matrix(1,0,0,1,-100,-167)">
            <path d="M404,196L411,180L373,180" style="fill:none;stroke:white;stroke-width:7.1px;"/>
        </g>
        <path d="M120,42L172,42L180,50" style="fill:none;stroke:white;stroke-width:7.1px;"/>
        <g id="Frame" transform="matrix(1,0,0,1,-100,-167)">
            <path d="M314,390L445,274" style="fill:none;stroke:white;stroke-width:7.1px;"/>
            <g transform="matrix(0.991264,-0.0162881,-0.0162881,0.969629,6.72164,12.533)">
                <path d="M500,375L404,196" style="fill:none;stroke:white;stroke-width:7.36px;stroke-linecap:butt;"/>
            </g>
            <path d="M266,259L437,259" style="fill:none;stroke:white;stroke-width:7.1px;"/>
            <path d="M314,390L248,209" style="fill:none;stroke:white;stroke-width:7.1px;stroke-linecap:butt;"/>
            <g transform="matrix(0.75179,-0.0281133,-0.0280082,0.996825,88.8611,10.066)">
                <path d="M143.044,371.322L314,390" style="fill:none;stroke:white;stroke-width:8.3px;"/>
            </g>
            <g transform="matrix(0.977011,0.0293049,0.0293049,0.962644,-1.47484,1.88002)">
                <path d="M175,375L266,259" style="fill:none;stroke:white;stroke-width:7.11px;"/>
            </g>
        </g>
        <g transform="matrix(0.831521,-0.519366,0.519366,0.831521,30.4542,33.6688)">
            <g id="Wheel">
                <path d="M302,283.911C302,278.441 297.559,274 292.089,274L158.911,274C153.441,274 149,278.441 149,283.911L149,417.089C149,422.559 153.441,427 158.911,427L292.089,427C297.559,427 302,422.559 302,417.089L302,283.911ZM294.758,283.911L294.758,417.089C294.758,418.562 293.562,419.758 292.089,419.758L158.911,419.758C157.438,419.758 156.242,418.562 156.242,417.089L156.242,283.911C156.242,282.438 157.438,281.242 158.911,281.242C158.911,281.242 292.089,281.242 292.089,281.242C293.562,281.242 294.758,282.438 294.758,283.911Z" style="fill:white;"/>
            </g>
        </g>
        <g transform="matrix(0.87258,1.03475,-1.03475,0.87258,142.799,-269.174)">
            <path d="M400,75.342C400,74.601 399.399,74 398.658,74L385.342,74C384.601,74 384,74.601 384,75.342L384,88.658C384,89.399 384.601,90 385.342,90L398.658,90C399.399,90 400,89.399 400,88.658L400,75.342ZM389.245,84.755L394.755,84.755L394.755,79.245L389.245,79.245L389.245,84.755Z" style="fill:white;"/>
        </g>
        <g transform="matrix(0.977201,0.0790349,-0.0790349,0.977201,-117.657,-152.331)">
            <g id="Wheel1" serif:id="Wheel">
                <path d="M302,283.911C302,278.441 297.559,274 292.089,274L158.911,274C153.441,274 149,278.441 149,283.911L149,417.089C149,422.559 153.441,427 158.911,427L292.089,427C297.559,427 302,422.559 302,417.089L302,283.911ZM294.758,283.911L294.758,417.089C294.758,418.562 293.562,419.758 292.089,419.758L158.911,419.758C157.438,419.758 156.242,418.562 156.242,417.089L156.242,283.911C156.242,282.438 157.438,281.242 158.911,281.242L292.089,281.242C293.562,281.242 294.758,282.438 294.758,283.911Z" style="fill:white;"/>
            </g>
        </g>
        <g transform="matrix(0.87258,1.03475,-1.03475,0.87258,-182.202,-269.174)">
            <path d="M400,75.342C400,74.601 399.399,74 398.658,74L385.342,74C384.601,74 384,74.601 384,75.342L384,88.658C384,89.399 384.601,90 385.342,90L398.658,90C399.399,90 400,89.399 400,88.658L400,75.342ZM389.245,84.755L394.755,84.755L394.755,79.245L389.245,79.245L389.245,84.755Z" style="fill:white;"/>
        </g>
    </g>
</svg>
