<?xml version="1.0" encoding="UTF-8" standalone="no"?>
<!DOCTYPE svg PUBLIC "-//W3C//DTD SVG 1.1//EN" "http://www.w3.org/Graphics/SVG/1.1/DTD/svg11.dtd">
<svg width="100%" height="100%" viewBox="0 0 461 280" version="1.1" xmlns="http://www.w3.org/2000/svg" xmlns:xlink="http://www.w3.org/1999/xlink" xml:space="preserve" xmlns:serif="http://www.serif.com/" style="fill-rule:evenodd;clip-rule:evenodd;">
    <g id="Layer1">
    </g>
    <circle cx="56.5" cy="200.5" r="22.5" style="fill:white;"/>
    <circle cx="101.5" cy="147.5" r="22.5" style="fill:white;"/>
    <circle cx="183.5" cy="188.5" r="22.5" style="fill:white;"/>
    <circle cx="183.5" cy="97.5" r="22.5" style="fill:white;"/>
    <circle cx="83.5" cy="52.5" r="22.5" style="fill:white;"/>
    <path d="M83.948,51.442L101.948,146.442" style="fill:none;fill-rule:nonzero;stroke:white;stroke-width:6px;"/>
    <path d="M53.713,198.058L98.713,145.058" style="fill:none;fill-rule:nonzero;stroke:white;stroke-width:6px;"/>
    <path d="M183.59,99.544L103.59,149.544" style="fill:none;fill-rule:nonzero;stroke:white;stroke-width:6px;"/>
    <path d="M181.645,190.677L100.645,149.677" style="fill:none;fill-rule:nonzero;stroke:white;stroke-width:6px;"/>
    <g transform="matrix(-3.82857e-16,1,-1,-3.82857e-16,457,-385)">
        <path d="M442,41C442,38.24 439.76,36 437,36L426,36C423.24,36 421,38.24 421,41L421,85C421,87.76 423.24,90 426,90L437,90C439.76,90 442,87.76 442,85L442,41Z" style="fill:white;"/>
    </g>
    <g transform="matrix(-3.82857e-16,1,-1,-3.82857e-16,426,-296)">
        <path d="M382,70C382,67.24 379.76,65 377,65L366,65C363.24,65 361,67.24 361,70L361,114C361,116.76 363.24,119 366,119L377,119C379.76,119 382,116.76 382,114L382,70Z" style="fill:white;"/>
    </g>
    <g transform="matrix(-3.82857e-16,1,-1,-3.82857e-16,486,-356)">
        <path d="M442,70C442,67.24 439.76,65 437,65L426,65C423.24,65 421,67.24 421,70L421,159C421,161.76 423.24,164 426,164L437,164C439.76,164 442,161.76 442,159L442,70Z" style="fill:white;"/>
    </g>
    <g transform="matrix(-3.82857e-16,1,-1,-3.82857e-16,455,-267)">
        <path d="M382,99C382,96.24 379.76,94 377,94L366,94C363.24,94 361,96.24 361,99L361,188C361,190.76 363.24,193 366,193L377,193C379.76,193 382,190.76 382,188L382,99Z" style="fill:white;"/>
    </g>
    <g transform="matrix(-3.82857e-16,1,-1,-3.82857e-16,515,-327)">
        <path d="M442,99C442,96.24 439.76,94 437,94L426,94C423.24,94 421,96.24 421,99L421,158C421,160.76 423.24,163 426,163L437,163C439.76,163 442,160.76 442,158L442,99Z" style="fill:white;"/>
    </g>
    <g transform="matrix(-3.82857e-16,1,-1,-3.82857e-16,484,-238)">
        <path d="M382,128C382,125.24 379.76,123 377,123L366,123C363.24,123 361,125.24 361,128L361,187C361,189.76 363.24,192 366,192L377,192C379.76,192 382,189.76 382,187L382,128Z" style="fill:white;"/>
    </g>
    <g transform="matrix(-3.82857e-16,1,-1,-3.82857e-16,544,-298)">
        <path d="M442,128C442,125.24 439.76,123 437,123L426,123C423.24,123 421,125.24 421,128L421,238C421,240.76 423.24,243 426,243L437,243C439.76,243 442,240.76 442,238L442,128Z" style="fill:white;"/>
    </g>
    <g transform="matrix(-3.82857e-16,1,-1,-3.82857e-16,513,-209)">
        <path d="M382,157C382,154.24 379.76,152 377,152L366,152C363.24,152 361,154.24 361,157L361,267C361,269.76 363.24,272 366,272L377,272C379.76,272 382,269.76 382,267L382,157Z" style="fill:white;"/>
    </g>
    <g transform="matrix(-3.82857e-16,1,-1,-3.82857e-16,573,-269)">
        <path d="M442,157C442,154.24 439.76,152 437,152L426,152C423.24,152 421,154.24 421,157L421,187C421,189.76 423.24,192 426,192L437,192C439.76,192 442,189.76 442,187L442,157Z" style="fill:white;"/>
    </g>
    <g transform="matrix(-3.82857e-16,1,-1,-3.82857e-16,542,-180)">
        <path d="M382,186C382,183.24 379.76,181 377,181L366,181C363.24,181 361,183.24 361,186L361,216C361,218.76 363.24,221 366,221L377,221C379.76,221 382,218.76 382,216L382,186Z" style="fill:white;"/>
    </g>
    <path d="M461,21.739C461,9.741 451.259,0 439.261,0L21.739,0C9.741,0 0,9.741 0,21.739L0,258.261C0,270.259 9.741,280 21.739,280L439.261,280C451.259,280 461,270.259 461,258.261L461,21.739ZM447,21.739L447,258.261C447,262.532 443.532,266 439.261,266C439.261,266 21.739,266 21.739,266C17.468,266 14,262.532 14,258.261L14,21.739C14,17.468 17.468,14 21.739,14L439.261,14C443.532,14 447,17.468 447,21.739Z" style="fill:white;"/>
    <g transform="matrix(2.90789,0,0,1.65,-31.7105,-153.4)">
        <rect x="14" y="236" width="152" height="20" style="fill:white;"/>
    </g>
</svg>
