<?xml version="1.0" encoding="utf-8"?>
<!-- Generator: Adobe Illustrator 19.2.1, SVG Export Plug-In . SVG Version: 6.00 Build 0)  -->
<svg version="1.1" id="Layer_1" xmlns="http://www.w3.org/2000/svg" xmlns:xlink="http://www.w3.org/1999/xlink" x="0px" y="0px"
	 viewBox="0 0 428.4 79.5" style="" xml:space="preserve">
<style type="text/css">
	.st0{display:none;fill-rule:evenodd;clip-rule:evenodd;}
	.st1{fill-rule:evenodd;clip-rule:evenodd;fill:#ffffff;}
</style>
<path class="st0" d="M338.8,13c2.5,2.5,4.3,5.7,4.3,8.5v37c0,2.8-1.8,6-4.3,8.5c-2.5,2.5-5.7,4.3-8.5,4.3h-20.6
	c-1.8,0-3.2-1.4-3.2-3.2V11.9c0-1.8,1.4-3.2,3.2-3.2h20.6C333.1,8.7,336.3,10.6,338.8,13L338.8,13z M336.7,21.5c0-1-1-2.6-2.4-3.9
	c-1.4-1.4-2.9-2.4-3.9-2.4h-17.4v49.7h17.4c1,0,2.6-1,3.9-2.4c1.4-1.4,2.4-2.9,2.4-3.9V21.5z"/>
<path class="st0" d="M381.4,8.7c1.8,0,3.2,1.4,3.2,3.2c0,1.8-1.4,3.2-3.2,3.2h-20.6v18.4h15.8c1.8,0,3.2,1.4,3.2,3.2
	c0,1.8-1.4,3.2-3.2,3.2h-15.8v25h20.6c1.8,0,3.2,1.4,3.2,3.2s-1.4,3.2-3.2,3.2h-23.8c-1.8,0-3.2-1.4-3.2-3.2V11.9
	c0-1.8,1.4-3.2,3.2-3.2H381.4z"/>
<path class="st0" d="M287.9,55.8h-24.2l-4.7,13.4c-0.6,1.7-2.4,2.5-4.1,1.9s-2.5-2.4-1.9-4.1L272.8,11c1-2.8,5-2.8,6,0h0l19.9,56.1
	c0.6,1.7-0.3,3.5-1.9,4.1c-1.7,0.6-3.5-0.3-4.1-1.9L287.9,55.8L287.9,55.8z M265.9,49.5h19.7l-9.9-27.8L265.9,49.5z"/>
<path class="st0" d="M186.4,13c2.5,2.5,4.3,5.7,4.3,8.5v37c0,2.8-1.8,6-4.3,8.5c-2.5,2.5-5.7,4.3-8.5,4.3h-20.6
	c-1.8,0-3.2-1.4-3.2-3.2V11.9c0-1.8,1.4-3.2,3.2-3.2h20.6C180.7,8.7,183.9,10.6,186.4,13L186.4,13z M184.3,21.5c0-1-1-2.6-2.4-3.9
	c-1.4-1.4-2.9-2.4-3.9-2.4h-17.4v49.7h17.4c1,0,2.6-1,3.9-2.4c1.4-1.4,2.4-2.9,2.4-3.9V21.5z"/>
<path class="st0" d="M87.3,55.7H63l-4.7,13.4c-0.6,1.7-2.4,2.5-4.1,1.9c-1.7-0.6-2.5-2.4-1.9-4.1l19.9-56.1c1-2.8,5-2.8,6,0l0,0
	L98,67c0.6,1.7-0.3,3.5-1.9,4.1c-1.7,0.6-3.5-0.3-4.1-1.9L87.3,55.7L87.3,55.7z M65.3,49.3H85l-9.9-27.8L65.3,49.3z"/>
<path class="st0" d="M208.4,68.2c0,1.8-1.4,3.2-3.2,3.2s-3.2-1.4-3.2-3.2V12.1c0-1.8,1.4-3.2,3.2-3.2c1.2,0,2.3,0.7,2.8,1.7
	l15.5,23.7l15.6-24c1-1.5,2.9-1.9,4.4-0.9c0.9,0.6,1.4,1.6,1.4,2.7h0v56.1c0,1.8-1.4,3.2-3.2,3.2c-1.8,0-3.2-1.4-3.2-3.2V22.8
	l-12.4,19c-0.2,0.4-0.6,0.7-1,1c-1.5,1-3.4,0.5-4.4-0.9l-12.4-19.1V68.2z"/>
<path class="st0" d="M7.4,11.9c0-1.8,1.4-3.2,3.2-3.2c1.8,0,3.2,1.4,3.2,3.2v21.6h23.8V11.9c0-1.8,1.4-3.2,3.2-3.2s3.2,1.4,3.2,3.2
	V68c0,1.8-1.4,3.2-3.2,3.2s-3.2-1.4-3.2-3.2V39.9H13.8V68c0,1.8-1.4,3.2-3.2,3.2c-1.8,0-3.2-1.4-3.2-3.2V11.9z"/>
<path class="st0" d="M112.7,68c0,1.8-1.4,3.2-3.2,3.2c-1.8,0-3.2-1.4-3.2-3.2V11.9c0-1.8,1.4-3.2,3.2-3.2c1.3,0,2.4,0.8,2.9,1.9
	l24.1,44.8V11.9c0-1.8,1.4-3.2,3.2-3.2c1.8,0,3.2,1.4,3.2,3.2V68h0c0,1.1-0.6,2.2-1.7,2.8c-1.5,0.8-3.5,0.3-4.3-1.3l-24.2-45V68z"/>
<path class="st1" d="M394.1,71.2c-1.8,0-3.2-1.4-3.2-3.2s1.4-3.2,3.2-3.2h23.8c1.8,0,3.2,1.4,3.2,3.2s-1.4,3.2-3.2,3.2H394.1z"/>
</svg>
