<?xml version="1.0" encoding="UTF-8" standalone="no"?><!DOCTYPE svg PUBLIC "-//W3C//DTD SVG 1.1//EN" "http://www.w3.org/Graphics/SVG/1.1/DTD/svg11.dtd"><svg width="100%" height="100%" viewBox="0 0 236 253" version="1.1" xmlns="http://www.w3.org/2000/svg" xmlns:xlink="http://www.w3.org/1999/xlink" xml:space="preserve" xmlns:serif="http://www.serif.com/" style="fill-rule:evenodd;clip-rule:evenodd;stroke-linejoin:round;stroke-miterlimit:2;"><rect id="books" x="0" y="0" width="235.74" height="252.97" style="fill:none;"/><path d="M77.61,252.704l0,-230.569l80.52,-0l-0,230.569l-80.52,0Zm59.686,-188.853l0,-20.883l-38.853,-0l0,20.883l38.853,0Zm0,128.926l0,-108.092l-38.853,-0l0,108.092l38.853,-0Zm-38.853,20.833l0,18.261l38.853,-0l0,-18.261l-38.853,0Zm-98.032,39.094l-0,-252.438l70.429,-0l-0,252.438l-70.429,0Zm49.596,-206.372l-0,-25.233l-28.763,-0l0,25.233l28.763,0Zm-0,142.369l-0,-121.536l-28.763,0l0,121.536l28.763,-0Zm-28.763,20.833l0,22.337c0,-0 28.763,-0 28.763,-0l-0,-22.337l-28.763,-0Zm143.656,43.17l-0,-252.438l70.429,-0l-0,252.438l-70.429,0Zm49.596,-206.372l-0,-25.233l-28.763,-0l0,25.233l28.763,0Zm-0,142.369l-0,-121.536l-28.763,0l0,121.536l28.763,-0Zm-28.763,20.833l0,22.337l28.763,-0l-0,-22.337l-28.763,-0Z"/></svg>