<?xml version="1.0" encoding="UTF-8" standalone="no"?><!DOCTYPE svg PUBLIC "-//W3C//DTD SVG 1.1//EN" "http://www.w3.org/Graphics/SVG/1.1/DTD/svg11.dtd"><svg width="100%" height="100%" viewBox="0 0 336 233" version="1.1" xmlns="http://www.w3.org/2000/svg" xmlns:xlink="http://www.w3.org/1999/xlink" xml:space="preserve" xmlns:serif="http://www.serif.com/" style="fill-rule:evenodd;clip-rule:evenodd;stroke-linejoin:round;stroke-miterlimit:2;"><rect id="lightbulb" x="0" y="0" width="335.159" height="232.656" style="fill:none;"/><path d="M197.613,202.015c0,16.576 -13.457,30.034 -30.034,30.034c-16.576,-0 -30.034,-13.458 -30.034,-30.034l60.068,-0Zm0.06,-9.97l-60.206,-0c-3.155,-16.04 -5.152,-23.793 -32.39,-57.373c-10.513,-12.96 -16.178,-29.812 -16.178,-47.773c0,-43.425 35.256,-78.68 78.68,-78.68c43.425,-0 78.68,34.8 78.68,78.224c0,17.961 -5.665,34.814 -16.177,47.774c-27.238,33.58 -29.254,41.788 -32.409,57.828Zm-16.343,-20.834c3.88,-11.276 11.569,-24.225 32.572,-50.118c7.611,-9.383 11.524,-21.647 11.524,-34.65c-0,-31.893 -25.954,-57.391 -57.847,-57.391c-31.926,0 -57.846,25.92 -57.846,57.847c-0,13.003 3.913,25.266 11.524,34.649c20.946,25.823 28.639,38.556 32.521,49.663l27.552,0Zm-160.921,-151.684c-4.694,-3.321 -5.808,-9.827 -2.488,-14.52c3.321,-4.693 9.827,-5.808 14.52,-2.488l31.239,22.101c4.694,3.321 5.808,9.827 2.488,14.52c-3.32,4.693 -9.827,5.808 -14.52,2.488l-31.239,-22.101Zm12.032,153.97c-4.693,3.32 -11.199,2.205 -14.52,-2.488c-3.32,-4.693 -2.206,-11.199 2.488,-14.52l31.239,-22.101c4.693,-3.32 11.2,-2.205 14.52,2.488c3.32,4.693 2.206,11.199 -2.488,14.52l-31.239,22.101Zm-21.856,-74.77c-5.749,-0 -10.416,-4.668 -10.416,-10.417c-0,-5.749 4.667,-10.417 10.416,-10.417l38.267,0c5.749,0 10.417,4.668 10.417,10.417c-0,5.749 -4.668,10.417 -10.417,10.417l-38.267,-0Zm292.133,-95.906c4.693,-3.32 11.199,-2.205 14.519,2.488c3.321,4.693 2.206,11.199 -2.487,14.52l-31.239,22.101c-4.694,3.32 -11.2,2.206 -14.52,-2.488c-3.321,-4.693 -2.206,-11.199 2.487,-14.52l31.24,-22.101Zm12.032,153.97c4.693,3.321 5.808,9.827 2.487,14.52c-3.32,4.694 -9.826,5.808 -14.519,2.488l-31.24,-22.101c-4.693,-3.321 -5.808,-9.827 -2.487,-14.52c3.32,-4.693 9.826,-5.808 14.52,-2.488l31.239,22.101Zm9.823,-78.595c5.75,-0 10.417,4.667 10.417,10.416c0,5.749 -4.667,10.417 -10.417,10.417l-38.266,-0c-5.75,-0 -10.417,-4.668 -10.417,-10.417c-0,-5.749 4.667,-10.416 10.417,-10.416l38.266,-0Z"/></svg>