<svg width="20" height="20" fill="currentColor" viewBox="0 0 20 20" version="1.1" xmlns="http://www.w3.org/2000/svg" xmlns:xlink="http://www.w3.org/1999/xlink" xml:space="preserve" xmlns:serif="http://www.serif.com/" style="fill-rule:evenodd;clip-rule:evenodd;stroke-linejoin:round;stroke-miterlimit:2;">
    <g transform="matrix(1,0,0,1,-2,-2)">
        <path d="M17,6L22,6L22,8L20,8L20,21C20,21.552 19.552,22 19,22L5,22C4.448,22 4,21.552 4,21L4,8L2,8L2,6L7,6L7,3C7,2.448 7.448,2 8,2L16,2C16.552,2 17,2.448 17,3L17,6ZM18,8L6,8L6,20L18,20L18,8ZM13.414,14L15.182,15.768L13.768,17.182L12,15.414L10.232,17.182L8.818,15.768L10.586,14L8.818,12.232L10.232,10.818L12,12.586L13.768,10.818L15.182,12.232L13.414,14ZM9,4L9,6L15,6L15,4L9,4Z" style="fill-rule:nonzero;"/>
    </g>
</svg>
