<?xml version="1.0" encoding="UTF-8" standalone="no"?>
<!DOCTYPE svg PUBLIC "-//W3C//DTD SVG 1.1//EN" "http://www.w3.org/Graphics/SVG/1.1/DTD/svg11.dtd">
<svg width="98" height="20" viewBox="0 0 98 20" fill="currentColor" version="1.1" xmlns="http://www.w3.org/2000/svg" xmlns:xlink="http://www.w3.org/1999/xlink" xml:space="preserve" xmlns:serif="http://www.serif.com/" style="fill-rule:evenodd;clip-rule:evenodd;stroke-linejoin:round;stroke-miterlimit:2;">
    <g transform="matrix(0.529158,0,0,0.533333,-1.08345,12.8303)">
        <path d="M2.047,13.443L2.047,-24.057L6.247,-24.057L6.247,-5.007L14.997,-5.007L14.997,-24.057L19.197,-24.057L19.197,13.443L14.997,13.443L14.997,-0.807L6.247,-0.807L6.247,13.443L2.047,13.443Z" style="fill-rule:nonzero;"/>
        <path d="M35.947,-24.057L43.897,13.443L39.547,13.443L38.097,6.193L29.297,6.193L27.797,13.443L23.447,13.443L31.447,-24.057L35.947,-24.057ZM30.047,1.993L37.347,1.993L33.697,-16.557L30.047,1.993Z" style="fill-rule:nonzero;"/>
        <path d="M62.547,-24.057L66.547,-24.057L66.547,13.443L62.997,13.443L52.897,-13.107L52.897,13.443L48.897,13.443L48.897,-24.057L52.447,-24.057L62.547,2.493L62.547,-24.057Z" style="fill-rule:nonzero;"/>
        <path d="M72.047,13.443L72.047,-24.057L80.647,-24.057C83.347,-24.057 85.514,-23.207 87.147,-21.507C88.781,-19.807 89.597,-17.573 89.597,-14.807L89.597,4.193C89.597,6.96 88.781,9.193 87.147,10.893C85.514,12.593 83.347,13.443 80.647,13.443L72.047,13.443ZM76.247,9.243L80.647,9.243C82.081,9.243 83.231,8.785 84.097,7.868C84.964,6.952 85.397,5.727 85.397,4.193L85.397,-14.807C85.397,-16.34 84.964,-17.565 84.097,-18.482C83.231,-19.398 82.081,-19.857 80.647,-19.857L76.247,-19.857L76.247,9.243Z" style="fill-rule:nonzero;"/>
        <path d="M114.897,-24.057L119.097,-24.057L119.097,13.443L115.097,13.443L115.097,-10.957L108.647,13.443L105.497,13.443L99.097,-10.957L99.097,13.443L95.097,13.443L95.097,-24.057L99.297,-24.057L107.097,5.743L114.897,-24.057Z" style="fill-rule:nonzero;"/>
        <path d="M136.597,-24.057L144.547,13.443L140.197,13.443L138.747,6.193L129.947,6.193L128.447,13.443L124.097,13.443L132.097,-24.057L136.597,-24.057ZM130.697,1.993L137.997,1.993L134.347,-16.557L130.697,1.993Z" style="fill-rule:nonzero;"/>
        <path d="M149.047,13.443L149.047,-24.057L157.647,-24.057C160.347,-24.057 162.514,-23.207 164.147,-21.507C165.781,-19.807 166.597,-17.573 166.597,-14.807L166.597,4.193C166.597,6.96 165.781,9.193 164.147,10.893C162.514,12.593 160.347,13.443 157.647,13.443L149.047,13.443ZM153.247,9.243L157.647,9.243C159.081,9.243 160.231,8.785 161.097,7.868C161.964,6.952 162.397,5.727 162.397,4.193L162.397,-14.807C162.397,-16.34 161.964,-17.565 161.097,-18.482C160.231,-19.398 159.081,-19.857 157.647,-19.857L153.247,-19.857L153.247,9.243Z" style="fill-rule:nonzero;"/>
        <path d="M187.247,-24.057L187.247,-19.857L176.297,-19.857L176.297,-7.557L185.897,-7.557L185.897,-3.357L176.297,-3.357L176.297,9.243L187.247,9.243L187.247,13.443L172.097,13.443L172.097,-24.057L187.247,-24.057Z" style="fill-rule:nonzero;"/>
    </g>
</svg>
