<?xml version="1.0" encoding="UTF-8" standalone="no"?>
<!DOCTYPE svg PUBLIC "-//W3C//DTD SVG 1.1//EN" "http://www.w3.org/Graphics/SVG/1.1/DTD/svg11.dtd">
<svg width="100%" height="100%" viewBox="0 0 500 293" version="1.1" xmlns="http://www.w3.org/2000/svg" xmlns:xlink="http://www.w3.org/1999/xlink" xml:space="preserve" xmlns:serif="http://www.serif.com/" style="fill-rule:evenodd;clip-rule:evenodd;stroke-linejoin:round;stroke-miterlimit:2;">
    <g transform="matrix(0.996745,-0.0806156,0.0806156,0.996745,-129.661,-141.672)">
        <path d="M407.252,197.423L414.252,181.423C414.733,180.325 414.627,179.06 413.971,178.057C413.315,177.054 412.198,176.45 411,176.45L373,176.45C371.041,176.45 369.45,178.041 369.45,180C369.45,181.959 371.041,183.55 373,183.55L405.572,183.55C405.572,183.55 400.748,194.577 400.748,194.577C399.962,196.372 400.782,198.467 402.577,199.252C404.372,200.038 406.467,199.218 407.252,197.423Z" style="fill:white;"/>
    </g>
    <g transform="matrix(0.996745,-0.0806156,0.0806156,0.996745,-16.5239,16.7232)">
        <path d="M120,45.55L170.53,45.55C170.53,45.55 177.49,52.51 177.49,52.51C178.875,53.896 181.125,53.896 182.51,52.51C183.896,51.125 183.896,48.875 182.51,47.49L174.51,39.49C173.844,38.824 172.942,38.45 172,38.45L120,38.45C118.041,38.45 116.45,40.041 116.45,42C116.45,43.959 118.041,45.55 120,45.55Z" style="fill:white;"/>
    </g>
    <g transform="matrix(0.996745,-0.0806156,0.0806156,0.996745,-129.661,-141.672)">
        <path d="M316.353,392.658L447.353,276.658C448.82,275.359 448.957,273.113 447.658,271.647C446.359,270.18 444.113,270.043 442.647,271.342L311.647,387.342C310.18,388.641 310.043,390.887 311.342,392.353C312.641,393.82 314.887,393.957 316.353,392.658Z" style="fill:white;"/>
    </g>
    <g transform="matrix(0.986724,-0.0961464,0.0619321,0.967786,-121.951,-129.721)">
        <path d="M503.127,373.323L407.127,194.323L400.873,197.677L496.873,376.677L503.127,373.323Z" style="fill:white;"/>
    </g>
    <g transform="matrix(0.996745,-0.0806156,0.0806156,0.996745,-129.661,-141.672)">
        <path d="M266,262.55L437,262.55C438.959,262.55 440.55,260.959 440.55,259C440.55,257.041 438.959,255.45 437,255.45L266,255.45C264.041,255.45 262.45,257.041 262.45,259C262.45,260.959 264.041,262.55 266,262.55Z" style="fill:white;"/>
    </g>
    <g transform="matrix(0.996745,-0.0806156,0.0806156,0.996745,-129.661,-141.672)">
        <path d="M317.335,388.784L251.335,207.784L244.665,210.216L310.665,391.216L317.335,388.784Z" style="fill:white;"/>
    </g>
    <g transform="matrix(0.747077,-0.0886278,0.0524426,0.995838,-40.2779,-138.802)">
        <path d="M142.669,374.851L313.625,393.529C316.226,393.813 318.505,392.462 318.712,390.515C318.919,388.567 316.976,386.755 314.375,386.471L143.419,367.793C140.818,367.509 138.539,368.86 138.332,370.807C138.125,372.755 140.068,374.567 142.669,374.851Z" style="fill:white;"/>
    </g>
    <g transform="matrix(0.976193,-0.0495528,0.106814,0.957148,-130.98,-139.679)">
        <path d="M177.795,377.192L268.795,261.192C270.082,259.551 269.876,257.236 268.333,256.026C266.791,254.816 264.493,255.166 263.205,256.808L172.205,372.808C170.918,374.449 171.124,376.764 172.667,377.974C174.209,379.184 176.507,378.834 177.795,377.192Z" style="fill:white;"/>
    </g>
    <g transform="matrix(0.786945,-0.584709,0.584709,0.786945,16.5454,47.8273)">
        <path d="M302,283.911C302,278.441 297.559,274 292.089,274L158.911,274C153.441,274 149,278.441 149,283.911L149,417.089C149,422.559 153.441,427 158.911,427L292.089,427C297.559,427 302,422.559 302,417.089L302,283.911ZM294.758,283.911L294.758,417.089C294.758,418.562 293.562,419.758 292.089,419.758L158.911,419.758C157.438,419.758 156.242,418.562 156.242,417.089L156.242,283.911C156.242,282.438 157.438,281.242 158.911,281.242L292.089,281.242C293.562,281.242 294.758,282.438 294.758,283.911Z" style="fill:white;"/>
    </g>
    <g transform="matrix(0.953157,0.961038,-0.961038,0.953157,104.111,-263.086)">
        <path d="M400,75.342C400,74.601 399.399,74 398.658,74L385.342,74C384.601,74 384,74.601 384,75.342L384,88.658C384,89.399 384.601,90 385.342,90L398.658,90C399.399,90 400,89.399 400,88.658L400,75.342ZM389.245,84.755L394.755,84.755L394.755,79.245L389.245,79.245L389.245,84.755Z" style="fill:white;"/>
    </g>
    <g transform="matrix(0.980392,-3.5351e-09,3.5351e-09,0.980392,-146.078,-125.627)">
        <path d="M302,283.911C302,278.441 297.559,274 292.089,274L158.911,274C153.441,274 149,278.441 149,283.911L149,417.089C149,422.559 153.441,427 158.911,427L292.089,427C297.559,427 302,422.559 302,417.089L302,283.911ZM294.758,283.911L294.758,417.089C294.758,418.562 293.562,419.758 292.089,419.758L158.911,419.758C157.438,419.758 156.242,418.562 156.242,417.089L156.242,283.911C156.242,282.438 157.438,281.242 158.911,281.242L292.089,281.242C293.562,281.242 294.758,282.438 294.758,283.911Z" style="fill:white;"/>
    </g>
    <g transform="matrix(0.953157,0.961038,-0.961038,0.953157,-219.832,-236.886)">
        <path d="M400,75.342C400,74.601 399.399,74 398.658,74L385.342,74C384.601,74 384,74.601 384,75.342L384,88.658C384,89.399 384.601,90 385.342,90L398.658,90C399.399,90 400,89.399 400,88.658L400,75.342ZM389.245,84.755L394.755,84.755L394.755,79.245L389.245,79.245L389.245,84.755Z" style="fill:white;"/>
    </g>
</svg>
