<?xml version="1.0" encoding="UTF-8" standalone="no"?>
<!DOCTYPE svg PUBLIC "-//W3C//DTD SVG 1.1//EN" "http://www.w3.org/Graphics/SVG/1.1/DTD/svg11.dtd">
<svg width="100%" height="100%" viewBox="0 0 592 136" version="1.1" xmlns="http://www.w3.org/2000/svg" xmlns:xlink="http://www.w3.org/1999/xlink" xml:space="preserve" xmlns:serif="http://www.serif.com/" style="fill-rule:evenodd;clip-rule:evenodd;stroke-linejoin:round;stroke-miterlimit:2;">
    <g transform="matrix(1,0,0,1,-16,-16)">
        <path d="M85,85L152,85L152,125C152,139.912 139.912,152 125,152L85,152L85,85Z" style="fill:white;fill-opacity:0.4;fill-rule:nonzero;"/>
    </g>
    <g transform="matrix(1,0,0,1,-16,-16)">
        <path d="M85,16L125,16C139.912,16 152,28.088 152,43L152,83L85,83L85,16Z" style="fill:white;fill-opacity:0.4;fill-rule:nonzero;"/>
    </g>
    <g transform="matrix(1,0,0,1,-16,-16)">
        <path d="M16,43C16,28.088 28.088,16 43,16L83,16L83,83L16,83L16,43Z" style="fill:white;fill-opacity:0.4;fill-rule:nonzero;"/>
    </g>
    <g transform="matrix(1,0,0,1,-16,-16)">
        <path d="M16,85L83,85L83,152L43,152C28.088,152 16,139.912 16,125L16,85Z" style="fill:white;fill-opacity:0.4;fill-rule:nonzero;"/>
    </g>
    <g transform="matrix(1,0,0,1,-16,-16)">
        <path d="M60.257,105.065C61.038,104.284 62.305,104.284 63.086,105.065C63.867,105.846 63.867,107.112 63.086,107.893L52.328,118.65L62.784,129.106C63.565,129.887 63.565,131.154 62.784,131.935C62.003,132.716 60.736,132.716 59.955,131.935L49.499,121.479L39.044,131.935C38.263,132.716 36.997,132.716 36.216,131.935C35.435,131.154 35.435,129.887 36.216,129.106L46.671,118.65L35.914,107.893C35.133,107.112 35.133,105.846 35.914,105.065C36.695,104.284 37.961,104.284 38.742,105.065L49.499,115.822L60.257,105.065Z" style="fill:white;fill-rule:nonzero;"/>
    </g>
    <g transform="matrix(1,0,0,1,-16,-16)">
        <path d="M47.5,35.5C47.5,34.396 48.396,33.501 49.5,33.501C50.605,33.501 51.5,34.396 51.5,35.5L51.5,47.5L63.5,47.5C64.605,47.5 65.5,48.396 65.5,49.5C65.5,50.605 64.605,51.5 63.5,51.5L51.5,51.5L51.5,63.5C51.5,64.605 50.605,65.5 49.5,65.5C48.396,65.5 47.5,64.605 47.5,63.5L47.5,51.5L35.5,51.5C34.396,51.5 33.5,50.605 33.5,49.5C33.5,48.396 34.396,47.501 35.5,47.5L47.5,47.5L47.5,35.5Z" style="fill:white;fill-rule:nonzero;"/>
    </g>
    <g transform="matrix(-3.82857e-16,-1,1,-3.82857e-16,39,142)">
        <path d="M110.5,53.5C110.5,52.396 109.604,51.5 108.5,51.5C107.396,51.5 106.5,52.396 106.5,53.5L106.5,73.5C106.5,74.604 107.396,75.5 108.5,75.5C109.604,75.5 110.5,74.604 110.5,73.5L110.5,53.5Z" style="fill:white;"/>
    </g>
    <g transform="matrix(1,0,0,1,-16,-16)">
        <path d="M104.5,118.5C104.5,117.395 105.395,116.5 106.5,116.5L130.5,116.5C131.605,116.5 132.5,117.395 132.5,118.5C132.5,119.604 131.605,120.5 130.5,120.5L106.5,120.5C105.395,120.5 104.5,119.605 104.5,118.5Z" style="fill:white;fill-rule:nonzero;"/>
    </g>
    <g transform="matrix(1,0,0,1,-16,-16)">
        <path d="M115.75,128.75C115.75,127.231 116.981,126.001 118.5,126.001C120.019,126.001 121.25,127.231 121.25,128.75C121.25,130.269 120.019,131.5 118.5,131.5C116.981,131.5 115.75,130.269 115.75,128.75Z" style="fill:white;fill-rule:nonzero;"/>
    </g>
    <g transform="matrix(1,0,0,1,-16,-16)">
        <path d="M115.75,108.25C115.75,106.731 116.981,105.5 118.5,105.5C120.019,105.5 121.25,106.731 121.25,108.25C121.25,109.768 120.019,110.999 118.5,110.999C116.981,110.999 115.75,109.768 115.75,108.25Z" style="fill:white;fill-rule:nonzero;"/>
    </g>
    <g transform="matrix(1,0,0,1,-16,-16)">
        <path d="M168,43C168,28.088 180.088,16 195,16L277,16C291.912,16 304,28.088 304,43L304,50L168,50L168,43Z" style="fill:white;fill-opacity:0.5;fill-rule:nonzero;"/>
    </g>
    <g transform="matrix(1,0,0,1,-16,-16)">
        <path d="M168,52L304,52L304,125C304,139.912 291.912,152 277,152L195,152C180.088,152 168,139.912 168,125L168,52Z" style="fill:white;fill-opacity:0.4;fill-rule:nonzero;"/>
    </g>
    <g transform="matrix(1,0,0,1,-16,-16)">
        <path d="M240,123C241.657,123 243,124.343 243,126C243,127.657 241.657,129 240,129L191,129C189.343,129 188,127.657 188,126C188,124.343 189.343,123 191,123L240,123Z" style="fill:white;fill-rule:nonzero;"/>
    </g>
    <g transform="matrix(1,0,0,1,-16,-16)">
        <path d="M281,108C282.657,108 284,109.343 284,111C284,112.657 282.657,114 281,114L191,114C189.343,114 188,112.657 188,111C188,109.343 189.343,108 191,108L281,108Z" style="fill:white;fill-rule:nonzero;"/>
    </g>
    <g transform="matrix(1,0,0,1,-16,-16)">
        <path d="M281,93C282.657,93 284,94.343 284,96C284,97.657 282.657,99 281,99L191,99C189.343,99 188,97.657 188,96C188,94.343 189.343,93 191,93L281,93Z" style="fill:white;fill-rule:nonzero;"/>
    </g>
    <g transform="matrix(1,0,0,1,-16,-16)">
        <path d="M281,78C282.657,78 284,79.343 284,81C284,82.657 282.657,84 281,84L191,84C189.343,84 188,82.657 188,81C188,79.343 189.343,78 191,78L281,78Z" style="fill:white;fill-rule:nonzero;"/>
    </g>
    <g transform="matrix(1,0,0,1,-16,-16)">
        <path d="M210,63C211.657,63 213,64.343 213,66C213,67.657 211.657,69 210,69L191,69C189.343,69 188,67.657 188,66C188,64.343 189.343,63 191,63L210,63Z" style="fill:white;fill-rule:nonzero;"/>
    </g>
    <g transform="matrix(1,0,0,1,-16,-16)">
        <path d="M456,43C456,28.098 443.902,16 429,16L347,16C332.098,16 320,28.098 320,43L320,125C320,139.902 332.098,152 347,152L429,152C443.902,152 456,139.902 456,125L456,43Z" style="fill:white;fill-opacity:0.4;"/>
    </g>
    <g transform="matrix(1,0,0,1,-16,-16)">
        <path d="M381.5,51C383.157,51 384.5,52.343 384.5,54L384.5,116C384.5,117.657 383.157,119 381.5,119C379.843,119 378.5,117.657 378.5,116L378.5,54C378.5,52.343 379.843,51 381.5,51Z" style="fill:white;fill-rule:nonzero;"/>
    </g>
    <g transform="matrix(1,0,0,1,-16,-16)">
        <path d="M394.5,58C396.157,58 397.5,59.343 397.5,61L397.5,109C397.5,110.657 396.157,112 394.5,112C392.843,112 391.5,110.657 391.5,109L391.5,61C391.5,59.343 392.843,58 394.5,58Z" style="fill:white;fill-rule:nonzero;"/>
    </g>
    <g transform="matrix(1,0,0,1,-16,-16)">
        <path d="M355.5,64C357.157,64 358.5,65.343 358.5,67L358.5,103C358.5,104.657 357.157,106 355.5,106C353.843,106 352.5,104.657 352.5,103L352.5,67C352.5,65.343 353.843,64 355.5,64Z" style="fill:white;fill-rule:nonzero;"/>
    </g>
    <g transform="matrix(1,0,0,1,-16,-16)">
        <path d="M433.5,64C435.157,64 436.5,65.343 436.5,67L436.5,103C436.5,104.657 435.157,106 433.5,106C431.843,106 430.5,104.657 430.5,103L430.5,67C430.5,65.343 431.843,64 433.5,64Z" style="fill:white;fill-rule:nonzero;"/>
    </g>
    <g transform="matrix(1,0,0,1,-16,-16)">
        <path d="M368.5,70C370.157,70 371.5,71.343 371.5,73L371.5,97C371.5,98.657 370.157,100 368.5,100C366.843,100 365.5,98.657 365.5,97L365.5,73C365.5,71.343 366.843,70 368.5,70Z" style="fill:white;fill-rule:nonzero;"/>
    </g>
    <g transform="matrix(1,0,0,1,-16,-16)">
        <path d="M420.5,70C422.157,70 423.5,71.343 423.5,73L423.5,97C423.5,98.657 422.157,100 420.5,100C418.843,100 417.5,98.657 417.5,97L417.5,73C417.5,71.343 418.843,70 420.5,70Z" style="fill:white;fill-rule:nonzero;"/>
    </g>
    <g transform="matrix(1,0,0,1,-16,-16)">
        <path d="M342.5,76C344.157,76 345.5,77.343 345.5,79L345.5,91C345.5,92.657 344.157,94 342.5,94C340.843,94 339.5,92.657 339.5,91L339.5,79C339.5,77.343 340.843,76 342.5,76Z" style="fill:white;fill-rule:nonzero;"/>
    </g>
    <g transform="matrix(1,0,0,1,-16,-16)">
        <path d="M446.5,76C448.157,76 449.5,77.343 449.5,79L449.5,91C449.5,92.657 448.157,94 446.5,94C444.843,94 443.5,92.657 443.5,91L443.5,79C443.5,77.343 444.843,76 446.5,76Z" style="fill:white;fill-rule:nonzero;"/>
    </g>
    <g transform="matrix(1,0,0,1,-16,-16)">
        <path d="M329.5,80C331.157,80 332.5,81.343 332.5,83L332.5,87C332.5,88.657 331.157,90 329.5,90C327.843,90 326.5,88.657 326.5,87L326.5,83C326.5,81.343 327.843,80 329.5,80Z" style="fill:white;fill-rule:nonzero;"/>
    </g>
    <g transform="matrix(1,0,0,1,-16,-16)">
        <path d="M407.5,80C409.157,80 410.5,81.343 410.5,83L410.5,87C410.5,88.657 409.157,90 407.5,90C405.843,90 404.5,88.657 404.5,87L404.5,83C404.5,81.343 405.843,80 407.5,80Z" style="fill:white;fill-rule:nonzero;"/>
    </g>
    <g transform="matrix(1,0,0,1,-16,-16)">
        <path d="M472,43C472,28.088 484.088,16 499,16L581,16C595.912,16 608,28.088 608,43L608,50L472,50L472,43Z" style="fill:white;fill-opacity:0.5;fill-rule:nonzero;"/>
    </g>
    <g transform="matrix(1,0,0,1,-16,-16)">
        <path d="M472,52L608,52L608,125C608,139.912 595.912,152 581,152L499,152C484.088,152 472,139.912 472,125L472,52Z" style="fill:white;fill-opacity:0.4;fill-rule:nonzero;"/>
    </g>
    <g transform="matrix(-3.82857e-16,-1,1,-3.82857e-16,391.5,552.5)">
        <path d="M508,84.5C508,82.292 506.208,80.5 504,80.5L492,80.5C489.792,80.5 488,82.292 488,84.5L488,96.5C488,98.708 489.792,100.5 492,100.5L504,100.5C506.208,100.5 508,98.708 508,96.5L508,84.5Z" style="fill:white;fill-opacity:0.4;"/>
    </g>
    <g transform="matrix(-3.82857e-16,-1,1,-3.82857e-16,419.5,580.5)">
        <path d="M536,84.5C536,82.292 534.208,80.5 532,80.5L520,80.5C517.792,80.5 516,82.292 516,84.5L516,96.5C516,98.708 517.792,100.5 520,100.5L532,100.5C534.208,100.5 536,98.708 536,96.5L536,84.5Z" style="fill:white;"/>
    </g>
    <g transform="matrix(-3.82857e-16,-1,1,-3.82857e-16,447.5,608.5)">
        <path d="M564,84.5C564,82.292 562.208,80.5 560,80.5L548,80.5C545.792,80.5 544,82.292 544,84.5L544,96.5C544,98.708 545.792,100.5 548,100.5L560,100.5C562.208,100.5 564,98.708 564,96.5L564,84.5Z" style="fill:white;"/>
    </g>
    <g transform="matrix(-3.82857e-16,-1,1,-3.82857e-16,475.5,636.5)">
        <path d="M592,84.5C592,82.292 590.208,80.5 588,80.5L576,80.5C573.792,80.5 572,82.292 572,84.5L572,96.5C572,98.708 573.792,100.5 576,100.5L588,100.5C590.208,100.5 592,98.708 592,96.5L592,84.5Z" style="fill:white;"/>
    </g>
    <g transform="matrix(-3.82857e-16,-1,1,-3.82857e-16,363.5,580.5)">
        <path d="M508,112.5C508,110.292 506.208,108.5 504,108.5L492,108.5C489.792,108.5 488,110.292 488,112.5L488,124.5C488,126.708 489.792,128.5 492,128.5L504,128.5C506.208,128.5 508,126.708 508,124.5L508,112.5Z" style="fill:white;"/>
    </g>
    <g transform="matrix(-3.82857e-16,-1,1,-3.82857e-16,391.5,608.5)">
        <path d="M536,112.5C536,110.292 534.208,108.5 532,108.5L520,108.5C517.792,108.5 516,110.292 516,112.5L516,124.5C516,126.708 517.792,128.5 520,128.5L532,128.5C534.208,128.5 536,126.708 536,124.5L536,112.5Z" style="fill:white;"/>
    </g>
    <g transform="matrix(-3.82857e-16,-1,1,-3.82857e-16,419.5,636.5)">
        <path d="M564,112.5C564,110.292 562.208,108.5 560,108.5L548,108.5C545.792,108.5 544,110.292 544,112.5L544,124.5C544,126.708 545.792,128.5 548,128.5L560,128.5C562.208,128.5 564,126.708 564,124.5L564,112.5Z" style="fill:white;"/>
    </g>
    <g transform="matrix(-3.82857e-16,-1,1,-3.82857e-16,447.5,664.5)">
        <path d="M592,112.5C592,110.292 590.208,108.5 588,108.5L576,108.5C573.792,108.5 572,110.292 572,112.5L572,124.5C572,126.708 573.792,128.5 576,128.5L588,128.5C590.208,128.5 592,126.708 592,124.5L592,112.5Z" style="fill:white;"/>
    </g>
    <g transform="matrix(-3.82857e-16,-1,1,-3.82857e-16,335.5,608.5)">
        <path d="M508,140.5C508,138.292 506.208,136.5 504,136.5L492,136.5C489.792,136.5 488,138.292 488,140.5L488,152.5C488,154.708 489.792,156.5 492,156.5L504,156.5C506.208,156.5 508,154.708 508,152.5L508,140.5Z" style="fill:white;"/>
    </g>
    <g transform="matrix(-3.82857e-16,-1,1,-3.82857e-16,363.5,636.5)">
        <path d="M536,140.5C536,138.292 534.208,136.5 532,136.5L520,136.5C517.792,136.5 516,138.292 516,140.5L516,152.5C516,154.708 517.792,156.5 520,156.5L532,156.5C534.208,156.5 536,154.708 536,152.5L536,140.5Z" style="fill:white;"/>
    </g>
    <g transform="matrix(-3.82857e-16,-1,1,-3.82857e-16,391.5,664.5)">
        <path d="M564,140.5C564,138.292 562.208,136.5 560,136.5L548,136.5C545.792,136.5 544,138.292 544,140.5L544,152.5C544,154.708 545.792,156.5 548,156.5L560,156.5C562.208,156.5 564,154.708 564,152.5L564,140.5Z" style="fill:white;fill-opacity:0.4;"/>
    </g>
    <g transform="matrix(-3.82857e-16,-1,1,-3.82857e-16,419.5,692.5)">
        <path d="M592,140.5C592,138.292 590.208,136.5 588,136.5L576,136.5C573.792,136.5 572,138.292 572,140.5L572,152.5C572,154.708 573.792,156.5 576,156.5L588,156.5C590.208,156.5 592,154.708 592,152.5L592,140.5Z" style="fill:white;fill-opacity:0.4;"/>
    </g>
</svg>
