<?xml version="1.0" encoding="UTF-8" standalone="no"?>
<!DOCTYPE svg PUBLIC "-//W3C//DTD SVG 1.1//EN" "http://www.w3.org/Graphics/SVG/1.1/DTD/svg11.dtd">
<svg width="100%" height="100%" viewBox="0 0 475 283" version="1.1" xmlns="http://www.w3.org/2000/svg" xmlns:xlink="http://www.w3.org/1999/xlink" xml:space="preserve" xmlns:serif="http://www.serif.com/" style="fill-rule:evenodd;clip-rule:evenodd;stroke-linecap:round;stroke-linejoin:round;stroke-miterlimit:1.5;">
    <g id="Handlebars" transform="matrix(1,0,0,1,-100,-167)">
        <path d="M404,196C407.778,166.333 384.333,169 364,184" style="fill:none;stroke:white;stroke-width:9px;"/>
    </g>
    <g id="Seat">
    </g>
    <path d="M120,42L160,42C177.006,42.052 186.77,48.289 191,58" style="fill:none;stroke:white;stroke-width:9px;"/>
    <g id="Frame" transform="matrix(1,0,0,1,-100,-167)">
        <path d="M314,390L445,274" style="fill:none;stroke:white;stroke-width:9px;"/>
        <path d="M500,375L404,196" style="fill:none;stroke:white;stroke-width:9px;stroke-linecap:butt;"/>
        <path d="M266,259L437,259" style="fill:none;stroke:white;stroke-width:9px;"/>
        <path d="M314,390L248,209" style="fill:none;stroke:white;stroke-width:9px;stroke-linecap:butt;"/>
        <g transform="matrix(0.815396,-0.0212494,-0.0212494,0.997554,66.2531,7.62625)">
            <path d="M143.044,371.322L314,390" style="fill:none;stroke:white;stroke-width:10.11px;"/>
        </g>
        <path d="M175,375L266,259" style="fill:none;stroke:white;stroke-width:9px;"/>
    </g>
    <g id="Wheel" transform="matrix(1,0,0,1,-100,-167)">
        <g transform="matrix(0.980392,0,0,0.980392,-46.0784,31.3725)">
            <path d="M302,293.019C302,282.522 293.478,274 282.981,274L168.019,274C157.522,274 149,282.522 149,293.019L149,407.981C149,418.478 157.522,427 168.019,427L282.981,427C293.478,427 302,418.478 302,407.981L302,293.019ZM292.82,293.019L292.82,407.981C292.82,413.411 288.411,417.82 282.981,417.82C282.981,417.82 168.019,417.82 168.019,417.82C162.589,417.82 158.18,413.411 158.18,407.981L158.18,293.019C158.18,287.589 162.589,283.18 168.019,283.18L282.981,283.18C288.411,283.18 292.82,287.589 292.82,293.019Z" style="fill:white;"/>
        </g>
        <g transform="matrix(1,0,0,1,-50,26)">
            <path d="M237,343C237,339.689 234.311,337 231,337L219,337C215.689,337 213,339.689 213,343L213,355C213,358.311 215.689,361 219,361L231,361C234.311,361 237,358.311 237,355L237,343Z" style="fill:white;"/>
        </g>
    </g>
    <g id="Wheel1" serif:id="Wheel" transform="matrix(1,0,0,1,225,-167)">
        <g transform="matrix(0.980392,0,0,0.980392,-46.0784,31.3725)">
            <path d="M302,293.019C302,282.522 293.478,274 282.981,274L168.019,274C157.522,274 149,282.522 149,293.019L149,407.981C149,418.478 157.522,427 168.019,427L282.981,427C293.478,427 302,418.478 302,407.981L302,293.019ZM292.82,293.019L292.82,407.981C292.82,413.411 288.411,417.82 282.981,417.82C282.981,417.82 168.019,417.82 168.019,417.82C162.589,417.82 158.18,413.411 158.18,407.981L158.18,293.019C158.18,287.589 162.589,283.18 168.019,283.18L282.981,283.18C288.411,283.18 292.82,287.589 292.82,293.019Z" style="fill:white;"/>
        </g>
        <g transform="matrix(1,0,0,1,-50,26)">
            <path d="M237,343C237,339.689 234.311,337 231,337L219,337C215.689,337 213,339.689 213,343L213,355C213,358.311 215.689,361 219,361L231,361C234.311,361 237,358.311 237,355L237,343Z" style="fill:white;"/>
        </g>
    </g>
</svg>
