<?xml version="1.0" encoding="UTF-8" standalone="no"?>
<!-- Created with Inkscape (http://www.inkscape.org/) -->

<svg
   width="739.32581"
   height="447.97736"
   viewBox="0 0 195.61328 118.52734"
   version="1.1"
   id="svg1"
   xml:space="preserve"
   xmlns="http://www.w3.org/2000/svg"
   xmlns:svg="http://www.w3.org/2000/svg"><defs
     id="defs1" /><g
     id="layer2"
     transform="translate(-6.5429683,-7.9628906)"><g
       id="g88"><path
         style="color:#000000;fill:#ffffff;stroke-linecap:round;stroke-dashoffset:8.8;-inkscape-stroke:none;paint-order:fill markers stroke"
         d="m 13.785156,7.9628906 c -3.9914079,0 -7.2421873,3.2507794 -7.2421873,7.2421874 V 119.24805 c 0,3.99141 3.2507794,7.24218 7.2421873,7.24218 H 194.91406 c 3.99141,0 7.24219,-3.25077 7.24219,-7.24218 V 15.205078 c 0,-3.991408 -3.25078,-7.2421874 -7.24219,-7.2421874 z m 0,2.3808594 H 194.91406 c 2.71339,0 4.86133,2.147942 4.86133,4.861328 V 119.24805 c 0,2.71338 -2.14794,4.86132 -4.86133,4.86133 H 13.785156 c -2.713386,0 -4.8613279,-2.14795 -4.8613279,-4.86133 V 15.205078 c 0,-2.713386 2.1479419,-4.861328 4.8613279,-4.861328 z"
         id="rect1" /><path
         style="color:#000000;fill:#ffffff;stroke-linecap:round;stroke-dashoffset:8.8;-inkscape-stroke:none;paint-order:fill markers stroke"
         d="m 8.1660156,112.96094 a 1.190625,1.190625 0 0 0 -1.1914062,1.1914 1.190625,1.190625 0 0 0 1.1914062,1.18946 H 200.73633 a 1.190625,1.190625 0 0 0 1.1914,-1.18946 1.190625,1.190625 0 0 0 -1.1914,-1.1914 z"
         id="path36" /><path
         style="color:#000000;fill:#ffffff;stroke-linecap:round;stroke-dashoffset:8.8;-inkscape-stroke:none;paint-order:fill markers stroke"
         d="m 180.14453,118.25195 a 1.190625,1.190625 0 0 0 -1.18945,1.19141 1.190625,1.190625 0 0 0 1.18945,1.19141 h 8.94922 a 1.190625,1.190625 0 0 0 1.19141,-1.19141 1.190625,1.190625 0 0 0 -1.19141,-1.19141 z"
         id="path37" /></g><g
       id="g89"><path
         style="color:#000000;fill:#ffffff;stroke-dashoffset:8.8;-inkscape-stroke:none;paint-order:fill markers stroke"
         d="m 39.162109,38.353516 -2.21875,0.867187 6.207032,15.861328 2.216796,-0.867187 z"
         id="path3" /><path
         style="color:#000000;fill:#ffffff;stroke-dashoffset:8.8;-inkscape-stroke:none;paint-order:fill markers stroke"
         d="m 38.902344,80.289062 -4.63086,5.419922 1.808594,1.546875 4.632813,-5.419922 z"
         id="path4" /><path
         style="color:#000000;fill:#ffffff;stroke-dashoffset:8.8;-inkscape-stroke:none;paint-order:fill markers stroke"
         d="m 64.087891,75.970703 -1.189454,2.0625 12.404297,7.154297 1.189453,-2.064453 z"
         id="path5" /><path
         style="color:#000000;fill:#ffffff;stroke-dashoffset:8.8;-inkscape-stroke:none;paint-order:fill markers stroke"
         d="m 74.726562,52.677734 -12.070312,7.365235 1.240234,2.033203 12.070313,-7.365235 z"
         id="path2" /><path
         style="color:#000000;fill:#ffffff;stroke-linecap:round;stroke-dashoffset:8.8;-inkscape-stroke:none;paint-order:fill markers stroke"
         d="m 83.150391,38.503906 c -5.744916,0 -10.427735,4.682819 -10.427735,10.427735 0,5.744915 4.682819,10.427734 10.427735,10.427734 5.744915,0 10.427734,-4.682819 10.427734,-10.427734 0,-5.744916 -4.682819,-10.427735 -10.427734,-10.427735 z m 0,2.38086 c 4.457993,0 8.046875,3.588881 8.046875,8.046875 0,4.457993 -3.588882,8.046875 -8.046875,8.046875 -4.457994,0 -8.044922,-3.588882 -8.044922,-8.046875 0,-4.457994 3.586928,-8.046875 8.044922,-8.046875 z"
         id="use16" /><path
         style="color:#000000;fill:#ffffff;stroke-linecap:round;stroke-dashoffset:8.8;-inkscape-stroke:none;paint-order:fill markers stroke"
         d="m 83.757812,78.259766 c -5.744915,0 -10.427734,4.682819 -10.427734,10.427734 0,5.744915 4.682819,10.427734 10.427734,10.427734 5.744916,0 10.427735,-4.682819 10.427735,-10.427734 0,-5.744915 -4.682819,-10.427734 -10.427735,-10.427734 z m 0,2.380859 c 4.457994,0 8.046875,3.588881 8.046875,8.046875 0,4.457994 -3.588881,8.044922 -8.046875,8.044922 -4.457993,0 -8.046875,-3.586928 -8.046875,-8.044922 0,-4.457994 3.588882,-8.046875 8.046875,-8.046875 z"
         id="use17" /><path
         style="color:#000000;fill:#ffffff;stroke-linecap:round;stroke-dashoffset:8.8;-inkscape-stroke:none;paint-order:fill markers stroke"
         d="m 29.087891,83.179687 c -5.744916,0 -10.427735,4.682819 -10.427735,10.427735 0,5.744915 4.682819,10.427738 10.427735,10.427738 5.744915,0 10.427734,-4.682823 10.427734,-10.427738 0,-5.744916 -4.682819,-10.427735 -10.427734,-10.427735 z m 0,2.38086 c 4.457993,0 8.044921,3.588881 8.044921,8.046875 0,4.457994 -3.586928,8.044918 -8.044921,8.044918 -4.457994,0 -8.046875,-3.586924 -8.046875,-8.044918 0,-4.457994 3.588881,-8.046875 8.046875,-8.046875 z"
         id="use18" /><path
         style="color:#000000;fill:#ffffff;stroke-linecap:round;stroke-dashoffset:8.8;-inkscape-stroke:none;paint-order:fill markers stroke"
         d="m 34.621094,19.585937 c -5.744916,0 -10.427735,4.682819 -10.427735,10.427735 0,5.744915 4.682819,10.427734 10.427735,10.427734 5.744915,0 10.425781,-4.682819 10.425781,-10.427734 0,-5.744916 -4.680866,-10.427735 -10.425781,-10.427735 z m 0,2.382813 c 4.457994,0 8.044922,3.586928 8.044922,8.044922 0,4.457994 -3.586928,8.046875 -8.044922,8.046875 -4.457994,0 -8.046875,-3.588881 -8.046875,-8.046875 0,-4.457994 3.588881,-8.044922 8.046875,-8.044922 z"
         id="use83" /><path
         style="color:#000000;fill:#ffffff;stroke-linecap:round;stroke-dashoffset:8.8;-inkscape-stroke:none;paint-order:fill markers stroke"
         d="m 49.949219,55.927734 c -7.313646,0 -13.265625,5.951979 -13.265625,13.265625 0,7.313646 5.951979,13.265625 13.265625,13.265625 7.313646,0 13.265625,-5.951979 13.265625,-13.265625 0,-7.313646 -5.951979,-13.265625 -13.265625,-13.265625 z m 0,2.117188 c 6.169714,0 11.148437,4.978724 11.148437,11.148437 0,6.169714 -4.978723,11.148438 -11.148437,11.148438 -6.169714,0 -11.148438,-4.978724 -11.148438,-11.148438 0,-6.169713 4.978724,-11.148437 11.148438,-11.148437 z"
         id="use84" /></g><g
       id="g90"><path
         style="color:#000000;fill:#ffffff;stroke-dashoffset:8.8;-inkscape-stroke:none;paint-order:fill markers stroke"
         d="m 127.79297,52.058594 v 2.380859 H 158.75 v -2.380859 z"
         id="path61" /><path
         style="color:#000000;fill:#ffffff;stroke-dashoffset:8.8;-inkscape-stroke:none;paint-order:fill markers stroke"
         d="m 171.97852,52.058594 v 2.380859 h 13.23046 v -2.380859 z"
         id="path62" /><path
         style="color:#000000;fill:#ffffff;stroke-dashoffset:8.8;-inkscape-stroke:none;paint-order:fill markers stroke"
         d="m 167.48047,40.416016 v 2.380859 h 17.72851 v -2.380859 z"
         id="path63" /><path
         style="color:#000000;fill:#ffffff;stroke-dashoffset:8.8;-inkscape-stroke:none;paint-order:fill markers stroke"
         d="m 138.90625,64.757812 v 2.38086 h 44.18555 v -2.38086 z"
         id="path64" /><path
         style="color:#000000;fill:#ffffff;stroke-dashoffset:8.8;-inkscape-stroke:none;paint-order:fill markers stroke"
         d="m 119.85547,76.929687 v 2.38086 h 19.05078 v -2.38086 z"
         id="path65" /><path
         style="color:#000000;fill:#ffffff;stroke-dashoffset:8.8;-inkscape-stroke:none;paint-order:fill markers stroke"
         d="m 174.0957,28.246094 v 2.380859 h 11.11328 v -2.380859 z"
         id="path66" /><path
         style="color:#000000;fill:#ffffff;stroke-dashoffset:8.8;-inkscape-stroke:none;paint-order:fill markers stroke"
         d="m 158.75,89.628906 v 2.38086 h 11.11328 v -2.38086 z"
         id="path67" /><path
         style="color:#000000;fill:#ffffff;stroke-linecap:round;stroke-dashoffset:33.2598;-inkscape-stroke:none;paint-order:fill markers stroke"
         d="m 171.97852,25.765625 c -2.01296,0 -3.66993,1.656968 -3.66993,3.669922 0,2.012954 1.65697,3.671875 3.66993,3.671875 2.01295,0 3.67187,-1.658921 3.67187,-3.671875 0,-2.012954 -1.65892,-3.669922 -3.67187,-3.669922 z m 0,2.380859 c 0.72603,0 1.28906,0.56303 1.28906,1.289063 0,0.726032 -0.56303,1.289062 -1.28906,1.289062 -0.72604,0 -1.28907,-0.56303 -1.28907,-1.289062 0,-0.726033 0.56303,-1.289063 1.28907,-1.289063 z"
         id="use67" /><path
         style="color:#000000;fill:#ffffff;stroke-linecap:round;stroke-dashoffset:33.2598;-inkscape-stroke:none;paint-order:fill markers stroke"
         d="m 165.36523,37.9375 c -2.01295,0 -3.67187,1.656968 -3.67187,3.669922 0,2.012954 1.65892,3.669922 3.67187,3.669922 2.01296,0 3.66993,-1.656968 3.66993,-3.669922 0,-2.012954 -1.65697,-3.669922 -3.66993,-3.669922 z m 0,2.380859 c 0.72604,0 1.28907,0.56303 1.28907,1.289063 0,0.726032 -0.56303,1.289062 -1.28907,1.289062 -0.72603,0 -1.28906,-0.56303 -1.28906,-1.289062 0,-0.726033 0.56303,-1.289063 1.28906,-1.289063 z"
         id="use68" /><path
         style="color:#000000;fill:#ffffff;stroke-linecap:round;stroke-dashoffset:33.2598;-inkscape-stroke:none;paint-order:fill markers stroke"
         d="m 185.20898,62.279297 c -2.01295,0 -3.67187,1.656968 -3.67187,3.669922 0,2.012954 1.65892,3.669922 3.67187,3.669922 2.01296,0 3.66993,-1.656968 3.66993,-3.669922 0,-2.012954 -1.65697,-3.669922 -3.66993,-3.669922 z m 0,2.380859 c 0.72604,0 1.28907,0.56303 1.28907,1.289063 0,0.726032 -0.56303,1.289062 -1.28907,1.289062 -0.72603,0 -1.28906,-0.56303 -1.28906,-1.289062 0,-0.726033 0.56303,-1.289063 1.28906,-1.289063 z"
         id="use70" /><path
         style="color:#000000;fill:#ffffff;stroke-linecap:round;stroke-dashoffset:33.2598;-inkscape-stroke:none;paint-order:fill markers stroke"
         d="m 117.74023,74.449219 c -2.01295,0 -3.67187,1.656968 -3.67187,3.669922 0,2.012954 1.65892,3.669921 3.67187,3.669921 2.01296,0 3.66993,-1.656967 3.66993,-3.669921 0,-2.012954 -1.65697,-3.669922 -3.66993,-3.669922 z m 0,2.380859 c 0.72604,0 1.28907,0.56303 1.28907,1.289063 0,0.726032 -0.56303,1.289062 -1.28907,1.289062 -0.72603,0 -1.28906,-0.56303 -1.28906,-1.289062 0,-0.726033 0.56303,-1.289063 1.28906,-1.289063 z"
         id="use71" /><path
         style="color:#000000;fill:#ffffff;stroke-linecap:round;stroke-dashoffset:33.2598;-inkscape-stroke:none;paint-order:fill markers stroke"
         d="m 171.97852,87.173828 c -2.01296,0 -3.66993,1.656968 -3.66993,3.669922 0,2.012954 1.65697,3.669922 3.66993,3.669922 2.01295,0 3.67187,-1.656968 3.67187,-3.669922 0,-2.012954 -1.65892,-3.669922 -3.67187,-3.669922 z m 0,2.380859 c 0.72603,0 1.28906,0.563031 1.28906,1.289063 0,0.726032 -0.56303,1.289062 -1.28906,1.289062 -0.72604,0 -1.28907,-0.56303 -1.28907,-1.289062 0,-0.726032 0.56303,-1.289062 1.28907,-1.289063 z"
         id="use72" /><rect
         style="fill:#ffffff;stroke-width:1.89844;stroke-linecap:round;stroke-dashoffset:33.2598;-inkscape-stroke:none;paint-order:fill markers stroke"
         id="use73"
         width="5.3566022"
         height="5.3566022"
         x="149.09836"
         y="-112.82577"
         transform="rotate(45)" /><rect
         style="fill:#ffffff;stroke-width:1.89844;stroke-linecap:round;stroke-dashoffset:33.2598;-inkscape-stroke:none;paint-order:fill markers stroke"
         id="use74"
         width="5.3566022"
         height="5.3566022"
         x="157.70444"
         y="-104.21969"
         transform="rotate(45)" /><rect
         style="fill:#ffffff;stroke-width:1.89844;stroke-linecap:round;stroke-dashoffset:33.2598;-inkscape-stroke:none;paint-order:fill markers stroke"
         id="use75"
         width="5.3566022"
         height="5.3566022"
         x="166.31052"
         y="-95.613609"
         transform="rotate(45)" /><rect
         style="fill:#ffffff;stroke-width:1.89844;stroke-linecap:round;stroke-dashoffset:33.2598;-inkscape-stroke:none;paint-order:fill markers stroke"
         id="use76"
         width="5.3566022"
         height="5.3566022"
         x="147.22748"
         y="-77.278923"
         transform="rotate(45)" /><rect
         style="fill:#ffffff;stroke-width:1.89844;stroke-linecap:round;stroke-dashoffset:33.2598;-inkscape-stroke:none;paint-order:fill markers stroke"
         id="use77"
         width="5.3566022"
         height="5.3566022"
         x="131.384"
         y="-77.899246"
         transform="rotate(45)" /><rect
         style="fill:#ffffff;stroke-width:1.89844;stroke-linecap:round;stroke-dashoffset:33.2598;-inkscape-stroke:none;paint-order:fill markers stroke"
         id="use78"
         width="5.3566022"
         height="5.3566022"
         x="150.78217"
         y="-45.660938"
         transform="rotate(45)" /><rect
         style="fill:#ffffff;stroke-width:1.89844;stroke-linecap:round;stroke-dashoffset:33.2598;-inkscape-stroke:none;paint-order:fill markers stroke"
         id="use79"
         width="5.3566022"
         height="5.3566022"
         x="142.17609"
         y="-54.267017"
         transform="rotate(45)" /><rect
         style="fill:#ffffff;stroke-width:1.89844;stroke-linecap:round;stroke-dashoffset:33.2598;-inkscape-stroke:none;paint-order:fill markers stroke"
         id="use80"
         width="5.3566022"
         height="5.3566022"
         x="173.79407"
         y="-50.71233"
         transform="rotate(45)" /><rect
         style="fill:#ffffff;stroke-width:1.89844;stroke-linecap:round;stroke-dashoffset:33.2598;-inkscape-stroke:none;paint-order:fill markers stroke"
         id="use81"
         width="5.3566022"
         height="5.3566022"
         x="156.58191"
         y="-86.633354"
         transform="rotate(45)" /><rect
         style="fill:#ffffff;stroke-width:1.89844;stroke-linecap:round;stroke-dashoffset:33.2598;-inkscape-stroke:none;paint-order:fill markers stroke"
         id="use82"
         width="5.3566022"
         height="5.3566022"
         x="178.84547"
         y="-73.724243"
         transform="rotate(45)" /><path
         style="color:#000000;fill:#ffffff;stroke-linecap:round;stroke-dashoffset:33.2598;-inkscape-stroke:none;paint-order:fill markers stroke"
         d="m 125.67773,49.578125 c -2.01295,0 -3.67187,1.656968 -3.67187,3.669922 0,2.012954 1.65892,3.671875 3.67187,3.671875 2.01296,0 3.66993,-1.658921 3.66993,-3.671875 0,-2.012954 -1.65697,-3.669922 -3.66993,-3.669922 z m 0,2.380859 c 0.72604,0 1.28907,0.56303 1.28907,1.289063 0,0.726032 -0.56303,1.289062 -1.28907,1.289062 -0.72603,0 -1.28906,-0.56303 -1.28906,-1.289062 0,-0.726033 0.56303,-1.289063 1.28906,-1.289063 z"
         id="use69" /></g></g></svg>
